CoelacanthItalic.sfdir
StartChar: exclam
Encoding: 33 33 241
Width: 266
VWidth: 1159
Flags: HW
LayerCount: 2
Fore
SplineSet
112.46484375 209 m 17
 136.685546875 339 152.9453125 437 163.831054688 533 c 0
 168.587890625 580 149.05859375 604 160.375 654 c 1
 243.23828125 664 291.455078125 692 290.678710938 661 c 1
 267.971679688 625 265.686523438 602 246.831054688 533 c 0
 212.541015625 408 182.244140625 342 157.279296875 208 c 9
 112.46484375 209 l 17
EndSplineSet
Refer: 405 46 N 1 0 0.0349208 1 11.5253 0 2
Position2: "cpsp-1" dx=0 dy=0 dh=50 dv=100
Substitution2: "pcap-1" exclam.pcap
Substitution2: "smcp-1" exclam.smcp
EndChar
StartChar: dollar
Encoding: 36 36 209
Width: 463
VWidth: 1159
UnlinkRmOvrlpSave: 1
Flags: W
HStem: -20 34<167.172 294.696> 634 26<305.809 408.209>
LayerCount: 2
Fore
SplineSet
510.395507812 588 m 1
 481.784179688 554.166992188 464.051757812 530 436.186523438 501 c 1
 419.236328125 512 l 1
 429.657226562 525 435.587890625 535.356445312 438.688476562 552 c 0
 447.799804688 600.899414062 409.484375 634 361.965820312 634 c 3
 297.189453125 634 229.088867188 586.356445312 216.7265625 520 c 0
 201.526367188 438.41796875 269.525390625 409.427734375 331.84765625 365 c 0
 409.530273438 309.622070312 460.693359375 262.197265625 442.3984375 164 c 0
 422.87109375 59.1904296875 316.424804688 -20 212.1171875 -20 c 3
 127.767578125 -20 66.25 54.025390625 49.9267578125 140 c 1
 71.951171875 162.013671875 101.96484375 186.633789062 127.340820312 212 c 1
 146.732421875 198 l 1
 132.588867188 184.888671875 127.018554688 161.958984375 122.740234375 139 c 0
 110.155273438 71.4521484375 159.33203125 14 224.451171875 14 c 3
 306.744140625 14 371.387695312 78.064453125 383.671875 144 c 0
 398.142578125 221.665039062 352.423828125 243.120117188 286.805664062 295 c 0
 212.368164062 353.852539062 128.80859375 391.629882812 148.25390625 496 c 0
 165.91796875 590.802734375 267.3515625 660 366.810546875 660 c 3
 434.401367188 660 484.28515625 621.051757812 510.395507812 588 c 1
EndSplineSet
Refer: 487 58113 N 0.166857 0.785 -1 0 199.483 -73 2
Substitution2: "case-1" dollar.alt
Substitution2: "lnum-1" dollar.alt
EndChar
StartChar: quotesingle
Encoding: 39 39 437
Width: 200
VWidth: 1159
Flags: W
HStem: 445.7 254<143.561 151.34>
VStem: 144.998 96<636.29 699.7>
LayerCount: 2
Fore
SplineSet
144.998046875 699.700195312 m 9
 240.998046875 699.700195312 l 17
 222.896484375 630.734375 175.409179688 537.034179688 150.139648438 445.700195312 c 9
 110.139648438 445.700195312 l 17
 129.922851562 536.911132812 129.159179688 630.889648438 144.998046875 699.700195312 c 9
EndSplineSet
Position2: "Extra space for context kern-1" dx=35 dy=0 dh=70 dv=0
Position2: "cpsp-1" dx=0 dy=0 dh=7 dv=14
EndChar
StartChar: asterisk
Encoding: 42 42 162
Width: 362
VWidth: 1159
Flags: W
HStem: 402 21G<266.661 292.816> 540 74<111.295 168.005> 561 74<344.851 394.664>
LayerCount: 2
Fore
SplineSet
239.673828125 522 m 1xa0
 203.61328125 468 206.141601562 444 163.522460938 387 c 1
 139.77734375 383 111.92578125 416 110.278320312 434 c 1
 157.153320312 487 177.153320312 487 222.724609375 533 c 1
 164.028320312 540 141.791992188 528 81.0283203125 540 c 1
 73.3125 563 105.138671875 605 118.815429688 614 c 1xc0
 177.4609375 596 179.735351562 576 230.822265625 555 c 1
 230.815429688 614 213.423828125 628 218.34765625 692 c 1
 236.329101562 708 283.3984375 703 297.162109375 691 c 1
 286.23828125 627 269.188476562 616 254.1953125 557 c 1
 312.78515625 587 323.698242188 608 387.728515625 635 c 1
 402.423828125 628 410.78515625 587 396.940429688 561 c 1
 333.028320312 540 319.078125 551 259.283203125 536 c 1
 295.458007812 494 318.270507812 493 353.514648438 446 c 1
 347.787109375 426 304.31640625 402 281.31640625 402 c 1
 252.005859375 454 262.544921875 473 239.673828125 522 c 1xa0
EndSplineSet
EndChar
StartChar: comma
Encoding: 44 44 192
Width: 183
VWidth: 1159
Flags: W
HStem: -125 247
VStem: -27.4395 162.308
LayerCount: 2
Fore
SplineSet
-16.3125 -125 m 5
 -27.439453125 -100 l 5
 9.2939453125 -79 56.5859375 -42 47.66796875 -11 c 4
 41.4365234375 11 22.9599609375 26 5.3447265625 37 c 4
 1.4140625 39 -0.3408203125 46 -0.1318359375 52 c 5
 0.078125 58 5.251953125 63 10.322265625 65 c 4
 31.7060546875 76 48.2646484375 92 62.998046875 113 c 4
 65.1728515625 118 72.3125 122 78.3125 122 c 7
 84.3125 122 89.172851562 118 89.998046875 113 c 4
 98.264648438 92 112.706054688 76 130.322265625 65 c 4
 134.251953125 63 135.078125001 58 134.868164062 52 c 5
 134.659179688 46 108.95703125 -60 -16.3125 -125 c 5
EndSplineSet
Position2: "Extra space for context kern-1" dx=78 dy=0 dh=156 dv=0
Position2: "cpsp-1" dx=0 dy=0 dh=7 dv=14
EndChar
StartChar: period
Encoding: 46 46 405
Width: 184
VWidth: 1159
Flags: W
HStem: -18 140<84.9007 113.663>
VStem: 31 136
LayerCount: 2
Fore
SplineSet
156.44140625 36 m 0
 135.057617188 25 117.568359375 11 102.834960938 -10 c 0
 100.66015625 -15 93.5556640625 -18 87.5556640625 -18 c 3
 81.5556640625 -18 74.66015625 -15 73.8349609375 -10 c 0
 65.568359375 11 54.0576171875 25 36.44140625 36 c 0
 32.5107421875 38 30.7900390625 46 31 52 c 1
 31.2099609375 58 36.3837890625 63 41.4541015625 65 c 0
 62.837890625 76 79.396484375 92 94.1298828125 113 c 0
 96.3046875 118 104.444335938 122 110.444335938 122 c 3
 116.444335938 122 122.3046875 118 123.129882812 113 c 0
 131.396484375 92 143.837890625 76 161.454101562 65 c 0
 165.383789062 63 167.209960938 58 167 52 c 1
 166.790039062 46 161.510742188 38 156.44140625 36 c 0
EndSplineSet
Position2: "Extra space for context kern-1" dx=78 dy=0 dh=156 dv=0
Position2: "cpsp-1" dx=0 dy=0 dh=7 dv=14
EndChar
StartChar: zero
Encoding: 48 48 1229
Width: 503
VWidth: 1159
Flags: HW
HStem: 1 33<167.776 279.07> 375 36<209.091 325.043>
LayerCount: 2
Fore
SplineSet
269.017578125 369 m 7
 193.447265625 369 145.41015625 292.412109375 131.08984375 221 c 4
 112.099609375 117.569335938 135.801757812 28 233.72265625 28 c 7
 313.885742188 28 351.719726562 120.92578125 364.567382812 189 c 4
 383.422851562 288.771484375 365.709960938 369 269.017578125 369 c 7
296.35546875 405 m 7
 401.118164062 405 467.342773438 311.724609375 445.810546875 200 c 4
 424.274414062 87.4091796875 324.922851562 -5 212.997070312 -5 c 7
 103.456054688 -5 32.837890625 87.4091796875 53.810546875 200 c 4
 75.8212890625 309.674804688 187.051757812 405 296.35546875 405 c 7
EndSplineSet
Substitution2: "'zero' Slashed Zero lookup 22-1" zero.alt
Substitution2: "dnom-1" zero.denom
Substitution2: "numr-1" zero.numerator
Substitution2: "lnum-1" zero.proportionallining
Substitution2: "tnum-1" zero.tabulartext
EndChar
StartChar: one
Encoding: 49 49 371
Width: 370
VWidth: 1159
Flags: HW
HStem: 0 26<31.8135 87.6873 199.022 246.514> 369 23<118.41 164.102> 379 23<279.414 319.76>
VStem: 28.5137 293.935
LayerCount: 2
Fore
SplineSet
118.41015625 392 m 1xd0
 135.755918681 390.644374625 157.339490623 389.838791924 180.621226911 389.838791924 c 0
 227.998440462 389.838791924 282.407802235 393.174733448 322.448242188 402 c 9
 319.759765625 379 l 1xb0
 257.314453125 367 256.48046875 358 244.162109375 327 c 0
 241.328125 318 221.264648438 249 211.27734375 200 c 24
 200.067382812 145 189.374023438 68 189.334960938 58 c 0
 189.83203125 31 217.423828125 29 253.017578125 27 c 9
 246.513671875 0 l 1
 208.851976978 3.33408993208 172.396188718 5.16732931767 135.490089148 5.16732931767 c 0
 100.694253114 5.16732931767 65.498130429 3.53774276475 28.513671875 0 c 9
 31.8134765625 26 l 1
 65.62890625 30 94.0361328125 32 112.151367188 62 c 0
 117.985351562 71 128.672851562 94 150.27734375 200 c 0
 170.251953125 298 170.532226562 319 170.754882812 325 c 0
 171.276367188 357 176.90625 365 112.721679688 369 c 9
 118.41015625 392 l 1xd0
EndSplineSet
Substitution2: "dnom-1" one.denom
Substitution2: "numr-1" one.numerator
Substitution2: "tnum-1" one.tabulartext
Substitution2: "lnum-1" one.proportionallining
EndChar
StartChar: three
Encoding: 51 51 491
Width: 388
VWidth: 1159
Flags: W
HStem: -234 26<8.51653 33.2284> 122 26<74.3408 106.059> 402 52<175.34 253.297>
VStem: 5.08105 324.507
LayerCount: 2
Fore
SplineSet
5.0810546875 -208 m 1
 133.883789062 -155 188.31640625 -94 206.047851562 -7 c 0
 221.334960938 68 174.118164062 116 131.397460938 137 c 1
 127.397460938 137 95.3408203125 122 74.3408203125 122 c 1
 70.6396484375 148 l 1
 134.307617188 166 237.926757812 223 259.938476562 331 c 0
 271.759765625 389 229.409179688 402 212.409179688 402 c 3
 171.409179688 402 147.720703125 379 123.255859375 362 c 1
 112.92578125 380 l 1
 129.85546875 414 206.0078125 454 242.0078125 454 c 3
 301.0078125 454 342.8359375 409 329.587890625 344 c 0
 310.021484375 248 198.346679688 176 193.53125 172 c 1
 239.862304688 154 298.838867188 95 280.698242188 6 c 0
 250.534179688 -142 55.208984375 -227 9.7822265625 -234 c 1
 5.0810546875 -208 l 1
EndSplineSet
Substitution2: "dnom-1" three.denom
Substitution2: "numr-1" three.numerator
Substitution2: "tnum-1" three.tabulartext
Substitution2: "lnum-1" three.proportionallining
EndChar
StartChar: four
Encoding: 52 52 266
Width: 463
VWidth: 1159
Flags: W
HStem: -7 21G<368.328 391.68> 0 45.5<29.5312 221.258 291.531 377.827> 402.3 20G<355.708 392.721>
LayerCount: 2
Fore
SplineSet
231.53125 45.5 m 17x60
 248.55078125 129 274.12890625 221.055664062 276.81640625 277.5 c 9
 276.81640625 277.5 129.87890625 130.26953125 29.53125 45.5 c 9
 231.53125 45.5 l 17x60
392.720703125 409.5 m 25
 379.985351562 383.370117188 364.161132812 359.635742188 360.064453125 342.5 c 0
 332.932617188 229 321.272460938 174.200195312 291.53125 45.5 c 1x60
 358.225585938 44 374.6328125 46 422.556640625 104.5 c 9
 422.556640625 104.5 437.51953125 97.83984375 441.721679688 95.5 c 9
 441.721679688 95.5 404.528320312 32.974609375 378.831054688 -7 c 1xa0
 357.82421875 2.591796875 310.24609375 1.060546875 282.461914062 1 c 1
 267.040039062 -73.654296875 253.33984375 -154.471679688 252.671875 -179.5 c 1
 208.8828125 -203 181.9921875 -227 162.793945312 -252.5 c 9
 162.793945312 -252.5 141.984375 -239.349609375 139.666992188 -233.5 c 1
 186.774414062 -179 197.145507812 -116.307617188 221.2578125 0 c 1
 37.2578125 0 -1.5380859375 1 -33.20703125 -17 c 9
 -33.20703125 -17 -45.9345703125 -1.2900390625 -50.130859375 3 c 1
 -31.869140625 19 339.587890625 367.799804688 371.829101562 422.299804688 c 9
 392.720703125 409.5 l 25
EndSplineSet
Substitution2: "dnom-1" four.denom
Substitution2: "numr-1" four.numerator
Substitution2: "tnum-1" four.tabulartext
Substitution2: "lnum-1" four.proportionallining
EndChar
StartChar: five
Encoding: 53 53 254
Width: 362
VWidth: 1159
Flags: W
HStem: -215 32<-40.9825 20.4845> 323.5 70<141.406 310.18>
LayerCount: 2
Fore
SplineSet
129.672851562 393.5 m 9
 194.420898438 395.450195312 279.68359375 396 295.693359375 398.5 c 0
 322.97265625 402.759765625 341.939453125 428.610351562 357.883789062 448.5 c 9
 357.883789062 448.5 374.826171875 436.83984375 379.029296875 434.5 c 9
 343.14453125 392.379882812 304.416015625 326 287.017578125 326.5 c 0
 256.672851562 327.372070312 203.416992188 323.5 141.40625 323.5 c 9
 141.40625 323.5 124.849609375 264.299804688 111.802734375 217.5 c 1
 195.625976562 224 298.377929688 176.166015625 272.356445312 48.5 c 0
 242.98828125 -95.595703125 64.4853515625 -206 -45.3486328125 -215 c 9
 -45.3486328125 -215 -39.6796875 -188.849609375 -40.826171875 -183 c 1
 43.7861328125 -180 180.701171875 -92.1005859375 205.177734375 28 c 0
 217.216796875 87.0654296875 189.3984375 164 55.4521484375 152 c 1
 76.3662109375 208 108.028320312 305.161132812 129.672851562 393.5 c 9
EndSplineSet
Substitution2: "dnom-1" five.denom
Substitution2: "numr-1" five.numerator
Substitution2: "tnum-1" five.tabulartext
Substitution2: "lnum-1" five.proportionallining
EndChar
StartChar: six
Encoding: 54 54 464
Width: 496
VWidth: 1159
Flags: W
HStem: -10 40<190.17 287.191> 320 44<237.383 329.218> 607 23<435.38 451.186>
LayerCount: 2
Fore
SplineSet
451.185546875 630 m 9
 451.185546875 630 455.711914062 612.459960938 458.498046875 607 c 1
 291.435546875 538 181.016601562 413.28515625 146.513671875 244 c 24
 125.831054688 142.525390625 148.780273438 30 250.897460938 30 c 3
 299.123046875 30 345.55078125 82.2705078125 357.723632812 142 c 0
 378.876953125 245.787109375 342.603515625 320 277.00390625 320 c 3
 249.623046875 320 229.7421875 304 205.258789062 282 c 1
 187.111328125 296 l 1
 213.264648438 336 263.817382812 364 318.970703125 364 c 3
 393.970703125 364 449.177734375 276.702148438 429.061523438 178 c 0
 408.26171875 75.951171875 296.766601562 -10 208.743164062 -10 c 3
 83.5986328125 -10 49.62890625 121.913085938 68.3984375 214 c 0
 109.075195312 413.572265625 265.365234375 572 451.185546875 630 c 9
EndSplineSet
Substitution2: "dnom-1" six.denom
Substitution2: "numr-1" six.numerator
Substitution2: "tnum-1" six.tabulartext
Substitution2: "lnum-1" six.proportionallining
EndChar
StartChar: seven
Encoding: 55 55 450
Width: 420
VWidth: 1159
Flags: W
HStem: 339 67<122.5 357.028>
LayerCount: 2
Fore
SplineSet
122.236328125 422 m 17
 127.790039062 410 137.803710938 406.586914062 151.974609375 406 c 24
 270.9921875 401.072265625 445.568359375 404 460.3828125 408 c 9
 460.3828125 408 463.77734375 390.900390625 466.103515625 387 c 1
 423.98828125 357 68.322265625 -132 64.576171875 -170 c 9
 64.576171875 -170 18.322265625 -167.219726562 -6.0166015625 -168 c 1
 128.225585938 0 229.0546875 122.745117188 366.8359375 317 c 0
 371.918945312 324.166992188 368.377929688 334.358398438 360.50390625 335 c 0
 285.336914062 341.12109375 276.134765625 343 159.319335938 339 c 0
 113.13671875 337.418945312 76.240234375 328.799804688 51.9052734375 283 c 9
 51.9052734375 283 32.8662109375 291.440429688 26.943359375 293 c 9
 26.943359375 293 86.9365234375 396 99.2548828125 427 c 9
 122.236328125 422 l 17
EndSplineSet
Validated: 33
Substitution2: "dnom-1" seven.denom
Substitution2: "numr-1" seven.numerator
Substitution2: "tnum-1" seven.tabulartext
Substitution2: "lnum-1" seven.proportionallining
EndChar
StartChar: eight
Encoding: 56 56 218
Width: 461
VWidth: 1159
UnlinkRmOvrlpSave: 1
Flags: W
HStem: -7 34<150.815 257.76> 601 30<244.375 330.22>
LayerCount: 2
Back
SplineSet
296.430664062 631 m 7
 345.3125 631 379.375976562 621.931640625 406.416015625 586.771484375 c 4
 420.334960938 568.669921875 432.80859375 539.63671875 424.119140625 497 c 4
 391.70703125 337.97265625 141.758789062 333.3203125 109.083007812 173 c 4
 94.357421875 100.75 131.46875 27 201.326171875 27 c 7
 287.409179688 27 312.442382812 101.166992188 318.930664062 133 c 4
 334.536132812 209.573242188 303.204101562 244.362304688 245.22265625 296 c 4
 185.024414062 349.612304688 120.793945312 402.180664062 137.469726562 484 c 4
 153.928710938 564.750976562 240.6796875 631 296.430664062 631 c 7
EndSplineSet
Fore
SplineSet
286.315429688 601 m 3
 248.076171875 601 196.397460938 557.240234375 189.01171875 521 c 0
 156.146484375 359.752929688 425.803710938 333.541992188 389.4140625 155 c 24
 369.567382812 57.6220703125 274.7734375 -7 166.395507812 -7 c 3
 83.48046875 -7 16.283203125 41.5078125 34.9306640625 133 c 0
 75.9326171875 334.173828125 333.486328125 331.985351562 362.838867188 476 c 0
 371.846679688 520.192382812 358.5078125 601 286.315429688 601 c 3
296.430664062 631 m 3
 420 631 434.105433021 546 424.119140625 497 c 0
 391.708986871 337.972257678 141.758789062 333.3203125 109.083007812 173 c 0
 94.357421875 100.75 131.46875 27 201.326171875 27 c 3
 287.409179688 27 312.442382812 101.166992188 318.930664062 133 c 0
 334.536132812 209.573242188 303.204101562 244.362304688 245.22265625 296 c 0
 185.024414062 349.612304688 120.793945312 402.180664062 137.469726562 484 c 0
 153.928710938 564.750976562 240.6796875 631 296.430664062 631 c 3
EndSplineSet
Substitution2: "dnom-1" eight.denom
Substitution2: "numr-1" eight.numerator
Substitution2: "lnum-1" eight.proportionallining
Substitution2: "tnum-1" eight.tabulartext
EndChar
StartChar: at
Encoding: 64 64 163
Width: 802
VWidth: 1159
Flags: W
HStem: -184 52<220.298 425.621> -31 20G<611.146 659.483> 1.09961 47.7002<458.768 559.989> 6.5 58.5<278.488 363.298> 378.9 20G<549.455 590.859> 517 44<407.854 636.964>
VStem: 222.851 64.098<81.8659 195.602>
LayerCount: 2
Fore
SplineSet
564.755 335 m 1xde
 539.555 278.3 520.869 211.186 510.755 150.5 c 0
 505.822 120.901 501.64 87.547 501.64 75.1396 c 3
 501.64 56.5948 506.697 48.7998 515.255 48.7998 c 3
 536.667 48.7998 581.1 56.0977 613.5 83.5 c 0
 676.636494033 131.958 728.092773438 199 744.80859375 285 c 4
 773.966796875 435.002929688 666.405273438 517 523.2890625 517 c 7
 328.951171875 517 140.296875 367.009765625 99.4755859375 157 c 4
 65.751953125 -16.4931640625 176.06640625 -132 315.924804688 -132 c 7
 445.32421875 -132 565.131835938 -81.1982421875 657.161132812 -11 c 5
 661.805664062 -17.6298828125 664.42578125 -21.3701171875 669.0703125 -28 c 5
 577.974609375 -108 433.8046875 -184 289.350585938 -184 c 7
 125.283203125 -184 -10.2666015625 -52.6005859375 30.4755859375 157 c 4
 73.7880859375 379.82421875 309.671875 561 556.466796875 561 c 7
 702.305664062 561 825.37109375 456.0390625 792.708007812 288 c 4
 773.16015625 187.435546875 686.922295872 103.668 629.5 65.5 c 0
 593.246 39.4713 536.574 1.09961 478.355 1.09961 c 3xee
 439.181 1.09961 436.86 44.567 439.655 89.2998 c 1
 395.555 42.4999 337.055 6.5 301.955 6.5 c 3
 255.02 6.5 222.851 50.7988 222.851 103.97 c 3
 222.851 201.658 297.9 289.633 360.455 322.4 c 0
 401.855 344.9 452.255 353 519.755 368.3 c 0
 531.919 371.057 544.824 385.269 549.455 394.4 c 1
 596.255 398.9 l 1
 585.463 377.317 575.358 356.207 564.755 335 c 1xde
479.155 314.8 m 1
 470.155 316.6 445.855 318.4 437.755 318.4 c 3
 409.855 318.4 377.455 303.1 358.556 289.6 c 0
 323.189 264.337 286.949 213.234 286.949 145.586 c 3
 286.949 102.981 305.419 65 351.455 65 c 3xde
 379.355 65 417.155 91.3378 442.355 116.7 c 1
 451.355 154.163 463.055 195.981 472.955 237.8 c 0
 478.177 259.858 483.105 283.587 483.105 298.967 c 3
 483.105 306.389 481.962 311.994 479.155 314.8 c 1
EndSplineSet
Validated: 33
Position2: "'case' vertical ajustments for all-caps-1" dx=0 dy=160 dh=0 dv=0
Position2: "cpsp-1" dx=0 dy=0 dh=50 dv=100
EndChar
StartChar: A
Encoding: 65 65 1243
Width: 665
VWidth: 1159
Flags: HMW
HStem: -10 43<115.227 172.116 556.577 595.188> 245 42<265.295 443.093> 691 20G<506.822 552.39>
VStem: 449.779 92.5742<383.39 544>
AnchorPoint: "Ogonek" 459 23 basechar 0
AnchorPoint: "Top" 526 699 basechar 0
AnchorPoint: "Bottom" 289 -15 basechar 0
LayerCount: 2
Fore
SplineSet
265.294921875 287 m 1
 314.184570312 284 413.9609375 285 459.857421875 287 c 1
 456.498046875 387 453.444335938 442 449.779296875 544 c 9
 378.03515625 443 330.206054688 378 265.294921875 287 c 1
394 -10 m 9
 394 -10 395 13 395 27 c 1
 436.471679688 37 462.770507812 47 460.747070312 75 c 0
 460.029296875 138 459.55078125 178 458.833007812 241 c 1
 406.020507812 251 318.331054688 252 236.620117188 245 c 9
 192.334960938 183 159.404296875 147 120.796875 87 c 0
 100.38671875 51 115.9375 28 183 33 c 9
 170 -10 l 1
 121 1 20 4 -33 -5 c 9
 -33 -5 -28 21 -27 33 c 1
 22.64453125 47 47.9736328125 57 64.1845703125 80 c 0
 220.862304688 289 355.967773438 470 475.178710938 640 c 0
 502.642578125 677 500.254882812 679 513.389648438 711 c 9
 552.389648438 711 l 1
 545.880859375 684 542.13671875 657.322265625 542.353515625 642 c 0
 545.530273438 417.05078125 545.716796875 281 552.610351562 62 c 24
 557.6484375 36 577.801757812 33 604 31 c 9
 604 31 599 8 595 -4 c 1
 536 6 454 6 394 -10 c 9
EndSplineSet
Position2: "cpsp-1" dx=0 dy=0 dh=50 dv=100
Substitution2: "c2pc-1" a.pcap
Substitution2: "c2sc-1" a.smcp
EndChar
StartChar: B
Encoding: 66 66 1250
Width: 611
VWidth: 1159
Flags: HMW
HStem: -4 38<15.3117 91.2324 186.437 364.812> 349 30<257.312 392.516> 653 41<184.312 231.625 334.896 455.297>
AnchorPoint: "Top" 378.996 699 basechar 0
AnchorPoint: "Bottom" 267.692 -15 basechar 0
LayerCount: 2
Fore
SplineSet
14.4091796875 34 m 1
 58.357421875 36 93.80859375 35.1494140625 100.388671875 73 c 0
 101.256835938 78 126.80078125 175.720703125 152.653320312 292 c 0
 190.228515625 461 217.556640625 604.989257812 218.221679688 614 c 0
 218.959960938 624 219.260742188 640.092773438 201.383789062 646 c 0
 195.331054688 648 157.1484375 655 151.122070312 656 c 1
 166.126953125 694 l 1
 175.126953125 694 208.388671875 684 260.388671875 684 c 3
 302.44140625 684 347.59765625 694 387.126953125 694 c 3
 507.130859375 694 556.901367188 578.6796875 544.735351562 518 c 0
 530.5 447 477.713867188 402 388.63671875 369 c 1
 512.270507812 363 581.778320312 278.422851562 558.560546875 181 c 0
 532.10546875 70 416.598632812 -4 261.404296875 -4 c 3
 211.404296875 -4 166.247070312 2 113.247070312 2 c 3
 59.2470703125 2 16.3525390625 -2 9.3525390625 -2 c 1
 14.4091796875 34 l 1
342.323242188 381 m 0
 403.34765625 391 442.857421875 440.204101562 456.233398438 499 c 0
 469.9765625 547 468.528320312 653 367.200195312 653 c 3
 359.836914062 653 345.776367188 650.999023438 340.3046875 649 c 0
 318.436523438 644 312.305664062 624.235351562 309.221679688 614 c 0
 275.180664062 501 247.375 379 247.375 379 c 1
 323.375 379 332.446289062 379.381835938 342.323242188 381 c 0
311.161132812 349 m 0
 241.161132812 349 l 1
 220.727539062 251 198.484375 154.501953125 185.786132812 96 c 0
 177.754882812 59 180.749023438 45.4716796875 203.2265625 41 c 0
 213.278320312 39 254.409179688 34 277.409179688 34 c 3
 368.772460938 34 451.165039062 83.3291015625 474.638671875 178 c 0
 495.466796875 262 457.002929688 349 311.161132812 349 c 0
EndSplineSet
Position2: "cpsp-1" dx=0 dy=0 dh=50 dv=100
Substitution2: "c2pc-1" b.pcap
Substitution2: "c2sc-1" b.smcp
EndChar
StartChar: C
Encoding: 67 67 1254
Width: 620
VWidth: 1159
Flags: W
HStem: -10 42<264.828 445.111> 659 40<371.158 564.014>
VStem: 618.39 37.3193<525.562 600.835>
AnchorPoint: "Bottom" 319.347 -15 basechar 0
AnchorPoint: "Top" 481 699 basechar 0
LayerCount: 2
Fore
SplineSet
57.841796875 348 m 0
 94.7587890625 520 243.233398438 699 494.650390625 699 c 3
 548.758789062 699 576.418945312 694 626.200195312 678 c 0
 660.48828125 667 679.331054688 673 694.200195312 678 c 1
 716.56640625 664 l 1
 666.137695312 604 660.1328125 566 655.708984375 544 c 0
 651.232421875 524 649.389648438 518 618.389648438 518 c 9
 612.420898438 555 632.452148438 592 604.90234375 613 c 0
 564.1796875 645 530.575195312 659 471.697265625 659 c 27
 330.125976562 659 195.129882812 553 155.34375 367 c 0
 113.140625 160 218.150390625 32 349.116210938 32 c 3
 441.345703125 32 525.364257812 86 578.37109375 175 c 9
 603.581054688 167 l 1
 584.837890625 119 570.466796875 95 548.723632812 47 c 1
 485.543945312 16 411.568359375 -10 327.215820312 -10 c 3
 134.796875 -10 14.4794921875 140 57.841796875 348 c 0
EndSplineSet
Position2: "cpsp-1" dx=0 dy=0 dh=50 dv=100
Substitution2: "c2pc-1" c.pcap
Substitution2: "c2sc-1" c.smcp
EndChar
StartChar: E
Encoding: 69 69 1264
Width: 624
VWidth: 1159
Flags: W
HStem: -10 36<16.2021 72.3819> 2.51809 37.9647<193 436.179> 337 36<239.173 433.499> 646.089 38.2543<310.833 494.931> 659 31<160.571 210.032> 680 20G<578.042 588.914>
VStem: 450.604 36.7646<251 328.377> 531.983 25.9209<536 581.468>
AnchorPoint: "Ogonek" 495.399 23 basechar 0
AnchorPoint: "Bottom" 274.333 -15 basechar 0
AnchorPoint: "Top" 415.636 699 basechar 0
LayerCount: 2
Fore
SplineSet
162.872070312 690 m 1xab
 189.343267964 685.970537173 237.900033449 684.342933913 292.96650746 684.342933913 c 0x33
 415.557501177 684.342933913 570.411449458 692.409545469 585.671875 700 c 1x27
 592.155343665 691.477303984 595.405114067 685.916999227 595.405114067 676.900794405 c 0
 595.405114067 659.246216199 582.945062694 628.341258116 557.904296875 536 c 1
 531.983398438 533 l 1
 532.708984375 584 529.311523438 614.818359375 525.819335938 618 c 0
 503.527406241 638.309307244 447.365791119 646.088634235 394.967057942 646.088634235 c 0
 375.124797797 646.088634235 355.822124427 644.973100443 339.102539062 643 c 0
 322.155273438 641 306.114257812 627.129882812 300.993164062 609 c 0
 278.114257812 528 257.235351562 447 239.172851562 373 c 1
 290.704101562 375 418.9453125 374.14453125 429.094726562 376 c 0
 456.443359375 381 466.294921875 406 486.157226562 450 c 1
 517.313476562 444 l 1
 506.398886088 409.481350094 499.342780525 375.250389357 494.741595935 341 c 0
 490.722563663 311.083047647 488.576546108 281.151271969 487.368164062 251 c 1
 450.603515625 242 l 1
 447.744140625 313 456.318359375 326.4453125 419.247070312 332 c 0
 383.919921875 337 305.827148438 336 231.116210938 337 c 1
 207.17578125 238.067382812 190.018554688 148.391601562 187.819335938 81 c 0
 187.264648438 64 193.666015625 50.5830078125 208.657226562 49 c 0
 250.469675803 44.5850238631 286.955802419 40.482835523 322.301573465 40.482835523 c 0
 359.008726275 40.482835523 394.485987677 44.907110134 433.421875 58 c 0
 492.897460938 78 509.322265625 100 562.33203125 176 c 1
 584.489257812 170 l 1
 555.26953125 102 535.317382812 62 509.940429688 0 c 1
 416.587465278 -0.524532555384 319.619327325 2.51808694734 230.47372353 2.51808694734 c 4x73
 149.421180351 2.51808694734 75.0005733826 0.00214637750875 16.2021484375 -10 c 1
 15.259765625 26 l 1
 66.998046875 36 91.68359375 48 97.9501953125 76 c 1
 108.452815076 116.544238952 136.625541539 238.984982538 163.106958852 358.999995887 c 0
 187.386167055 469.034495257 210.243669945 577.029938924 216.7578125 618 c 0
 221.05078125 645 218.05078125 645 152.68359375 659 c 1
 162.872070312 690 l 1xab
EndSplineSet
Validated: 545
Position2: "cpsp-1" dx=0 dy=0 dh=50 dv=100
Substitution2: "c2pc-1" e.pcap
Substitution2: "c2sc-1" e.smcp
EndChar
StartChar: F
Encoding: 70 70 1274
Width: 567
VWidth: 1159
Flags: W
HStem: -12 54<176.664 263.102> -10 36<-0.360352 55.2135> 335 39<226.584 409.448> 657 31<138.362 189.287> 683 20G<604.506 612.512>
VStem: 413.094 36.7119<251 327.609> 553.395 28.9219<537 588.134>
AnchorPoint: "Top" 396.073 699 basechar 0
AnchorPoint: "Bottom" 152.771 -15 basechar 0
LayerCount: 2
Fore
SplineSet
260.692382812 -12 m 1xae
 215.338867188 0.8623046875 181.18359375 6.626953125 143.30078125 6.626953125 c 0
 104.604492188 6.626953125 62.0205078125 0.611328125 -0.3603515625 -10 c 1
 -1.302734375 26 l 1
 50.435546875 36 75.12109375 48 81.3876953125 76 c 1
 90.0439453125 109.283203125 111.026367188 197.938476562 133.161132812 295 c 0
 162.520507812 423.73828125 193.90625 567.267578125 201.247070312 616 c 0
 205.540039062 643 192.540039062 643 127.173828125 657 c 1
 138.362304688 688 l 1x76
 189.536132812 685.208007812 247.999023438 683.974609375 305.899414062 683.974609375 c 0
 455.346679688 683.974609375 601.043945312 692.188476562 607.96875 703 c 1
 617.055664062 696.396484375 621 690.556640625 621 680.908203125 c 0
 621 661.334960938 604.766601562 626.087890625 582.31640625 537 c 1
 553.39453125 534 l 1
 551.452148438 570 565.1953125 618 533.93359375 628 c 0
 480.461914062 646 386.251953125 654 309.514648438 644 c 0
 292.56640625 642 287.01171875 625 281.483398438 607 c 0
 258.604492188 526 242.646484375 448 226.583984375 374 c 1
 277.609375 376 382.46875 372.506835938 392.583984375 374 c 0
 426.453125 379 439.798828125 404 464.646484375 448 c 1
 493.803710938 442 l 1
 479.526367188 410.83984375 469.74609375 379.916992188 462.970703125 349 c 4
 455.829101562 316.416015625 452.0234375 283.83984375 449.805664062 251 c 1
 413.09375 240 l 1
 410.234375 311 420.8671875 325 383.736328125 330 c 0
 348.640625 334.725585938 290.759765625 334 216.60546875 335 c 1
 194.099609375 220.649414062 175.608398438 147.7890625 172.256835938 81 c 0
 171.702148438 64 176.278320312 42 279.278320312 42 c 1
 260.692382812 -12 l 1xae
EndSplineSet
Position2: "cpsp-1" dx=0 dy=0 dh=50 dv=100
Substitution2: "c2pc-1" f.pcap
Substitution2: "c2sc-1" f.smcp
EndChar
StartChar: G
Encoding: 71 71 1275
Width: 691
VWidth: 1159
Flags: W
HStem: -9 39<285.642 483.531> 668 38<384.969 574.85> 677 20G<681.917 712.682>
VStem: 49.1426 94.4199<178.581 407.693> 663.159 27.8174<532 570.168>
AnchorPoint: "Top" 491.604 699 basechar 0
AnchorPoint: "Bottom" 347.3 -15 basechar 0
LayerCount: 2
Fore
SplineSet
515.419921875 706 m 3xd8
 570.5 706 607.004882812 690 648.205078125 676 c 0
 673.44140625 667 675.1796875 677 688.655273438 697 c 9xb8
 712.681640625 696 l 9
 690.9765625 532 l 9
 663.159179688 525 l 1
 644.303710938 621 579.625976562 668 485.415039062 668 c 3
 268.643554688 668 139.342773438 456.978515625 143.5625 281.783203125 c 0
 147.84765625 136.08984375 242.827148438 30 380.122070312 30 c 11
 427.884765625 30 456.171875 37.1474609375 503.415039062 57 c 24
 519.231445312 64 522.8125 80 527.393554688 96 c 0
 537.068359375 135.68359375 554.631835938 201.474609375 568.072265625 261 c 0
 576.260742188 292 572.7109375 313 528.606445312 317 c 0
 497.553710938 319 479.553710938 319 448.52734375 320 c 9
 456.689453125 352 l 1
 548.951171875 342 654.92578125 343 701.768554688 349 c 9
 697.396484375 325 l 1
 669.6328125 316 659.763671875 311 654.313476562 290 c 0
 634.10546875 214.338867188 617.961914062 144.895507812 603.524414062 91 c 0
 597.126953125 68 602.284179688 62 619.676757812 47 c 9
 614.2265625 26 l 1
 541.401367188 16 387.2265625 -9 339.142578125 -9 c 3
 169.306640625 -9 53.908203125 101.052734375 49.142578125 264.528320312 c 0
 42.197265625 549.762695312 290.59765625 706 515.419921875 706 c 3xd8
EndSplineSet
Position2: "cpsp-1" dx=0 dy=0 dh=50 dv=100
Substitution2: "c2pc-1" g.pcap
Substitution2: "c2sc-1" g.smcp
EndChar
StartChar: H
Encoding: 72 72 1278
Width: 708
VWidth: 1159
Flags: W
HStem: -10 35<160.237 208.922 424.646 487.605> -7 42<-21.2326 50.175> 327 40<208.714 567.46> 662 38<121.454 172.066 277.975 355.965 569.306 613.595>
AnchorPoint: "Top" 463.219 699 basechar 0
AnchorPoint: "Bottom" 322.393 -15 basechar 0
LayerCount: 2
Fore
SplineSet
123.174804688 700 m 1x70
 199.655273438 689 263.829101562 685 360.349609375 696 c 1
 355.96484375 659 l 1
 330.139648438 655 281.209960938 654.971679688 275.793945312 640 c 0
 262.41015625 603 234.0859375 473 208.713867188 367 c 1
 576.713867188 367 l 1
 590.701171875 436 603.836914062 515.762695312 623.841796875 616 c 0
 631.2265625 653 591.270507812 652 556.790039062 663 c 1
 569.305664062 697 l 1
 647.00390625 681 695.091796875 679 786 704 c 1
 783.615234375 667 l 1
 735.095703125 656 725.263671875 657.248046875 717.362304688 627 c 0
 672.556640625 455.499023438 589.021484375 118.518554688 594.3359375 55 c 0
 596.427734375 30 623.470703125 29 651.55859375 27 c 1
 651.55859375 27 641.431640625 7 640.04296875 -7 c 1x70
 576.387695312 8 507.30078125 10 424.173828125 -10 c 1
 424.173828125 -10 424.169921875 13 424.645507812 25 c 1xb0
 470.208984375 35 498.517578125 36.873046875 505.943359375 64 c 0
 532.8046875 162.134765625 545.678710938 223.958984375 567.459960938 327 c 1
 199.459960938 327 l 1
 181.0234375 238.698242188 158.317382812 136.66796875 147.8125 67 c 0
 142.383789062 31 191.208984375 35 219.514648438 28 c 1
 219.514648438 28 211.518554688 5 207.129882812 -9 c 1
 120.431640625 7 53.30078125 10 -22.95703125 -7 c 1
 -22.95703125 -7 -22.0048828125 17 -20.791015625 35 c 1
 12.947265625 41 50.876953125 40.7001953125 57.8125 67 c 0
 107.737304688 256.333007812 180.719726562 593.3984375 177.012695312 635 c 0
 175.051757812 657 148.051757812 657 113.833984375 662 c 1
 123.174804688 700 l 1x70
EndSplineSet
Position2: "cpsp-1" dx=0 dy=0 dh=50 dv=100
Substitution2: "c2pc-1" h.pcap
Substitution2: "c2sc-1" h.smcp
EndChar
StartChar: I
Encoding: 73 73 1280
Width: 391
VWidth: 1159
Flags: W
HStem: -2 40<6.25391 107.115 213.24 294.584> 7.12908 30.8709<6.25391 104.04> 652 31.4896<340.787 428.446> 656 43<150.421 227.543 341.048 428.446>
AnchorPoint: "Ogonek" 169.909 23 basechar 0
AnchorPoint: "Top" 295.395 699 basechar 0
AnchorPoint: "Bottom" 152.568 -15 basechar 0
LayerCount: 2
Fore
SplineSet
152.39453125 699 m 1x90
 205.287485753 688.207199309 247.614174646 683.489556385 292.194231027 683.489556385 c 0
 334.355439568 683.489556385 378.532120714 687.709143351 435.568359375 695 c 1
 428.446289062 652 l 1
 374.533203125 650 345.28125 660.922851562 332.84375 620 c 0
 309.027659491 541.645323511 278.154345376 436.405735994 250.092368304 300 c 0
 236.201202507 232.476792725 222.998932885 157.316564287 211.682617188 74 c 0
 206.384765625 35 252.166992188 40 302.25390625 38 c 1xa0
 292.95703125 -1 l 1
 248.211620162 4.38037822384 197.839312869 7.12907737208 148.164221499 7.12907737208 c 0x40
 96.2802807092 7.12907737208 45.1569391091 4.13049648309 2 -2 c 1
 6.25390625 38 l 1
 61.25390625 38 109.450195312 33.3017578125 123.202148438 85 c 0
 143.789545909 162.398277558 167.443307115 266.43160448 187.748084612 365.999994871 c 0
 207.803414204 464.34516938 224.591540395 558.334438608 231.930664062 618 c 0
 236.358398438 654 189.490234375 651 140.271484375 656 c 1
 152.39453125 699 l 1x90
EndSplineSet
Validated: 545
Position2: "cpsp-1" dx=0 dy=0 dh=50 dv=100
Substitution2: "c2pc-1" i.pcap
Substitution2: "c2sc-1" i.smcp
EndChar
StartChar: J
Encoding: 74 74 1284
Width: 351
VWidth: 1356
Flags: HMW
HStem: 652 39<158.291 228.947 343.911 432.291>
AnchorPoint: "Top" 284.987 699 basechar 0
AnchorPoint: "Bottom" 116.904 -138 basechar 0
LayerCount: 2
Fore
SplineSet
223.055664062 620 m 0
 224.165039062 654 177.19140625 653 128.060546875 658 c 1
 142.0390625 697 l 5
 189.126548697 687.357492994 227.842635292 683.40751301 267.332668978 683.40751301 c 0
 313.846275936 683.40751301 361.433615894 688.887505004 425.0390625 697 c 5
 417.165039062 654 l 1
 363.217773438 652 330.198242188 662.908203125 317.002929688 622 c 0
 278.359375 502.189453125 254.806640625 381.420898438 220.399414062 225 c 0
 191.803710938 95 187.651367188 42.884765625 178.291015625 0 c 0
 158.647460938 -90 90.533203125 -147.073242188 18.423828125 -196 c 0
 -11.052734375 -216 -40.5810546875 -234 -70.13671875 -251 c 1
 -86 -218 l 1
 -56.3671875 -204 -32.4814453125 -190.296875 -12.1787109375 -173 c 0
 -6.3095703125 -168 -1.6220703125 -163.7890625 3.4541015625 -159 c 0
 64.935546875 -101 92.0302734375 -23.77734375 112.588867188 65 c 0
 121.719726562 104.42578125 221.868164062 583.612304688 223.055664062 620 c 0
EndSplineSet
Validated: 545
Position2: "cpsp-1" dx=0 dy=0 dh=50 dv=100
Substitution2: "c2pc-1" j.pcap
Substitution2: "c2sc-1" j.smcp
EndChar
StartChar: K
Encoding: 75 75 1285
Width: 682
VWidth: 1159
Flags: W
HStem: -6 30<173.559 218.514> -1 35<-18.917 49.012> 660 35<634.625 691.691> 660 29<136.932 174.777 299.246 363.691 480.01 510.187>
AnchorPoint: "Top" 415.67 699 basechar 0
AnchorPoint: "Bottom" 296.366 -15 basechar 0
LayerCount: 2
Fore
SplineSet
480.009765625 686 m 1x50
 541.688476562 679 622.198242188 681 691.774414062 695 c 1
 691.69140625 660 l 1
 645.953125 650 617.512695312 637.5546875 581.921875 613 c 0
 476.068359375 531.0078125 372.2421875 448.00390625 268.416015625 365 c 1
 519.538085938 93 l 0
 546.271484375 65 575.900390625 41 599.266601562 27 c 1
 589.920898438 2 l 1
 563.833984375 5.3330078125 529.790039062 7 503.790039062 7 c 0
 472.790039062 7 433.883789062 3.4443359375 403 -1 c 1x60
 403.319335938 25 l 1
 433.083007812 34 447.4765625 36.70703125 433.350585938 62 c 0
 420.704101562 84.6435546875 276.188476562 233.302734375 200.69921875 316 c 1
 183.122070312 237.338867188 162.704101562 134.796875 152.852539062 81 c 0
 144.978515625 38 173.978515625 38 226.344726562 24 c 1
 216.130859375 -6 l 1x80
 146.81640625 6 72.7119140625 10 -23 -1 c 1
 -18.9169921875 34 l 1
 33.056640625 35 55.7861328125 41.033203125 65.009765625 75 c 0
 110.26953125 241.677734375 153.752929688 421.020507812 183.471679688 592 c 0
 193.03125 647 180.978515625 649 125.69140625 660 c 1
 136.931640625 689 l 1
 208.219726562 678 293.140625 681 367.87890625 691 c 1
 363.69140625 660 l 1
 309.822265625 655 284.205078125 652.549804688 272.026367188 609 c 0
 248.252929688 523.98828125 229.319335938 445.047851562 209.625 357 c 1
 303.608398438 434.004882812 399.33203125 504.094726562 487.602539062 587 c 0
 499.314453125 598 514.895507812 614 517.633789062 624 c 0
 523.938476562 647.02734375 505.900390625 652 473.716796875 659 c 1
 480.009765625 686 l 1x50
EndSplineSet
Position2: "cpsp-1" dx=0 dy=0 dh=50 dv=100
Substitution2: "c2pc-1" k.pcap
Substitution2: "c2sc-1" k.smcp
EndChar
StartChar: L
Encoding: 76 76 1288
Width: 653
VWidth: 1159
Flags: HW
HStem: -21 21G<548.208 585.22> -7 44<9.62109 78.3822> 2 50<176.984 529.814> 650 46<149.987 200.929 303.13 397.368>
VStem: 601.792 32.208<139.775 160.521>
AnchorPoint: "TopRight" 432.975 581 basechar 0
AnchorPoint: "Top" 274.973 699 basechar 0
AnchorPoint: "Bottom" 270.164 -15 basechar 0
LayerCount: 2
Fore
SplineSet
403.151367188 693 m 5
 397.368164062 652 l 1
 313.694335938 641 306.143554688 659.99609375 283.623046875 576 c 0
 270.903320312 528.555664062 186.296875 149 186.296875 149 c 0
 173.047851562 90 167.17578125 52 204.17578125 52 c 0
 244.3203125 52 434.717773438 51.66796875 463.145507812 53 c 0
 529.02734375 57 562.017578125 91 601.791992188 166 c 1
 634 159 l 1
 621.69140625 102 613.09765625 122 557.341796875 -21 c 1
 539.075195312 -12 534.71484375 -5.0849609375 493.748046875 -1 c 0
 480.529296875 0 374.95703125 2 249.659179688 2 c 0xb8
 50.6591796875 2 13.9267578125 -7 3.9267578125 -7 c 1
 9.62109375 37 l 1
 66.4423828125 43 78.5927734375 43.68359375 85.4931640625 75 c 0
 86.3740234375 79 110.267578125 177.79296875 136.815429688 300 c 0
 170.69921875 455.98046875 200.805664062 603.8515625 202.465820312 615 c 0
 206.634765625 643 195.486328125 648 138.426757812 650 c 1
 152.061523438 696 l 1x58
 187.563219568 686.141550464 228.831898528 682.453832817 270.25117528 682.453832817 c 0
 317.061270566 682.453832817 364.063716047 687.163949757 403.151367188 693 c 5
EndSplineSet
Position2: "cpsp-1" dx=0 dy=0 dh=50 dv=100
Substitution2: "c2pc-1" l.pcap
Substitution2: "c2sc-1" l.smcp
EndChar
StartChar: M
Encoding: 77 77 1293
Width: 928
VWidth: 1159
Flags: HW
HStem: -7 38<598.42 669.912> -4 41<-11.8936 69.1353 168.508 225.253 789.57 849.253> 648 40<893.416 979.097> 652 44<132.926 203.836>
VStem: 393.044 38<0 41.0475>
AnchorPoint: "Top" 561.424 699 basechar 0
AnchorPoint: "Bottom" 409.83 -15 basechar 0
LayerCount: 2
Fore
SplineSet
849.252929688 -4 m 1x68
 814.99469685 2.78060534804 776.908363371 6.51174173936 735.825044282 6.51174173936 c 0
 692.083124661 6.51174173936 644.943784651 2.28207883824 595.41015625 -7 c 1
 598.419921875 31 l 1x88
 676.842773438 42 698.390625 54.2177734375 713.599609375 123 c 0
 745.823242188 268.71875 768.955078125 412.413085938 784.38671875 547 c 1
 688.502929688 417.098632812 597.341796875 279.734375 507.5 144 c 0
 479.701171875 102 448.633789062 46 431.043945312 0 c 1
 393.043945312 0 l 1
 402.162109375 55 391.805664062 109.893554688 380.028320312 153 c 2
 272.38671875 547 l 1
 227.697265625 414.870117188 191.076171875 269.815429688 161.599609375 123 c 0
 145.739257812 44 166.372070312 51 238.106445312 37 c 1
 225.252929688 -4 l 1
 188.8515625 1.55555555556 145.106686439 5.87654320988 98.6387214399 5.87654320988 c 0
 61.4643494406 5.87654320988 22.5472005208 3.11111111111 -15.7470703125 -4 c 1
 -11.8935546875 37 l 1
 73.58203125 47 94.8857421875 62.958984375 108.018554688 115 c 2
 214.015625 535 l 2
 222.405273438 568.241210938 224.676757812 602.665039062 212.509765625 621 c 0
 200.567382812 639 177.939453125 651 118.885742188 652 c 1
 135.58203125 696 l 1x58
 188.052734375 687 251.228515625 683 310.262695312 683 c 0
 327.262695312 683 328.06640625 670.01953125 330.572265625 658 c 0
 366.634765625 485 410.33203125 319 465.556640625 162 c 1
 819.681640625 675 l 0
 825.208984375 684 832.982421875 687.822265625 839.052734375 687 c 0
 883.3671875 681 934.262695312 683 982 688 c 1
 979.096679688 648 l 1
 908.200195312 646 879.743164062 637.969726562 867.762695312 578 c 0
 836.865234375 423.341796875 808.131835938 268.662109375 784.915039062 117 c 0
 773.739257812 44 794.948242188 40 858.000976562 39 c 1
 849.252929688 -4 l 1x68
EndSplineSet
Position2: "cpsp-1" dx=0 dy=0 dh=50 dv=100
Substitution2: "c2pc-1" m.pcap
Substitution2: "c2sc-1" m.smcp
EndChar
StartChar: N
Encoding: 78 78 1296
Width: 784
VWidth: 1159
Flags: W
HStem: -5 44<18.2393 85.5495> 647 44<124.179 184.173 777.053 868.614> 657 38<630.15 690.209>
VStem: 598.422 36.5205<0 52.4211>
AnchorPoint: "Top" 505.434 699 basechar 0
AnchorPoint: "Bottom" 363.597 -15 basechar 0
LayerCount: 2
Fore
SplineSet
125.782226562 691 m 1xd0
 167.907226562 687 222.834960938 683 267.130859375 683 c 0
 281.130859375 683 283.223632812 679.5859375 287.611328125 672 c 0
 389.502929688 495.836914062 498.623046875 327.50390625 616.653320312 167 c 1
 648.45703125 289.721679688 675.666015625 411.680664062 701.416015625 539 c 0
 726.090820312 661 672.571289062 650 619.265625 657 c 1
 632.607421875 695 l 1xb0
 724.534179688 681 795.557617188 681 872 686 c 1
 868.614257812 649 l 1
 806.014648438 643 779.951171875 645.13671875 763.622070312 603 c 0
 717.666015625 438.103515625 676.63671875 261.4375 642.188476562 86 c 0
 637.280273438 61 633.938476562 23 634.942382812 0 c 1
 598.421875 -11 l 1
 592.37890625 32 573.48046875 72.7509765625 553.359375 105 c 0
 457.291015625 258.977539062 358.82421875 409.975585938 254.629882812 557 c 1
 167.001953125 159 l 2
 143.869140625 53.9306640625 176.934570312 46 258.37109375 36 c 1
 240.37890625 -10 l 1
 158.025390625 21 78.8544921875 2 14.1611328125 -5 c 1
 18.2392578125 39 l 1
 71.2392578125 39 91.216796875 50.1591796875 103.665039062 98 c 0
 143.176757812 249.852539062 174.244140625 410.952148438 207.0625 570 c 0
 213.666015625 602 184.24609375 648 115.702148438 647 c 1
 125.782226562 691 l 1xd0
EndSplineSet
Position2: "cpsp-1" dx=0 dy=0 dh=50 dv=100
Substitution2: "c2pc-1" n.pcap
Substitution2: "c2sc-1" n.smcp
EndChar
StartChar: O
Encoding: 79 79 1303
Width: 757
VWidth: 1159
Flags: W
HStem: -10 53<284.863 468.334> 655 50<353.459 534.992>
VStem: 48.7354 96.0459<202.593 413.03> 674.638 100.362<290.286 501.723>
AnchorPoint: "Middle" 418.734 358 basechar 0
AnchorPoint: "Ogonek" 397.734 10 basechar 0
AnchorPoint: "Top" 486.562 699 basechar 0
AnchorPoint: "Bottom" 351.562 -15 basechar 0
LayerCount: 2
Fore
SplineSet
439.563476562 655 m 3
 295.125 655 144.78125 545.053710938 144.78125 322.274414062 c 3
 144.78125 167.192382812 238.79296875 43 380.563476562 43 c 3
 530.885742188 43 674.637695312 200.982421875 674.637695312 384.791015625 c 3
 674.637695312 535.33203125 581.92578125 655 439.563476562 655 c 3
486.563476562 705 m 3
 659.458984375 705 775 579.896484375 775 411.1640625 c 3
 775 183.0703125 557.200195312 -10 350.563476562 -10 c 3
 170.209960938 -10 48.7353515625 117.641601562 48.7353515625 287.963867188 c 3
 48.7353515625 530.426757812 267.122070312 705 486.563476562 705 c 3
EndSplineSet
Position2: "cpsp-1" dx=0 dy=0 dh=50 dv=100
Substitution2: "c2pc-1" o.pcap
Substitution2: "c2sc-1" o.smcp
EndChar
StartChar: Q
Encoding: 81 81 1315
Width: 725
VWidth: 1361
Flags: HW
HStem: -162 49<516.938 724.528> 684 32<398.254 546.078>
AnchorPoint: "Top" 487.591 699 basechar 0
AnchorPoint: "Bottom" 268.523 -15 basechar 0
LayerCount: 2
Fore
SplineSet
473.114257812 684 m 3
 345.114257812 684 227.4453125 566.940429688 190.311523438 392 c 0
 152.52734375 214 208.393554688 46 359.393554688 46 c 3
 488.393554688 46 605.224609375 170.951171875 642.8828125 347 c 0
 688.444335938 560 603.114257812 684 473.114257812 684 c 3
385.96484375 1 m 5
 442.681640625 -84.2236328125 559.12890625 -113 665.946289062 -113 c 3
 689.249023438 -113 717.3359375 -109.142578125 727.701171875 -106 c 1
 732.784179688 -137 l 1
 714.90234375 -144.876953125 652.31640625 -162 603.657226562 -162 c 3
 453.934570312 -162 342.545898438 -99.3642578125 291.0703125 -2 c 1
 136.126953125 25 50.6123046875 172.837890625 91.2890625 364 c 0
 137.67578125 582 312.997070312 716 489.997070312 716 c 3
 667.997070312 716 784.666015625 567.131835938 742.18359375 367 c 0
 704.400390625 189 551.84765625 33 385.96484375 1 c 5
EndSplineSet
Position2: "cpsp-1" dx=0 dy=0 dh=50 dv=100
Substitution2: "salt-1" Q.alt
Substitution2: "c2pc-1" q.pcap
Substitution2: "c2sc-1" q.smcp
EndChar
StartChar: R
Encoding: 82 82 1317
Width: 747
VWidth: 1159
Flags: HMW
HStem: -32 36<608.499 661.034> -10 44<10.0339 78.894 186.767 232.739> 322 45<244.034 354.548> 649 37<169.034 217.076> 664 42<332.477 485.152>
AnchorPoint: "Top" 387.93 699 basechar 0
AnchorPoint: "Bottom" 352.165 -15 basechar 0
LayerCount: 2
Fore
SplineSet
240.793945312 371 m 1x28
 277.810546875 369 297.830078125 367 334.830078125 367 c 3
 469.830078125 367 520.879882812 455.28125 533.598632812 508 c 0
 548.07421875 568 513.236328125 664 405.236328125 664 c 3
 377.236328125 664 316.944335938 655.787109375 302.681640625 613 c 0
 277.345703125 537 257.131835938 447 240.793945312 371 c 1x28
163.04296875 686 m 1x70
 204.051757812 685 225.051757812 685 266.051757812 685 c 0
 331.051757812 685 361.877929688 705 434.877929688 705 c 0
 557.877929688 705 641.510742188 622.46875 616.494140625 520 c 0
 595.251953125 433 515.78515625 372 435.046875 342 c 1
 496.8203125 139 583.962890625 8 708 4 c 1
 693.313476562 -32 l 1xa8
 526.356445312 -37 378.697265625 153 350.212890625 323 c 1
 341.221679688 322 334.221679688 322 327.221679688 322 c 0
 289.221679688 322 269.1953125 325 232.178710938 327 c 1
 213.399414062 232.170898438 199.165039062 164.038085938 184.301757812 84 c 0
 177.615234375 48 195.666992188 42 247.711914062 37 c 1
 231.094726562 -7 l 1
 193.82836914 2.03125 155.190291404 6.546875 115.330426216 6.546875 c 0
 80.159956932 6.546875 44.038269043 3.03125 7.068359375 -4 c 1
 10.7119140625 37 l 1
 60.6943359375 39 75.6669921875 42 86.396484375 73 c 1
 119.390099768 192.878561874 140.657853671 274.358705184 159.63021213 354 c 0
 177.166719732 427.613946042 192.742121245 499.656843841 213.803710938 599 c 1
 218.490234375 635 211.384765625 647 153.3671875 649 c 1
 163.04296875 686 l 1x70
EndSplineSet
Position2: "cpsp-1" dx=0 dy=0 dh=50 dv=100
Substitution2: "salt-1" R.alt
Substitution2: "c2pc-1" r.pcap
Substitution2: "c2sc-1" r.smcp
EndChar
StartChar: S
Encoding: 83 83 1320
Width: 555
VWidth: 1159
Flags: W
HStem: -10 43<172.629 344.782> 672 38<301.828 441.79> 681 20G<528.709 568>
VStem: 25.165 33.1396<-0.844909 27.5649> 49.1113 32.79<111.023 202> 500.832 38.8477<531.982 616.02>
AnchorPoint: "Top" 369.756 699 basechar 0
AnchorPoint: "Bottom" 245.688 -15 basechar 0
LayerCount: 2
Fore
SplineSet
49.111328125 202 m 1xcc
 81.9013671875 208 l 1
 85.4912109375 149 84.962890625 128.506835938 98.3935546875 108 c 0
 129.293945312 66.58203125 205.084960938 33 263.012695312 33 c 3
 358.012695312 33 416.55859375 102.38671875 425.682617188 157 c 0
 447.971679688 290.41796875 313.270507812 317.834960938 244.5234375 362 c 0
 226.110351562 373.829101562 133.939453125 436 161.749023438 556 c 0
 178.701171875 629.151367188 261.569335938 710 391.37109375 710 c 3xcc
 440.619140625 710 479.481445312 695.456054688 497.139648438 688 c 0
 511.348632812 682 516.733398438 671 540.685546875 701 c 1xac
 568 692 l 1
 534.793945312 612 537.86328125 610.009765625 539.6796875 558 c 0
 540.412109375 537 532.041015625 519 500.83203125 525 c 1
 498.272460938 541 499.603515625 565.840820312 495.771484375 584 c 0
 485.640625 632 433.516601562 672 368.698242188 672 c 3
 328.291015625 672 244.693359375 644.06640625 233.469726562 564 c 0
 220.293945312 470.0078125 283.2265625 453.661132812 397.231445312 399 c 0
 519.870117188 339.081054688 521.583007812 237.479492188 507.088867188 174 c 0
 489.4921875 96.931640625 412.076171875 -10 231.514648438 -10 c 3
 181.681640625 -10 133.198242188 2.4521484375 92.2568359375 26 c 0
 74.423828125 35.5458984375 73.3779296875 34.181640625 58.3046875 -4 c 1
 25.1650390625 0 l 1xd4
 45.90625 71.845703125 46.4189453125 90.587890625 49.111328125 202 c 1xcc
EndSplineSet
Position2: "cpsp-1" dx=0 dy=0 dh=50 dv=100
Substitution2: "c2pc-1" s.pcap
Substitution2: "c2sc-1" s.smcp
EndChar
StartChar: T
Encoding: 84 84 1322
Width: 701
VWidth: 1159
Flags: HMW
HStem: -21 51<156.854 261.432> -11 44<373.699 443.854> 632 51<205.933 416.854 507.181 725.797> 676 34G<191.854 208.354 784.854 807.854>
AnchorPoint: "Top" 434.346 699 basechar 0
AnchorPoint: "Bottom" 308.509 -15 basechar 0
LayerCount: 2
Fore
SplineSet
226.869140625 687 m 0x20
 342.896484375 685.5859375 458.922851562 684.171875 575.595703125 684.171875 c 0
 623.922851562 684.171875 672.361328125 684.4140625 720.956054688 685 c 0
 735.956054688 685 750.737304688 690 760.301757812 700 c 1
 779 684 l 1
 758.5703125 648 736.317382812 608 724.368164062 561 c 1
 689.106445312 567 l 1
 702.796875 597 l 0
 722.658203125 646 538.137695312 635 485.137695312 635 c 1
 447.7421875 478.3828125 414.129882812 324.096679688 383.202148438 166 c 0
 378.9140625 144.079101562 374.677734375 122.083984375 370.489257812 100 c 0
 358.239257812 37 361.977539062 43 459.4140625 33 c 1
 444.333984375 -11 l 1x60
 413.716796875 -2.9287109375 373.682617188 0.7451171875 331.561523438 0.7451171875 c 0
 269.303710938 0.7451171875 202.485351562 -7.28125 154.771484375 -21 c 1
 155.544921875 30 l 1
 267.065429688 41 268.541015625 53 274.537109375 76 c 0
 297.78125 167.559570312 351.724609375 402.377929688 376.818359375 540 c 0
 385.125976562 585.560546875 390.271484375 620.46875 390.094726562 636 c 1xa0
 331.051757812 637 271.094726562 636 213.356445312 630 c 0
 167.575195312 625 167.356445312 630 117.5859375 556 c 1
 84.84375 573 l 1
 111.142578125 612 154.650390625 692 169.689453125 714 c 1x10
 187.475585938 696 206.869140625 687 226.869140625 687 c 0x20
EndSplineSet
Position2: "cpsp-1" dx=0 dy=0 dh=50 dv=100
Substitution2: "c2pc-1" t.pcap
Substitution2: "c2sc-1" t.smcp
EndChar
StartChar: U
Encoding: 85 85 1328
Width: 777
VWidth: 1159
Flags: HW
HStem: -10 54<251.68 472.587> 651 39<124.318 184.767 287.016 373.419 640.318 708.924 774.585 849.576>
AnchorPoint: "Ogonek" 377.686 10 basechar 0
AnchorPoint: "Top" 503.036 699 basechar 0
AnchorPoint: "Bottom" 328.471 -15 basechar 0
LayerCount: 2
Fore
SplineSet
124.318359375 690 m 1
 151.428710938 686.5 195.483886719 684.75 242.358886719 684.75 c 0
 289.233886719 684.75 338.928710938 686.5 377.318359375 690 c 1
 373.418945312 655 l 1
 308.638671875 648 280.94921875 648.659179688 270.3671875 593 c 0
 268.630859375 583.892578125 194.045898438 286.654296875 186.987304688 255 c 0
 172.967773438 192 174.19140625 140.728515625 200.700195312 105 c 0
 228.89453125 67 284.6171875 44 380.6171875 44 c 3
 403.6171875 44 483.813476562 45.8740234375 548.794921875 102 c 0
 591.6328125 139 613.733398438 189.1015625 633.830078125 260 c 0
 661.155273438 356.104492188 692.993164062 512.041992188 710.895507812 608 c 0
 719.44921875 654 692.544921875 651 630.512695312 652 c 1
 640.318359375 690 l 1
 665.387458973 686.283755099 715.778150285 683.97674246 762.284515391 683.97674246 c 0
 803.378554579 683.97674246 841.439760307 685.778029158 856.318359375 690 c 1
 849.576171875 650 l 1
 802.606445312 649 781.286132812 656.360351562 768.581054688 618 c 0
 764.888671875 606.876953125 739.217773438 487.592773438 683.987304688 255 c 0
 664.563476562 173 626.622070312 107.98046875 572.95703125 65 c 0
 510.529296875 15 427.314453125 -10 329.314453125 -10 c 3
 220.314453125 -10 154.056640625 18.771484375 120.86328125 68 c 0
 92.54296875 110 88.9677734375 165.724609375 102.584960938 236 c 0
 108.673828125 267.348632812 183.453125 581.645507812 186.272460938 596 c 0
 194.890625 640 185.827148438 642 110.544921875 651 c 1
 124.318359375 690 l 1
EndSplineSet
Position2: "cpsp-1" dx=0 dy=0 dh=50 dv=100
Substitution2: "c2pc-1" u.pcap
Substitution2: "c2sc-1" u.smcp
EndChar
StartChar: V
Encoding: 86 86 1344
Width: 691
VWidth: 1159
Flags: HW
HStem: 651 42<114.467 162.064 266.484 347.001 569.449 621.482 712.59 781.885>
VStem: 172.765 42.7793<-27 14.614> 173.254 85.0049<111 591.14> 173.391 92.2598<137.86 646.685>
AnchorPoint: "Top" 458 699 basechar 0
AnchorPoint: "Bottom" 198.649 -15 basechar 0
LayerCount: 2
Fore
SplineSet
356.227539062 692 m 1x90
 347.000976562 656 l 1
 321.216796875 657 302.305664062 656.294921875 290.688476562 654 c 0
 260.3203125 648 265.848632812 631.770507812 265.650390625 618 c 2x90
 258.258789062 111 l 1xa0
 614.623046875 608 l 2
 628.521484375 623.654296875 630.797851562 651 607.044921875 651 c 0
 601.46484375 651 562.916992188 653 558.267578125 653 c 1
 569.44921875 693 l 1
 601.027974239 685.912878475 641.11005322 682.843940271 679.545351523 682.843940271 c 0
 722.45894395 682.843940271 763.319649611 686.66969722 788 693 c 1
 781.884765625 651 l 1
 745.358398438 650 718.204101562 641.541992188 666.834960938 594 c 0
 635.390625 558.201171875 379.18359375 221.500976562 267.0234375 60 c 0
 246.216796875 35.64453125 227.328125 0 215.543945312 -27 c 1
 172.764648438 -27 l 1xc0
 172.115234375 0 173.248046875 21.015625 173.25390625 57 c 0xa0
 173.272460938 169.40625 173.331054688 403.74609375 173.390625 610 c 0
 173.403320312 652.190429688 144.327148438 649 102.41015625 656 c 1
 116.80078125 694 l 1
 156.814324585 686.556145795 186.647412407 684.071915039 215.334399227 684.071915039 c 0
 256.015477465 684.071915039 294.391730813 689.067737279 356.227539062 692 c 1x90
EndSplineSet
Position2: "cpsp-1" dx=0 dy=0 dh=50 dv=100
Substitution2: "c2pc-1" v.pcap
Substitution2: "c2sc-1" v.smcp
EndChar
StartChar: W
Encoding: 87 87 1345
Width: 963
VWidth: 1159
Flags: W
HStem: -21 26G<200 236.5 527 561> 656 25.8438<311.399 371.885 628.196 714 816.091 868.019> 661 29<118.172 161.185 319.134 372 462.759 507.211 633.188 714 814.382 861.406>
VStem: 200 80<130 633.169> 200 34<-21 13.3559> 526 91<404.765 476 556 648.438> 526 74<113 317.235>
AnchorPoint: "Top" 595 699 basechar 0
AnchorPoint: "Bottom" 383 -15 basechar 0
LayerCount: 2
Fore
SplineSet
1055 693 m 1xc2
 1051 657 l 1
 969.095703125 630 953.485351562 607.025390625 884 496 c 0
 685.6171875 179.017578125 620.538085938 79.681640625 597 42 c 0
 581.713867188 17.5302734375 571.451171875 7 561 -15 c 1
 525 -16 l 1
 529 2 526.1796875 18.5419921875 526 58 c 0
 525.370117188 196.162109375 524.629882812 337.837890625 524 476 c 1
 342.416015625 172.07421875 280.02734375 66.6865234375 256 23 c 0
 245 3 239 -9 234 -21 c 1
 200 -21 l 1
 200 -1 200.338867188 23.3837890625 200 89 c 0xca
 198.658203125 348.821289062 194.040039062 558.569335938 194 574 c 0
 193.922851562 603.966796875 186 627.045898438 175 637 c 0
 156.606445312 653.645507812 134.771484375 659.451171875 111 661 c 1
 119 690 l 1
 143.583007812 684.821289062 188.026367188 682.606445312 234.604492188 682.606445312 c 0
 287.181640625 682.606445312 342.478515625 685.428710938 375 690 c 1
 372 655 l 1
 322.655273438 655 301.747070312 643.354492188 291 619 c 0
 286 607.668945312 284.120117188 585.325195312 284 572 c 2
 280 130 l 1
 526 556 l 1
 526 611.3125 526 626.78125 523 631 c 1
 509.983398438 656 476.849609375 656 452 661 c 1
 464 690 l 1xb4
 494.681640625 684.807617188 534.497070312 681.84375 576.823242188 681.84375 c 0
 624.166015625 681.84375 674.649414062 685.552734375 719 694 c 1
 714 658 l 1
 708 657 664.943359375 657.461914062 655 656 c 0
 621 651 617.611328125 626.842773438 617 609 c 2xd4
 600 113 l 1
 691.740234375 257.756835938 774.68359375 398.971679688 848 525 c 0
 894.002929688 604.078125 910 653.576171875 808 656 c 1
 815 688 l 1
 838.139648438 683.995117188 869.9921875 681.772460938 906.328125 681.772460938 c 0
 951.646484375 681.772460938 1003.93945312 685.229492188 1055 693 c 1xc2
EndSplineSet
Position2: "cpsp-1" dx=0 dy=0 dh=50 dv=100
Substitution2: "c2pc-1" w.pcap
Substitution2: "c2sc-1" w.smcp
EndChar
StartChar: X
Encoding: 88 88 1346
Width: 733
VWidth: 1159
Flags: W
HStem: -8 21G<403.522 436.5> 0 33<-6.15234 42.2408 162.297 214.931 630.379 660> 654 39<322.892 370.693> 660 26<133.035 161.424 531.965 560.511 720.119 763.979>
AnchorPoint: "Top" 438.581 699 basechar 0
AnchorPoint: "Bottom" 310.524 -15 basechar 0
LayerCount: 2
Fore
SplineSet
133.03515625 686 m 1x50
 240.245117188 680 276.280273438 679 377.791015625 693 c 1
 370.978515625 659 l 1
 365.047851562 657 348.26953125 657.044921875 333.15234375 654 c 0
 308.328125 649 306.018554688 631.026367188 312.446289062 617 c 2
 409.920898438 403 l 1
 476.805664062 476.005859375 533.42578125 547.182617188 563.563476562 585 c 0
 579.864257812 605 597.704101562 635.3671875 568.467773438 645 c 0
 562.387695312 647.286132812 523.98828125 658.713867188 518.908203125 661 c 1
 531.96484375 688 l 1
 607.314453125 678 689.209960938 681 768.860351562 691 c 1
 763.978515625 659 l 1
 747.047851562 657 701.046875 648.15234375 649.829101562 606 c 0
 630.314453125 589.63671875 613.883789062 571.227539062 426.690429688 381 c 1
 463.625976562 314.563476562 572.325195312 112.913085938 586.8203125 91 c 0
 613.25390625 50 630.358398438 47 674.708007812 37 c 1
 660 0 l 1x60
 597.580078125 12 471.719726562 8 401.280273438 -8 c 1x80
 405.091796875 26 l 1
 416.84765625 33 441.272460938 36.1787109375 452.602539062 40 c 0
 488.18359375 52 480.172851562 80.244140625 472.4375 102 c 0
 453.84765625 152.47265625 425.981445312 227.645507812 378.821289062 320 c 1
 294.28515625 230.28125 223.817382812 145.796875 176.890625 89 c 0
 163.484375 72 149.319335938 43.1220703125 177.672851562 38 c 0
 188.7421875 36 211.8125 34 221.84765625 33 c 1
 214.930664062 2 l 1
 130.719726562 8 67.650390625 10 -13 0 c 1
 -6.15234375 33 l 1
 3.7080078125 37 56.375 45.646484375 101.959960938 87 c 0
 119.696289062 102.416992188 134.423828125 116.805664062 358.913085938 346 c 1
 218.271484375 590.099609375 211.243164062 603.336914062 200.446289062 617 c 0
 174.29296875 650 146.118164062 655 127.943359375 660 c 1
 133.03515625 686 l 1x50
EndSplineSet
Position2: "cpsp-1" dx=0 dy=0 dh=50 dv=100
Substitution2: "c2pc-1" x.pcap
Substitution2: "c2sc-1" x.smcp
EndChar
StartChar: Y
Encoding: 89 89 1348
Width: 670
VWidth: 1159
Flags: W
HStem: -11 41<149 227.388> -5 42<357.141 429.333> 649 33.2148<276.84 340 689.752 763> 654 38<101.78 141.99 541.974 582.609>
AnchorPoint: "Top" 424 699 basechar 0
AnchorPoint: "Bottom" 295 -15 basechar 0
LayerCount: 2
Fore
SplineSet
340 649 m 1xa0
 340 649 317 649 305 649 c 0xa0
 288 649 270.8984375 636.963867188 277 620 c 0
 327 483.288085938 386 386.901367188 390 381 c 1
 479 485.5 565.465820312 585.603515625 569 590 c 0
 585 610 595.615234375 633.192382812 574 644 c 0
 564 649 548 650 533 654 c 1
 544 692 l 1
 564.347511108 688.300452526 621.953129117 682.69998123 678.372204049 682.69998123 c 0
 713.454711933 682.69998123 748.078430971 684.865459931 773 691 c 1
 763 648 l 1
 703 646 673.059570312 627.9296875 641 601 c 0
 566 538.248046875 475 429.676757812 409 348 c 1
 396.307617188 296.431640625 378.258789062 242.5546875 354 85 c 0
 348 46 366 41 441 37 c 1
 427 -5 l 1x50
 381 2 337.25 7 292.125 7 c 0
 247 7 200.5 2 149 -11 c 1
 149 30 l 1
 225 42 263.646484375 57.087890625 275 105 c 2
 324 311 l 1
 319 321.852539062 261.916015625 472.883789062 180 606 c 0
 163 634 141 635 91 651 c 1
 104 690 l 1
 136.086203965 686.297745696 199.012453519 682.214750089 255.894185768 682.214750089 c 0
 291.196935055 682.214750089 324.171415884 683.787466223 346 688 c 1
 340 649 l 1xa0
EndSplineSet
Validated: 545
Position2: "cpsp-1" dx=0 dy=0 dh=50 dv=100
Substitution2: "c2pc-1" y.pcap
Substitution2: "c2sc-1" y.smcp
EndChar
StartChar: Z
Encoding: 90 90 1349
Width: 689
VWidth: 1159
Flags: W
HStem: 4 40<138.113 508.248> 646 43<207.288 609.917>
AnchorPoint: "Top" 448 699 basechar 0
AnchorPoint: "Bottom" 296.689 -15 basechar 0
LayerCount: 2
Fore
SplineSet
104.147460938 570 m 1
 170.388671875 679 168.772460938 716 195.3359375 726 c 1
 207.515625 699 240.924804688 690.24609375 250.952148438 689 c 0
 280.280273438 684.284179688 616.0625 679.569335938 713.643554688 684.6171875 c 0
 723.2890625 685.001953125 730.610351562 685.4609375 735.083007812 686 c 1
 742 665 l 1
 729.067382812 651.998046875 l 0
 138.11328125 44 l 1
 209.11328125 44 281.200195312 42 352.200195312 42 c 0
 497.200195312 42 591.41015625 83 630.1796875 157 c 1
 652.747070312 144 l 1
 599.719726562 53 580.291992188 17 550.08203125 -24 c 1
 533.6015625 -13 519.037109375 -0.099609375 441.990234375 1 c 0
 301.903320312 3 75.5537109375 11 0.859375 4 c 1
 -2.40625 33 l 1
 38.6767578125 54 76.931640625 88.2509765625 106.838867188 119 c 0
 273.729492188 289.559570312 442.420898438 465.3203125 606.134765625 639 c 0
 609.916992188 644 l 1
 271.829101562 646 l 2
 219.822265625 646.154296875 176.702148438 626 125.93359375 552 c 1
 104.147460938 570 l 1
EndSplineSet
Position2: "cpsp-1" dx=0 dy=0 dh=50 dv=100
Substitution2: "c2pc-1" z.pcap
Substitution2: "c2sc-1" z.smcp
EndChar
StartChar: asciicircum
Encoding: 94 94 160
Width: 462
VWidth: 1159
Flags: HW
LayerCount: 2
Fore
SplineSet
418.619140625 401.096679688 m 5
 387.372070312 378.450195312 l 5
 298.840820312 560.27734375 l 5
 136.91015625 378.450195312 l 5
 114.8046875 401.096679688 l 5
 304.646484375 695.50390625 l 5
 347.624023438 695.50390625 l 5
 418.619140625 401.096679688 l 5
EndSplineSet
EndChar
StartChar: underscore
Encoding: 95 95 523
Width: 463
VWidth: 0
Flags: HW
HStem: -238 44<0 463>
LayerCount: 2
Fore
SplineSet
0 -238 m 25
 0 -194 l 25
 463 -194 l 25
 463 -238 l 25
 0 -238 l 25
EndSplineSet
Refer: 340 58114 S 0.464 0 0 0.956522 -2.45031e-14 -216 2
EndChar
StartChar: a
Encoding: 97 97 0
Width: 450
VWidth: 1159
Flags: HMW
HStem: -16 53<300.905 369.244> -10 65<87.33 176.699> 406 20G<388.405 411.405> 406 20G<388.405 411.405>
VStem: 25.5116 71.2207<76.4066 192.266> 266.405 69<37.2478 82>
AnchorPoint: "Top" 310 465 basechar 0
AnchorPoint: "Ogonek" 352.401 23 basechar 0
AnchorPoint: "Bottom" 184.062 -15 basechar 0
LayerCount: 2
Fore
SplineSet
295.995117188 352.954101562 m 1x4c
 285.907226562 354.954101562 268.8203125 356.954101562 259.8203125 356.954101562 c 3
 237.397460938 356.954101562 208.661132812 339.661132812 190.217773438 324.954101562 c 0
 146.083984375 289.76171875 90.421875 229.3671875 90.421875 144.540039062 c 3
 90.421875 97.15625 111.989257812 55 156.00390625 55 c 3
 179.259765625 55 211.7421875 86.94140625 238.52734375 130 c 4
 254.413085938 155.538085938 268.295898438 184.985351562 277.061523438 214 c 0
 287.896484375 249.864257812 309.560546875 340 295.995117188 352.954101562 c 1x4c
328.856445312 150 m 0
 321.318359375 114.021484375 315.99609375 78.0849609375 316.436523438 68 c 0
 317.310546875 47.974609375 323.571289062 42 332.571289062 42 c 3
 349.571289062 42 392 78 408.213867188 96 c 1
 425 78 l 1
 393.484375 44 345.885742188 -11 293.885742188 -11 c 3x9c
 261.083984375 -11 245 22 245 47 c 3
 245 64.03125 247.600585938 84.046875 253.77734375 106 c 1
 207.319335938 40.4345703125 148.096679688 -10 113.841796875 -10 c 3
 61.69140625 -10 21.2197265625 39.1640625 21.2197265625 98.2998046875 c 3
 21.2197265625 164.5078125 62.9873046875 234.400390625 95.3115234375 277 c 0
 123.75 314.478515625 167.0703125 342.766601562 189.8203125 356.954101562 c 0
 229.639648438 381.787109375 273.668945312 399.608398438 326.678710938 406 c 0
 340.705078125 407.69140625 348.399414062 412.8515625 359.111328125 419 c 1
 410.892578125 424 l 1x5c
 358.5 310.826171875 351.365234375 257.4296875 328.856445312 150 c 0
EndSplineSet
Substitution2: "case-1" A
Substitution2: "pcap-1" a.pcap
Substitution2: "smcp-1" a.smcp
EndChar
StartChar: b
Encoding: 98 98 164
Width: 438
VWidth: 1159
Flags: HMW
HStem: -9 58<127.481 240.954> 347 56<254.013 334.382>
VStem: 357.205 70.1571<192.971 323.898>
AnchorPoint: "Top" 244.66 749 basechar 0
AnchorPoint: "Bottom" 154 -15 basechar 0
LayerCount: 2
Fore
SplineSet
130.883789062 240 m 1
 120.637695312 190.9140625 111.430664062 153.515625 104.682617188 113 c 1
 105.293945312 99 105.642578125 91 109.905273438 85 c 0
 120.500976562 64 143.970703125 49 167.4765625 49 c 3
 258.6484375 49 351.192382812 137.7109375 346.077148438 254.865234375 c 0
 343.510742188 313.650390625 319.513671875 357 274.775390625 357 c 3
 220.1796875 357 164.393554688 291.084960938 130.883789062 240 c 1
129.09765625 699 m 1
 142.180664062 720 173.438476562 737 204.696289062 754 c 1
 233.569335938 734 249.704101562 708 264.795898438 683 c 1
 226.274414062 655.286132812 192.296875 529.505859375 140.482421875 295 c 1
 164.02734375 325.904296875 254.388671875 413 319.330078125 413 c 3
 373.053710938 413 411.827148438 355.814453125 414.827148438 287.098632812 c 0
 421.063476562 144.262695312 257.515625 -9 139.008789062 -9 c 3
 96.2177734375 -9 87.7333984375 15 71.7431640625 20 c 0
 57.1708984375 23.3173828125 39.4814453125 26 33.5244140625 25 c 1
 18.9130859375 39 l 1
 58.365234375 168.291015625 114.234375 461 127.935546875 539 c 0
 134.84375 578.329101562 136.845703125 613.137695312 135.672851562 640 c 0
 134.805664062 659.865234375 132.361328125 681.0234375 129.09765625 699 c 1
EndSplineSet
Substitution2: "case-1" B
Substitution2: "pcap-1" b.pcap
Substitution2: "smcp-1" b.smcp
EndChar
StartChar: c
Encoding: 99 99 177
Width: 367
VWidth: 1159
Flags: HMW
HStem: -15 53<150.021 237.281> 359 63<212.666 304.636>
VStem: 43.6688 74.9532<71.9391 229.688>
AnchorPoint: "Top" 269.697 465 basechar 0
AnchorPoint: "Bottom" 170.655 -15 basechar 0
LayerCount: 2
Fore
SplineSet
317.508789062 309 m 1
 298.767578125 327.240234375 272.797851562 366 239.020507812 366 c 3
 164.958984375 366 105.91796875 290.96875 112.108398438 149.185546875 c 0
 114.623046875 91.58984375 146.370117188 46 200.209960938 46 c 3
 241.209960938 46 269.825195312 66 290.169921875 81 c 1
 302 62 l 1
 277.178710938 35 219.524414062 -7 164.524414062 -7 c 3
 115.487304688 -7 42.5966796875 24.56640625 38.103515625 127.46484375 c 0
 31.5224609375 278.204101562 159.130859375 422 270.575195312 422 c 3
 317.553710938 422 357.780273438 389.5234375 369.587890625 353 c 1
 364.521484375 338.583007812 351.176757812 319.583007812 317.508789062 309 c 1
EndSplineSet
Substitution2: "case-1" C
Substitution2: "pcap-1" c.pcap
Substitution2: "smcp-1" c.smcp
EndChar
StartChar: d
Encoding: 100 100 196
Width: 464
VWidth: 1159
Flags: HMW
HStem: -23 54<309.635 386.885> -9 55<109.334 221.668> 357 50<200.71 301.162> 659 30<337.178 382.283> 748 20G<480.878 519.878>
VStem: 41.9995 69.6452<81.7189 228.754>
AnchorPoint: "TopRight" 523.011 581 basechar 0
AnchorPoint: "Top" 362.831 734 basechar 0
AnchorPoint: "Bottom" 193.533 -15 basechar 0
LayerCount: 2
Fore
SplineSet
274.119140625 109 m 1xbc
 229.796875 52.08984375 161.649414062 -9 122.270507812 -9 c 3x7c
 65.55078125 -9 29.35546875 37.6728515625 26.4736328125 103.672851562 c 0
 21.033203125 228.280273438 162.020507812 409 305.020507812 409 c 3
 322.03125 409 342.8828125 396.797851562 349.15625 383 c 1
 370.006835938 480.905273438 383.1328125 590.6328125 381.959960938 617.481445312 c 0
 380.249023438 656.666992188 363.26171875 668 347.712890625 668 c 3
 342.712890625 668 308.061523438 660 299.10546875 659 c 1
 294.795898438 689 l 1
 346.315429688 700 415.831054688 734 460.346679688 768 c 1
 477.131835938 750 l 1
 474.096679688 705 417.983398438 393.3828125 364.625976562 189 c 0
 351.219726562 137.647460938 342.116210938 96.259765625 343.331054688 68.447265625 c 0
 343.943359375 54.41796875 348.264648438 43 359.000976562 43 c 3
 376.000976562 43 411.040039062 65 435.079101562 87 c 1
 450.865234375 69 l 1
 415.69921875 27 349.358398438 -11 317.358398438 -11 c 3
 286.873046875 -11 273.264648438 9.4384765625 271.924804688 40.1328125 c 0
 270.984375 61.6640625 271.662109375 84.8349609375 274.119140625 109 c 1xbc
268.204101562 359 m 3
 198.08984375 359 89.462890625 279 95.265625 146.091796875 c 0
 97.490234375 95.142578125 120.284179688 53 158.563476562 53 c 3
 194.163085938 53 265.4296875 120.669921875 288.712890625 187 c 0
 300.912109375 223.185546875 316.407226562 259.479492188 314.614257812 300.551757812 c 0
 312.788085938 342.380859375 282.076171875 359 268.204101562 359 c 3
EndSplineSet
Validated: 545
Substitution2: "case-1" D
Substitution2: "pcap-1" d.pcap
Substitution2: "smcp-1" d.smcp
EndChar
StartChar: e
Encoding: 101 101 215
Width: 365
VWidth: 1159
Flags: HMW
HStem: -15 51<144.518 239.037> 367 54<195.549 266.884>
VStem: 46.5302 71.9619<61.4685 197.627> 284 60<289.245 349.853>
AnchorPoint: "Top" 235.697 465 basechar 0
AnchorPoint: "Ogonek" 242.865 26 basechar 0
AnchorPoint: "Bottom" 161.655 -15 basechar 0
LayerCount: 2
Fore
SplineSet
233.880859375 415 m 3
 283.934570312 415 329.23828125 361.005859375 331.639648438 306 c 0
 331.913085938 299.737304688 334.034179688 291.237304688 339.381835938 289 c 1
 335.560546875 262 l 1
 284.482421875 246.2421875 194.098632812 218.666992188 116.3984375 197 c 1
 114.747070312 181.831054688 112.474609375 160.733398438 113.202148438 144.0625 c 0
 116.018554688 79.556640625 148.142578125 41 188.209960938 41 c 3
 232.209960938 41 261.423828125 59 288.419921875 82 c 1
 304.162109375 65 l 1
 269.77734375 28 225.436523438 -10 157.436523438 -10 c 3
 79.564453125 -10 45.365234375 49.5966796875 42.0576171875 125.344726562 c 0
 34.625 295.579101562 169.541015625 415 233.880859375 415 c 3
210.9765625 367 m 3
 172.764648438 367 132.6015625 299.47265625 120.219726562 224 c 1
 145.409179688 233.75 241.172851562 255.897460938 251.517578125 263 c 0
 260.254882812 269 272.037109375 274 271.337890625 290 c 1
 269.4609375 333 244.9765625 367 210.9765625 367 c 3
EndSplineSet
Validated: 545
Substitution2: "case-1" E
Substitution2: "pcap-1" e.pcap
Substitution2: "smcp-1" e.smcp
EndChar
StartChar: g
Encoding: 103 103 276
Width: 426
VWidth: 1159
Flags: HMW
HStem: -337 64<32.3914 168.022> 325 55<361.705 441.963> 378 38<182.55 272.831>
AnchorPoint: "Top" 261 465 basechar 0
AnchorPoint: "Bottom" 195 -318 basechar 0
LayerCount: 2
Fore
SplineSet
342 361.822265625 m 1xc0
 369.247070312 374.30078125 397.194335938 380 420 380 c 3
 435 380 455 378 460 374 c 1
 435 306 l 1
 418 318 394 325 376 325 c 0
 369.0390625 325 363.046875 323.263671875 356 321 c 1
 355.045898438 320.833007812 341.333007812 361.553710938 342 361.822265625 c 1xc0
361 229 m 0
 341.346679688 138.673828125 269.197265625 82.7587890625 202 53 c 0
 159.6875 34.26171875 139.663085938 27.21484375 130 20.5966796875 c 0
 123.676757812 16.2666015625 121.791015625 12.119140625 121 5 c 1
 119 -12 148 -28 180 -30 c 1
 208 -32 217 -30 245 -31 c 1
 332 -36 363 -83 356 -132 c 1
 340 -256 155 -337 74 -337 c 3
 -22 -337 -55 -280 -49 -231 c 1
 -38.6220703125 -152.642578125 66 -90 111 -76.0498046875 c 1
 112.05078125 -75.5703125 137.32421875 -89.3974609375 136 -90 c 1
 70 -110 17.501953125 -167.622070312 13 -205 c 1
 4 -257 65 -273 115 -273 c 3
 186 -273 296 -220 305 -166 c 1
 311 -122 285 -106 238 -101 c 1
 215 -99 198.059570312 -98.130859375 173 -98 c 0
 116 -97.7021484375 46 -72 40 10 c 1
 95 45 112 32 202 85 c 0
 249.455078125 112.946289062 284 160 293 236 c 1
 302 318 287 378 228 378 c 3
 174.52734375 378 137.682617188 318.037109375 123 247 c 0
 102.962890625 150.056640625 150 110 209 82 c 1
 210.0859375 81.3525390625 156.75390625 48.6728515625 156 49 c 1
 90.2861328125 66.1298828125 29.1728515625 122.395507812 56 242 c 0
 80 349 179.961914062 416 260 416 c 3xa0
 334.171875 416 383.985351562 334.642578125 361 229 c 0
EndSplineSet
Substitution2: "case-1" G
Substitution2: "pcap-1" g.pcap
Substitution2: "smcp-1" g.smcp
EndChar
StartChar: h
Encoding: 104 104 292
Width: 427
VWidth: 1159
Flags: HMW
HStem: 343 60<234.293 330.876> 662 38<98.0009 130.754>
VStem: 1.0004 78<-4 76.7172> 357.001 56.9735<180.359 316.446>
AnchorPoint: "Top" 221.647 733 basechar 0
AnchorPoint: "Bottom" 150.315 -15 basechar 0
LayerCount: 2
Fore
SplineSet
115.896484375 196 m 1
 96.125 139.833984375 84.3955078125 62.576171875 79.0859375 -4 c 1
 1.0859375 -4 l 1
 36.111328125 138 113.811523438 498.5546875 130.3984375 592 c 0
 134.727539062 616.395507812 136.7734375 631.544921875 136.637695312 638 c 0
 136.302734375 654 134.009765625 668 117.009765625 668 c 3
 112.009765625 668 89.1142578125 663 80.134765625 662 c 1
 81.98828125 669 83.4853515625 693 83.3388671875 700 c 1
 135.108398438 711 196.877929688 722 264.103515625 759 c 1
 279.54296875 738 l 1
 265.8359375 724 249.071289062 701.142578125 243.52734375 691 c 0
 210.068359375 629.780273438 163.831054688 483.0859375 122.577148438 259 c 1
 144.50390625 296.360351562 228.592773438 412 305.372070312 412 c 3
 366.681640625 412 406.565429688 353.778320312 407.938476562 288.192382812 c 0
 410.711914062 155.81640625 319.624023438 40 235.420898438 -20 c 1
 197.182617188 -6.7373046875 186.017578125 8.4208984375 186.913085938 52 c 1
 280.776367188 58.4912109375 354.650390625 112.248046875 352.016601562 238 c 0
 350.518554688 309.530273438 315.4453125 352 274.62890625 352 c 3
 215.719726562 352 140.2421875 264.112304688 115.896484375 196 c 1
EndSplineSet
Substitution2: "case-1" H
Substitution2: "pcap-1" h.pcap
Substitution2: "smcp-1" h.smcp
EndChar
StartChar: k
Encoding: 107 107 313
Width: 421
VWidth: 1159
UnlinkRmOvrlpSave: 1
Flags: HMW
HStem: -6 21G<20.2361 22.736> 372.562 46.4375<270.603 362.202> 661 28<93.9861 135.848> 749 20G<234.736 273.736>
VStem: 19.7361 70<-5 81.6634> 339.635 68.0957<292.691 368.052>
AnchorPoint: "Top" 217.48 749 basechar 0
AnchorPoint: "Bottom" 172.521 -15 basechar 0
LayerCount: 2
Fore
SplineSet
89.99609375 -5 m 1
 83.99609375 -5 58.99609375 -5 51.99609375 -5 c 0
 45.99609375 -5 26.048828125 -6 20.048828125 -6 c 1
 18.068359375 50.87109375 76.50390625 197.849609375 91.4267578125 273 c 0
 142.063476562 528 140.586914062 610.9921875 137.140625 641 c 0
 135.302734375 657 128.673828125 669 111.673828125 669 c 3
 106.673828125 669 69.0400390625 662 60.0927734375 661 c 1
 55.625 689 l 1
 107.048828125 700 173.21484375 735 217.432617188 769 c 1
 234.323242188 752 l 1
 230.157226562 610.631835938 117.49609375 203.750976562 89.99609375 -5 c 1
119.357421875 198 m 1
 202.643554688 220.744140625 325.549804688 268.779296875 321.987304688 336.72265625 c 0
 320.888671875 357.671875 300.095703125 372.5625 280.353515625 372.5625 c 3
 232.829101562 372.5625 165.359375 303.017578125 119.986328125 186 c 1
 107.676757812 211 l 1
 148.479492188 323.629882812 240.47265625 419 319.775390625 419 c 3
 360.708007812 419 387.482421875 386.326171875 389.30078125 351.640625 c 0
 394.213867188 257.89453125 274.779296875 208.04296875 170.986328125 186 c 1
 208.587890625 104.869140625 268.46484375 36.484375 414.779296875 -57 c 5
 410.828125 -73.9326171875 372.1015625 -84.51953125 351.403320312 -88 c 5
 285.193359375 -58.1640625 161.2109375 69.3896484375 119.357421875 198 c 1
EndSplineSet
Substitution2: "smcp-1" k.smcp
Substitution2: "pcap-1" k.pcap
Substitution2: "case-1" K
EndChar
StartChar: l
Encoding: 108 108 318
Width: 249
VWidth: 1159
Flags: HMW
HStem: -10 21G<74.2915 119.118> 749 20G<238.618 268.618>
VStem: 43.6184 82<53.6655 157.415>
AnchorPoint: "TopRight" 291.755 581 basechar 0
AnchorPoint: "Top" 219.92 749 basechar 0
LayerCount: 2
Fore
SplineSet
176.58984375 413 m 4
 154.73828125 318 122.809570312 163.696289062 121.692382812 90 c 4
 121.434570312 73 122.264648438 54 139.307617188 53 c 5
 154.3515625 52 191.12890625 80 212.211914062 101 c 5
 234.0859375 81 l 5
 209.701171875 44 140.05859375 -10 99.05859375 -10 c 7
 50.404296875 -10 46.0888671875 11.4677734375 42.0068359375 37 c 4
 39.5986328125 52.0634765625 42.2763671875 69.880859375 46.4306640625 96 c 4
 58.2001953125 170 96.4833984375 309.90234375 115.114257812 401 c 4
 153.447265625 588.435546875 157.067382812 624.796875 157.067382812 663 c 7
 157.067382812 673.250976562 154.315429688 688.598632812 145.66015625 694 c 5
 144.079101562 700.612304688 142.2890625 707.0078125 140.4921875 713 c 5
 158.873046875 732.125 204.131835938 748.517578125 248.046875 764 c 5
 257.986328125 757.142578125 261.8046875 748.571289062 267 740 c 5
 256.727539062 712.8984375 239.4375 657.459960938 232.115234375 630 c 4
 216.6484375 572 202.5859375 526.018554688 176.58984375 413 c 4
EndSplineSet
Substitution2: "case-1" L
Substitution2: "pcap-1" l.pcap
Substitution2: "smcp-1" l.smcp
EndChar
StartChar: m
Encoding: 109 109 336
Width: 686
VWidth: 1159
Flags: HMW
HStem: -11 73<545.461 600.834> 346 53<518.819 616.461> 362 56<309.864 394.461>
VStem: 49.4609 17<275.412 284.988> 67.4609 63<0.266968 30.8002> 510.461 75<62.0058 150.361>
AnchorPoint: "Bottom" 313.51 -15 basechar 0
AnchorPoint: "Top" 405 465 basechar 0
LayerCount: 2
Fore
SplineSet
576.055664062 63 m 3x9c
 598.055664062 63 629.330078125 116.280273438 643.880859375 137 c 1
 663 121 l 1
 643.844726562 80.310546875 592.16015625 -10 533.16015625 -10 c 3
 503.259765625 -10 490.000976562 27.638671875 490.000976562 58.5654296875 c 3
 490.000976562 114.860351562 544 220 543.215820312 291.833007812 c 0
 542.913085938 319.584960938 534.68359375 345 512.3359375 345 c 0
 466.435546875 345 379.2890625 182.432617188 372.76171875 153 c 0
 365 118 353.994140625 58.9775390625 347.502929688 28 c 0
 345.24609375 17.2314453125 344.901367188 8 340.390625 1 c 1
 336.4609375 0 309.600585938 -2 303.600585938 -2 c 1
 299.600585938 -2 278.600585938 -2 276.53125 -1 c 1
 272.390625 1 275.03515625 26.1484375 276.29296875 31 c 0
 284.18359375 61.4248046875 298.415039062 113.983398438 305.391601562 144 c 0
 315.384765625 187 328.036132812 234.390625 331.790039062 267 c 0
 336.455078125 307.512695312 334.056640625 349 303.056640625 349 c 3
 245.1015625 349 160.895507812 194 152.692382812 154 c 0
 141.703125 100.411132812 135.46484375 77.2060546875 126.29296875 31 c 0
 124.137695312 20.1435546875 120.901367188 8 119.390625 1 c 1
 118.53125 -1 88.4609375 0 83.4609375 0 c 1
 77.4609375 0 60.3212890625 2 56.181640625 4 c 1
 54.041015625 6 56.46875 27.076171875 57.29296875 31 c 0
 68 82 80.412109375 123.385742188 93.8740234375 180 c 0
 102.831054688 217.669921875 111.94140625 250.9921875 114.720703125 268 c 0
 119.623046875 298 104.594726562 327 89.5947265625 327 c 3
 79.5947265625 327 54.6923828125 297 47.8603515625 266 c 1
 29.7412109375 282 l 1
 43.2666015625 346 109.979492188 393 150.581054688 413 c 1
 160.720703125 411 172.60546875 400.541015625 177.259765625 389 c 0
 180.1015625 381.952148438 183.84375 366.96875 185.206054688 347.49609375 c 0
 187.046875 321.1640625 184.956054688 290.565429688 175.419921875 258 c 1
 205.296875 309.333007812 278.78515625 412 340.651367188 412 c 3
 384.862304688 412 402.151367188 372.125976562 405.262695312 327.635742188 c 0
 406.547851562 309.256835938 405.15625 290.62890625 401.440429688 272 c 1
 433.112304688 311.134765625 485.602539062 401 554.419921875 401 c 3
 604.419921875 401 617.009765625 346.045898438 603.951171875 279 c 0
 588.919921875 201.828125 563.03125 155.53125 563.03125 91.544921875 c 3
 563.03125 65 568.466796875 63 576.055664062 63 c 3x9c
EndSplineSet
Validated: 545
Substitution2: "case-1" M
Substitution2: "pcap-1" m.pcap
Substitution2: "smcp-1" m.smcp
EndChar
StartChar: o
Encoding: 111 111 358
Width: 422
VWidth: 1159
Flags: W
HStem: -10 41<144.646 235.435> 373 46<187.796 283.165>
VStem: 33.5293 75.7197<70.0077 254.691> 314.522 74.3486<156.751 339.116>
AnchorPoint: "Top" 262 465 basechar 0
AnchorPoint: "Horn" 369.611 341.8 basechar 0
AnchorPoint: "Ogonek" 247.839 19 basechar 0
AnchorPoint: "Bottom" 165 -15 basechar 0
AnchorPoint: "Middle" 212.41 206 basechar 0
LayerCount: 2
Fore
SplineSet
264.71875 419 m 7
 342.473054455 419 388.87109375 353.183856197 388.87109375 265.012695312 c 4
 388.87109375 114.403732028 274.067531643 -10 163.9375 -10 c 7
 85.8265398985 -10 33.529296875 48.286333341 33.529296875 147.842773438 c 4
 33.529296875 320.034321532 182.23799869 419 264.71875 419 c 7
238.530273438 373 m 7
 182.835633526 373 109.249023438 291.326680331 109.249023438 169.911132812 c 4
 109.249023438 87.317476158 140.658621615 31 185.431640625 31 c 7
 242.599156482 31 314.522460938 120.900264325 314.522460938 246.533203125 c 4
 314.522460938 328.408246152 280.431344037 373 238.530273438 373 c 7
EndSplineSet
Validated: 513
Substitution2: "case-1" O
Substitution2: "pcap-1" o.pcap
Substitution2: "smcp-1" o.smcp
EndChar
StartChar: p
Encoding: 112 112 398
Width: 442
VWidth: 1159
Flags: HMW
HStem: -322 34<73.265 151.962> -1 42<118.949 241.209> 351 46<235.989 356.462>
AnchorPoint: "Bottom" 94.623 -318 basechar 0
AnchorPoint: "Top" 251 465 basechar 0
LayerCount: 2
Fore
SplineSet
51.14453125 39 m 0
 72.091796875 137 94.3671875 231.744140625 96.3896484375 266 c 0
 97.8662109375 291 93.6357421875 302 88.4892578125 309 c 1
 78.509765625 308 45.845703125 292 36.8876953125 290 c 1
 34.1328125 326 l 1
 99.671875 348 116.735351562 345 145.640625 445 c 1
 212.431640625 453.505859375 202.823242188 469.571289062 181.442382812 359 c 1
 219.0859375 376 271.541015625 402 319.541015625 402 c 3
 377.926757812 402 426.83203125 334.9296875 417.934570312 240 c 1
 404.616210938 112 290.438476562 25 195.857421875 5 c 1
 167.982421875 -1 130.024414062 -3 106.982421875 -1 c 1
 88.8056640625 -88 61.4443359375 -214 60.32421875 -256 c 1
 60.7431640625 -276 85.0908203125 -283.166992188 99.9111328125 -284 c 0
 117.708984375 -285 147.380859375 -287 163.995117188 -288 c 1
 158.70703125 -322 l 1
 121.685546875 -321 106.685546875 -321 78.685546875 -321 c 3
 51.685546875 -321 -25.1044921875 -331 -53 -336 c 1
 -52.669921875 -304 l 1
 -46.599609375 -300 -41.5625 -296.4296875 -36.9638671875 -290 c 0
 -30.52734375 -281 -23.728515625 -260.474609375 -16.13671875 -234 c 0
 -1.2255859375 -182 27.373046875 -72.21484375 51.14453125 39 c 0
266.504882812 356 m 3
 217.504882812 356 187.965820312 334 171.405273438 313 c 1
 116.663085938 62 l 1
 137.915039062 50 163.103515625 41 197.103515625 41 c 3
 277.103515625 41 341.532226562 116 349.4375 216 c 1
 358.889648438 283.407226562 328.727539062 356 266.504882812 356 c 3
EndSplineSet
Substitution2: "case-1" P
Substitution2: "pcap-1" p.pcap
Substitution2: "smcp-1" p.smcp
EndChar
StartChar: q
Encoding: 113 113 421
Width: 427
VWidth: 1159
Flags: HMW
HStem: -342 36<313.91 382.286> -5 43<136.495 234.88> 369 49<208.948 322.151> 409 20G<423.786 454.286>
AnchorPoint: "Bottom" 217.448 -318 basechar 0
AnchorPoint: "Top" 298 465 basechar 0
LayerCount: 2
Fore
SplineSet
302.448242188 149 m 1xe0
 316.291015625 204.939453125 327.826171875 260.090820312 336.286132812 305 c 1
 336.286132812 311 334.168945312 322.32421875 330.286132812 330 c 0
 314.098632812 362 280.952148438 369 256.286132812 369 c 3
 185.026367188 369 119.249023438 286 108.286132812 191 c 1
 100.701171875 105.1171875 120.697265625 45 163.448242188 45 c 3
 222.252929688 45 291.376953125 121.869140625 302.448242188 149 c 1xe0
291.448242188 95 m 1
 234.098632812 26.8623046875 187.01171875 -9 120.448242188 -9 c 3
 53.1953125 -9 32 68.8828125 32 127.37890625 c 3
 32 244.008789062 159.76953125 418 301.286132812 418 c 3xe0
 350.524414062 418 358.672851562 392 371.286132812 392 c 3
 391.95703125 392 408.870117188 417.946289062 415.448242188 424 c 1xd0
 442.448242188 411 l 1
 440.884765625 405.967773438 435.271484375 392.676757812 432.286132812 385 c 0
 425.286132812 367 414.80859375 335.147460938 395.286132812 271 c 0
 388.286132812 248 366.286132812 164 357.286132812 122 c 0
 309.286132812 -102 290.158203125 -203.026367188 288.286132812 -250 c 0
 287.010742188 -282 311.615234375 -294.672851562 325.286132812 -298 c 0
 337.612304688 -301 370.890625 -306 378.286132812 -306 c 1
 373.286132812 -342 l 1
 351.286132812 -341 316.286132812 -338 277.286132812 -338 c 3
 250.286132812 -338 184.286132812 -344 156.286132812 -348 c 1
 158.286132812 -316 l 1
 164.286132812 -315 164.149414062 -312.737304688 170.286132812 -308 c 0
 183.239257812 -298 194.202148438 -283.596679688 204.286132812 -256 c 0
 216.737304688 -221.921875 262.016601562 -40.1748046875 291.448242188 95 c 1
EndSplineSet
Substitution2: "case-1" Q
Substitution2: "pcap-1" q.pcap
Substitution2: "smcp-1" q.smcp
EndChar
StartChar: r
Encoding: 114 114 438
Width: 355
VWidth: 1159
Flags: HMW
HStem: 406 20G<322.507 343.007> 413 20G<154.507 180.507 322.507 343.007>
VStem: 44.5073 19<295.105 306.953> 55.5073 68<0 66.3041>
AnchorPoint: "Bottom" 109.034 -15 basechar 0
AnchorPoint: "Top" 232 465 basechar 0
LayerCount: 2
Fore
SplineSet
119.453125 288 m 1x80
 119.30078125 321 110.393554688 347 95.3935546875 347 c 3
 85.3935546875 347 61.4755859375 316 53.55859375 285 c 1
 34 301 l 1
 53.1953125 361.606445312 115.899414062 407.060546875 155.634765625 426 c 1
 182.71484375 421.4921875 193.4765625 397.630859375 194.606445312 365.287109375 c 0
 195.45703125 340.921875 193.65234375 312.112304688 186.698242188 281 c 1
 231.020507812 348.028320312 311.616210938 416.23828125 334.739257812 423 c 1
 357.532226562 417.911132812 382.11328125 392.463867188 378.729492188 366 c 1
 375.33984375 345 345.814453125 305 314.208984375 295 c 1
 309.37109375 312.727539062 295.97265625 334 285.84765625 334 c 3
 255.140625 334 184.802734375 264 164.155273438 182 c 0
 162.526367188 175.532226562 161.28515625 169.01171875 160.713867188 166 c 0
 153.846679688 129.825195312 149.537109375 103.138671875 146.541992188 85 c 0
 144.891601562 75 143.979492188 66.8056640625 141.520507812 57 c 0
 139.764648438 50 136.642578125 38.841796875 134.393554688 32 c 0
 130.77734375 21 128.126953125 11 123.510742188 0 c 1
 119.491210938 0.5556640625 91.58203125 -2.037109375 85.5810546875 -2 c 1
 79.5810546875 -2 59.615234375 -3 55.4755859375 1 c 1
 55.2314453125 8 60.462890625 30 61.3232421875 34 c 0
 62.18359375 38 64.7353515625 55.3125 66.4501953125 59 c 0
 67.380859375 61 70.74609375 80.29296875 72.5419921875 85 c 0
 77.123046875 97 95.24609375 169.440429688 107.247070312 208 c 0
 115.338867188 234 119.221679688 266 119.453125 288 c 1x80
EndSplineSet
Substitution2: "case-1" R
Substitution2: "pcap-1" r.pcap
Substitution2: "smcp-1" r.smcp
EndChar
StartChar: s
Encoding: 115 115 444
Width: 332
VWidth: 1159
Flags: HMW
HStem: -10.1663 54.1517<60.012 183.476> 369 47<185.053 261.473>
VStem: 84.6733 70.1657<259.483 332.875> 198.924 68.2592<62.772 153.436> 289.016 44<317.5 339.554>
AnchorPoint: "Bottom" 134.671 -15 basechar 0
AnchorPoint: "Top" 218.713 465 basechar 0
LayerCount: 2
Fore
SplineSet
28.216796875 87 m 1
 60.498046875 52.9921875 109.076171875 35.9853515625 141.677734375 35.9853515625 c 3
 166.81640625 35.9853515625 196.448242188 56.69921875 194.528320312 100.663085938 c 0
 193.254882812 129.840820312 166.918945312 160.653320312 139.938476562 185 c 0
 109.069335938 212.85546875 74.6923828125 228.599609375 72.6015625 276.489257812 c 0
 72.365234375 281.895507812 72.541015625 287.7109375 73.1796875 294 c 1
 78.1015625 342.541015625 174.301757812 420 238.677734375 420 c 3
 270.177734375 420 285.44140625 408.599609375 302.5078125 401 c 1
 305.98828125 390 310.384765625 358 319 321 c 1
 275.9609375 299 l 1
 262.6484375 333.099609375 239.098632812 376 205.598632812 376 c 3
 167.986328125 376 133.6875 347.034179688 135.02734375 316.326171875 c 0
 136.166015625 290.267578125 156.323242188 260.630859375 194.9296875 231 c 0
 231.45703125 202.96484375 259.810546875 168.865234375 261.301757812 134.7109375 c 0
 265.139648438 46.80859375 189.239257812 8.810546875 140.146484375 -3 c 0
 122.415039062 -7.265625 100.211914062 -9.166015625 78.1396484375 -9.166015625 c 3
 46.92578125 -9.166015625 15.984375 -6.1083984375 -2.9404296875 -1 c 1
 2.80859375 20 11.0625 60 13.3916015625 83 c 1
 28.216796875 87 l 1
EndSplineSet
Validated: 545
Substitution2: "case-1" S
Substitution2: "pcap-1" s.pcap
Substitution2: "smcp-1" s.smcp
EndChar
StartChar: t
Encoding: 116 116 476
Width: 304
VWidth: 1159
Flags: HMW
HStem: -15 53<99.8374 179.367> 342 26<73.8374 107.736> 352 38<204.837 310.768> 358 41<205.902 311.837>
VStem: 50.8374 267
AnchorPoint: "TopRight" 271.542 538 basechar 0
AnchorPoint: "Bottom" 105.803 -15 basechar 0
AnchorPoint: "Top" 178.986 477 basechar 0
LayerCount: 2
Fore
SplineSet
49.7119140625 373 m 1xc8
 113.228515625 394.11328125 123.91796875 396.032226562 158.016601562 492 c 1
 208.952148438 493 l 1
 204.967773438 481.583007812 185.150390625 408.3203125 181.2890625 395 c 1xa8
 203.224609375 396 271.772460938 403 293.70703125 404 c 1
 290.358398438 363 l 1x98
 268.358398438 363 194.747070312 357 172.747070312 357 c 1xa8
 156.5546875 293.762695312 127.3828125 180.3359375 117.948242188 91 c 1
 115.758789062 63 124.1171875 42 154.1171875 42 c 3
 179.1171875 42 222.112304688 73 246.948242188 91 c 1
 246.948242188 91 254.659179688 80 259.306640625 70 c 1
 223.310546875 39 165.543945312 -11 110.543945312 -11 c 3
 92.5439453125 -11 39.8330078125 0 46.5947265625 81 c 1
 53.177734375 167.318359375 86.91015625 272.70703125 103.0703125 352 c 1
 103.0703125 352 63.3291015625 348 53.3935546875 347 c 1
 49.7119140625 373 l 1xc8
EndSplineSet
Substitution2: "case-1" T
Substitution2: "pcap-1" t.pcap
Substitution2: "smcp-1" t.smcp
EndChar
StartChar: u
Encoding: 117 117 519
Width: 482
VWidth: 1159
Flags: HMW
HStem: -18 56<306.047 398.116> -10 70<97.5471 187.547> 341 75<138.547 197.547> 387 20G<450.047 457.547>
AnchorPoint: "Ogonek" 393.534 23 basechar 0
AnchorPoint: "Bottom" 218.859 -15 basechar 0
AnchorPoint: "Top" 295.864 465 basechar 0
LayerCount: 2
Fore
SplineSet
375.638671875 399 m 1x60
 380.250976562 402.200195312 409.178710938 407 419.939453125 407 c 1
 423.939453125 407 450.026367188 406 450.551757812 400 c 1
 441.288085938 323 392.693359375 287.9140625 369.986328125 155 c 0
 365.356445312 127.903320312 361.67578125 89.9677734375 362.334960938 71 c 1
 361.735351562 55 366.434570312 47 375.434570312 47 c 3
 386.434570312 47 414.189453125 61.2373046875 449.53515625 103 c 1
 467.935546875 87 l 1
 445.05078125 51.3876953125 418.346679688 26.3134765625 393.671875 10 c 0
 378.546875 0 357.333984375 -9 336.333984375 -9 c 3x90
 306.630859375 -9 295.609375 12.1279296875 293.219726562 39.443359375 c 0
 290.361328125 72.1220703125 296.912109375 112.102539062 302.123046875 142 c 1
 258.477539062 98.34375 176.890625 -8 111.247070312 -8 c 3
 85.2470703125 -8 64.5849609375 11 57.9599609375 41 c 1
 53.7216796875 66.5869140625 63.771484375 121.439453125 73.111328125 165 c 0
 84.474609375 218 104.095703125 266.184570312 110.375976562 322 c 0
 111.500976562 332 112.80078125 340 108.712890625 341 c 1
 97.712890625 341 57.1748046875 290 44.400390625 276 c 1
 29 292 l 1
 51.23828125 335 114.151367188 416 161.151367188 416 c 3
 191.151367188 416 199.901367188 396 196.263671875 369 c 1
 193.375976562 322 170.334960938 312.876953125 145.57421875 194 c 0
 130.786132812 123 127.297851562 60 169.297851562 60 c 3
 196.857421875 60 272.44140625 141.111328125 315.524414062 206 c 1
 322.2265625 234.892578125 335.3515625 290.954101562 337.475585938 298 c 0
 342.900390625 316 351.759765625 343.328125 358.05078125 360 c 0
 364.017578125 375.810546875 371.21875 389.513671875 375.638671875 399 c 1x60
EndSplineSet
Validated: 545
Substitution2: "case-1" U
Substitution2: "pcap-1" u.pcap
Substitution2: "smcp-1" u.smcp
EndChar
StartChar: w
Encoding: 119 119 1214
Width: 531
VWidth: 1159
Flags: HMW
HStem: 353 46<508.061 559.583> 395 20G<379.903 387.236>
VStem: 345.655 70<269.962 371.091>
AnchorPoint: "Top" 342 465 basechar 0
AnchorPoint: "Bottom" 174.705 -15 basechar 0
LayerCount: 2
Fore
SplineSet
537.37109375 333 m 0xa0
 544.670898438 228.598632812 421.989257812 113.772460938 349.670898438 57 c 0
 322.217773438 35.4482421875 280.446289062 11.865234375 260.42578125 -11 c 1
 240.005859375 -5 l 1
 241.991210938 60.931640625 261.96875 143.9140625 268.770507812 261 c 1
 224.849609375 163.747070312 159.950195312 44.1220703125 61.4951171875 -12 c 1
 41.7958984375 -2 l 1
 66.85546875 99.8525390625 91 193.609375 91 296 c 3
 91 304.866210938 91.3955078125 344 76.6015625 344 c 3
 61.890625 344 39.9921875 320.581054688 28.3984375 304 c 1
 10 324 l 1
 28.93359375 346.8046875 84.328125 414 127.70703125 414 c 3
 162.662109375 414 168 356.90625 168 325 c 3
 168 291.758789062 151.081054688 151.01953125 128 88 c 1
 164.254882812 120.51953125 232.251953125 232.3046875 309.244140625 401 c 1
 343.196289062 403 l 1
 340.41015625 273.716796875 321.625 150.97265625 313.970703125 67 c 1
 377.926757812 120.83203125 474.453125 248.495117188 468.66796875 331.223632812 c 0
 467.599609375 346.501953125 461.850585938 366 446.063476562 366 c 3
 438.473632812 366 434.727539062 364.043945312 426.692382812 357 c 1
 409.293945312 377 l 1
 431.9296875 405.978515625 454.86328125 417.265625 469.2265625 417.265625 c 3
 515.380859375 417.265625 533.838867188 383.521484375 537.37109375 333 c 0xa0
EndSplineSet
Substitution2: "case-1" W
Substitution2: "pcap-1" w.pcap
Substitution2: "smcp-1" w.smcp
EndChar
StartChar: x
Encoding: 120 120 1216
Width: 450
VWidth: 1159
Flags: W
HStem: -10 73.4414<42.7961 104.137> -9.83984 61.8398<264.667 363.257> 326.156 82.8438<339.328 423.99> 344.576 67.4238<105.013 201.031>
VStem: 43.1416 18.5586<273.965 282.375>
AnchorPoint: "Bottom" 184.6 -15 basechar 0
AnchorPoint: "Top" 275 465 basechar 0
LayerCount: 2
Fore
SplineSet
250 222 m 1x58
 299.119140625 85.8017578125 312.52734375 52 350.103515625 52 c 3
 365.103515625 52 382.1953125 78 404.04296875 111 c 1
 424.670898438 93 l 1
 394.33984375 40.587890625 360.419921875 -9.83984375 305.475585938 -9.83984375 c 3
 223.858398438 -9.83984375 225.841796875 104.380859375 208 170 c 1
 207.733398438 171.09765625 200.431640625 194.073242188 200 196 c 1
 186.470703125 253.692382812 172.874023438 344.576171875 129.362304688 344.576171875 c 3
 99.23828125 344.576171875 78.3095703125 298.083007812 61.7001953125 264 c 1
 43.1416015625 280 l 1
 65.353515625 364.333007812 103.6875 412 173.53125 412 c 3
 228.530273438 412 236.94921875 303.979492188 245 249 c 1
 245.251953125 247.196289062 249.67578125 222.98828125 250 222 c 1x58
216 168 m 1
 112.834960938 20.73046875 110.758789062 -10 44.2685546875 -10 c 3
 5.8154296875 -10 -4.865234375 21.9296875 -5.9609375 53.3466796875 c 0
 -6.4130859375 66.314453125 -2.99609375 82.162109375 6.2177734375 106 c 1
 27.3916015625 101 l 1
 52.0869140625 73.951171875 66.1943359375 63.44140625 77.1015625 63.44140625 c 3
 100.623046875 63.44140625 168.668945312 162.10546875 201 204 c 1
 202.076171875 205.157226562 240.46484375 244.139648438 241 245 c 1
 301.840820312 370.10546875 352.213867188 409 385.63671875 409 c 3
 418.758789062 409 451.353515625 364.252929688 452.25 338.643554688 c 0
 452.588867188 328.96484375 450.048828125 319.696289062 445.05859375 311 c 1
 420.954101562 314 l 1
 412.2109375 322.447265625 401.961914062 326.15625 390.610351562 326.15625 c 3xa8
 322.088867188 326.15625 284.756835938 250.008789062 250 211 c 1
 249.571289062 210.58984375 217.245117188 169.577148438 216 168 c 1
EndSplineSet
Substitution2: "case-1" X
Substitution2: "pcap-1" x.pcap
Substitution2: "smcp-1" x.smcp
EndChar
StartChar: y
Encoding: 121 121 1220
Width: 359
VWidth: 1159
Flags: HMW
HStem: 388 20G<107.007 120.547>
VStem: 28.0069 22<273 332.219>
AnchorPoint: "Bottom" 130.726 -161 basechar 0
AnchorPoint: "Top" 241 465 basechar 0
LayerCount: 2
Fore
SplineSet
-19 -325 m 1
 -21 -326 -56 -325 -87 -325 c 1
 -125.716796875 -325 -132.88671875 -325 -163 -326 c 1
 -163 -326 -158 -304 -158 -298 c 1
 -87.4482421875 -275 -2.5595703125 -224 108 -42 c 1
 117.9375 5.0087890625 121.987304688 62.5947265625 121.987304688 118.57421875 c 3
 121.987304688 208.383789062 101.64453125 342 75 342 c 3
 64.9423828125 342 43.10546875 304.098632812 31.451171875 273 c 1
 10.451171875 290 l 1
 40.21484375 363.2578125 90.19921875 413 116 413 c 3
 161.92578125 413 184.91796875 364.92578125 184.91796875 231 c 7
 184.91796875 179.4140625 182.403320312 120.70703125 179 62 c 5
 251.034179688 198.280273438 289.375976562 285.889648438 318.725585938 407 c 1
 323.178710938 406.487304688 381.606445312 402.60546875 391.725585938 402 c 1
 394.228515625 399.9140625 389.9453125 387.561523438 383.59375 373 c 0
 374.71875 352.654296875 361.235351562 328.296875 357.725585938 321 c 0
 342.522460938 289.390625 261.130859375 115.276367188 154 -42 c 0
 107 -111 12 -271 -19 -325 c 1
EndSplineSet
Substitution2: "case-1" Y
Substitution2: "pcap-1" y.pcap
Substitution2: "smcp-1" y.smcp
EndChar
StartChar: z
Encoding: 122 122 1223
Width: 346
VWidth: 1159
Flags: HMW
HStem: -79 29<295.571 326.227> 399 20G<157.175 172.675>
VStem: 331.175 68<-39.3516 32.8313>
AnchorPoint: "Bottom" 192.23 -15 basechar 0
AnchorPoint: "Top" 241 465 basechar 0
LayerCount: 2
Fore
SplineSet
100 15 m 3
 70.64453125 15 36.2080078125 -6.369140625 24.0205078125 -12 c 1
 13.0205078125 -12 -1.3779296875 8 -1.8671875 15 c 1
 41.4345703125 106.29296875 109.942382812 156.661132812 257.826171875 334 c 1
 247.546875 330 225.873046875 329 210.036132812 331 c 1
 180.107421875 336 144.7265625 352 124.078125 359 c 1
 103.846679688 348 93.9658203125 332 77.57421875 309 c 1
 63.57421875 309 59.57421875 309 58.9453125 318 c 1
 57.1962890625 343 121.833007812 434 137.833007812 434 c 1
 148.20703125 428 164.91015625 407 221.071289062 402 c 1
 297.818359375 397 327.850585938 400 348.952148438 418 c 1
 361.931640625 404 l 1
 301.202148438 274.33203125 161.366210938 186.022460938 86.4755859375 53 c 1
 100.020507812 56.3720703125 112.342773438 57.8740234375 123.65234375 57.8740234375 c 3
 216.319335938 57.8740234375 241.02734375 -43 313.489257812 -43 c 3
 324.185546875 -43 355.767578125 -30.984375 359.6015625 -16 c 1
 369.146484375 -16 373.709960938 -17.548828125 373.810546875 -19 c 1
 377.62109375 -67.4228515625 335.338867188 -117 270 -117 c 7
 205.9296875 -117 161.310546875 15 100 15 c 3
EndSplineSet
Substitution2: "case-1" Z
Substitution2: "pcap-1" z.pcap
Substitution2: "smcp-1" z.smcp
EndChar
StartChar: braceleft
Encoding: 123 123 169
Width: 266
VWidth: 1515
Flags: W
HStem: -229.7 31<189.018 239.5> 685.3 31<189.018 239.5>
VStem: 91.5 59.5<-156.252 38.4622 448.137 642.851> 114 66<-8.67273 162.063 324.537 495.272>
LayerCount: 2
Fore
SplineSet
239.5 716.3 m 1xe0
 239.5 716.3 239.5 697.39 239.5 685.3 c 1
 184.336 684.28 151 654.121 151 551 c 3xe0
 151 480.769 180 464.467 180 390 c 3
 180 334.827 122.112 266.261 79.5 243.3 c 1
 122.112 220.339 180 151.773 180 96.5996 c 3xd0
 180 22.1318 151 5.83048 151 -64.4004 c 3
 151 -167.522 184.336 -197.68 239.5 -198.7 c 1
 239.5 -229.7 l 1
 164.146 -233.096 91.5 -190.992 91.5 -39.7002 c 3xe0
 91.5 20.2272 114 52.5951 114 99.5996 c 3
 114 146.535 81.5417 208.612 11.5 230.3 c 1
 11.5 256.3 l 1
 81.5417 277.987 114 340.065 114 387 c 3xd0
 114 434.004 91.5 466.372 91.5 526.3 c 3
 91.5 677.592 164.146 719.696 239.5 716.3 c 1xe0
EndSplineSet
Position2: "cpsp-1" dx=0 dy=0 dh=50 dv=100
Position2: "'case' vertical ajustments for all-caps-1" dx=0 dy=90 dh=0 dv=0
EndChar
StartChar: bar
Encoding: 124 124 167
Width: 158
VWidth: 1515
Flags: W
HStem: 684 20G<60 98>
VStem: 60 38<-223 704>
LayerCount: 2
Fore
SplineSet
60 704 m 17
 98 704 l 9
 98 -223 l 1
 60 -223 l 1
 60 704 l 17
EndSplineSet
Position2: "cpsp-1" dx=0 dy=0 dh=50 dv=100
Position2: "'case' vertical ajustments for all-caps-1" dx=0 dy=90 dh=0 dv=0
EndChar
StartChar: asciitilde
Encoding: 126 126 161
Width: 394
VWidth: 0
Flags: W
HStem: 190.053 64<165.217 319.341> 219.392 63.4463<79.8039 234.197>
LayerCount: 2
Fore
SplineSet
18.1338 193.354 m 1x40
 48.251 239.653 103.74 282.838 111.35 282.838 c 3x40
 154.388 282.838 245.562 254.053 287.451 254.053 c 3
 297.852 254.053 326.98 275.77 342.108 299.824 c 1
 376 286.539 l 1
 350.651 242.854 303.803 190.053 291.063 190.053 c 3x80
 249.961 190.053 145.346 219.392 106.465 219.392 c 3
 93.6533 219.392 63.7217 194.926 50.168 179.645 c 1
 18.1338 193.354 l 1x40
EndSplineSet
Position2: "cpsp-1" dx=0 dy=0 dh=50 dv=100
Position2: "'case' vertical ajustments for all-caps-1" dx=0 dy=90 dh=0 dv=0
EndChar
StartChar: cent
Encoding: 162 162 183
Width: 408
VWidth: 1159
UnlinkRmOvrlpSave: 1
Flags: W
HStem: -16 63<150.253 274.436> 363 51<159.213 276.324>
VStem: 25 62<113.66 276.256> 174 31<-155 100.316> 193 30<282.684 538>
LayerCount: 2
Fore
SplineSet
193 538 m 1xe8
 223 538 l 1xe8
 205 -156 l 1
 174 -155 l 1xf0
 193 538 l 1xe8
25 175 m 3
 25 243.094412951 43.1224872885 286.67194765 89 335 c 0
 137.697530864 386.298701299 181.073948583 414 250 414 c 3
 301.098699568 414 325.166666667 389.043478261 373 373 c 1
 345.5 345.4 330.5 328.6 303 301 c 1
 289.982142857 327.014693878 272.142857143 363 222 363 c 3
 188.763926852 363 165.097196111 362.406308971 143 342 c 0
 92.8947368421 295.728813559 87 251.918913519 87 186 c 3
 87 125.155229142 135.729226873 47 220 47 c 3
 280.78767951 47 323.25 96.7571428571 351 128 c 1
 359.25 122 364.75 118 373 112 c 1
 337.981818182 62.5454545455 287.929788204 -16 199 -16 c 3
 76.6141371125 -16 25 103.179231167 25 175 c 3
EndSplineSet
Position2: "'lnum-2' vertical adjustment" dx=0 dy=125 dh=0 dv=0
EndChar
StartChar: yen
Encoding: 165 165 1222
Width: 463
VWidth: 1159
UnlinkRmOvrlpSave: 1
Flags: HW
HStem: -4.67871 27.0137<146.569 183.29 299.257 339.58> 171.125 39.1<81 396> 271.775 39.1<81 396> 587.232 25.69<19.3948 54.5358 167.676 182.54 281.486 320.156 397.924 437>
VStem: 81 315<171.125 210.225 271.775 310.875> 207.261 75.837<36.0924 306.389>
LayerCount: 2
Fore
SplineSet
274.890625 169.708984375 m 1
 274.314622807 115.248982948 272.283654214 50.1171047102 283.09765625 -128.499023438 c 0
 285.015173967 -160.170886375 292.119204273 -161.0586431 320.783203125 -167.310546875 c 1
 317.580078125 -195.142578125 l 1
 274.689595576 -186.83690152 222.038207283 -183.218788643 178.485351562 -198.678710938 c 1
 171.08984375 -171.665039062 l 1
 195.610467016 -162.26863286 206.390990071 -155.268664903 207.260742188 -117.220703125 c 0
 207.787638441 -104.621204106 205.843021338 150.767976016 205.118164062 143.750976562 c 1
 204.034116885 150.049303618 155.095264654 248.178623374 87.2695828038 343.999997223 c 0
 76.0701508093 359.82210075 59.2291043945 378.720580661 49 385 c 1
 139 433 l 1
 144.933661013 402.938576204 168.652866704 351.939024868 181.091541944 327.999991964 c 0
 221.31584563 250.585724695 252.239236655 211.848881796 255.486328125 207.837890625 c 1
 299.730787717 303.031969433 321.320964056 356.628741888 331 433 c 1
 345.5 424.066173481 396.25 400.848034565 418 391 c 1
 345.004852928 317.965777551 314.263107929 249.458544383 274.890625 169.708984375 c 1
EndSplineSet
Refer: 487 58113 N 0.29 0 0 1.125 93 -2 2
Refer: 487 58113 N 0.29 0 0 1.125 93 98 2
Position2: "'lnum-2' vertical adjustment" dx=0 dy=190 dh=0 dv=0
EndChar
StartChar: copyright
Encoding: 169 169 194
Width: 766
VWidth: 1159
Flags: W
HStem: 0 40.7334<244.265 458.863> 123 53.2046<360.546 451.463> 498.444 63.2432<425.817 521.641> 640.886 40.7334<371.018 581.523>
VStem: 249.737 78.0945<210.275 368.633>
LayerCount: 2
Fore
SplineSet
478.720703125 640.885742188 m 0
 319.862304688 640.885742188 145.258789062 511.44140625 107.739257812 334.92578125 c 0
 70.21875 158.40625 186.4140625 40.7333984375 351.154296875 40.7333984375 c 0
 510.016601562 40.7333984375 684.622070312 170.178710938 722.141601562 346.693359375 c 0
 757.16015625 511.442382812 643.46484375 640.885742188 478.720703125 640.885742188 c 0
487.381835938 681.619140625 m 0
 674.495117188 681.619140625 803.626953125 534.599609375 763.856445312 347.494140625 c 0
 721.244140625 147.016601562 522.9296875 0 342.5 0 c 0
 155.390625 0 23.419921875 133.650390625 66.0322265625 334.125 c 0
 108.643554688 534.59765625 306.956054688 681.619140625 487.381835938 681.619140625 c 0
EndSplineSet
Refer: 177 99 N 1.04191 0 0 1.00386 204.238 138.058 2
Validated: 33
EndChar
StartChar: paragraph
Encoding: 182 182 400
Width: 605
VWidth: 1159
UnlinkRmOvrlpSave: 1
Flags: HW
HStem: -8 21G<335.141 437.704> 686 55<384.014 530>
VStem: 290 38<57 490.2> 298 40<235.8 673>
LayerCount: 2
Fore
SplineSet
432.1484375 673 m 29xd0
 473.848632812 681 l 29xd0
 328.663085938 45 l 29
 293.213867188 57 l 29xe0
 432.1484375 673 l 29xd0
678.602539062 741 m 5
 668.912109375 686 l 5
 626.274414062 683 477.848632812 681 400.708984375 638 c 4
 343.622070312 606.178710938 320.594726562 581.006835938 258.52734375 289 c 4
 228.768554688 149 247.021484375 116.392578125 272.015625 89 c 4
 287.147460938 72.619140625 378.149414062 53.1669921875 444.875976562 46 c 5
 423.397460938 -8 l 5
 234.883789062 35.3046875 204.473632812 69.775390625 162.943359375 131 c 4
 118.971679688 197 108.150390625 279.143554688 105.004882812 343 c 4
 103.978515625 363.837890625 103.670898438 378.508789062 115.908203125 399 c 4
 162.487304688 477 236.967773438 586.794921875 352.748046875 657 c 4
 469.838867188 728 678.602539062 741 678.602539062 741 c 5
EndSplineSet
Position2: "cpsp-1" dx=0 dy=0 dh=50 dv=111
EndChar
StartChar: AE
Encoding: 198 198 1249
Width: 1067
VWidth: 1159
Flags: W
HStem: -9 35<449 495.845> -5 39<22.2735 80.0876 173.619 239.873> 247 42<296.875 529.631> 334 36<608 868.393> 661 31<396 456.398>
VStem: 525 93<373.564 639.016> 529.631 78.3691<90.5 243.369 285.991 334 370 605.156> 892 36<250 306.348> 933 30<539 621.889> 993 28<152.034 171.75>
AnchorPoint: "Top" 580.585 699 basechar 0
AnchorPoint: "Bottom" 569.957 -15 basechar 0
LayerCount: 2
Fore
SplineSet
396 692 m 1x7bc0
 558 678 943 687 969 693 c 1
 1001 665 974 672 963 539 c 1
 933 536 l 1
 922 572 941 619 905 630 c 0
 842 648 731 653 650 643 c 0
 632 641 619 627 618 609 c 0x7dc0
 614 526.970338983 609 445.953389831 608 370 c 1
 672 372 824 372 838 373 c 0
 875 378 880 404 896 448 c 1
 930 441 l 1
 913 377 917 314 928 250 c 1
 892 241 l 1
 872 312 879 325 838 329 c 0
 794 334 701 333 608 334 c 1
 607 236.227091633 611 147.525896414 623 81 c 0
 627 64 636 50 653 49 c 0
 746 40 809 32 885 58 c 0
 944 78 954 101 993 177 c 1
 1021 170 l 1
 1005 104 994 62 982 0 c 1
 790 -1 579 12 451 -9 c 1
 441 26 l 1xbbc0
 494 36 527 49 527 77 c 1
 528.380926187 103.914026086 529.284877868 166.790357996 529.630859375 241.087890625 c 1
 467.278003094 249.660049211 355.177385742 253.494120142 272.916992188 247 c 1
 235.500997091 184.6 209.014082931 147.759493671 176.979 87 c 0
 158.157 51 172.988 29 244.937 34 c 1
 239.599 -10 l 1
 186.683 1 79.251 4 22.5469 -5 c 1
 22.5469 -5 18.2832 20 19.9365 34 c 1
 71.5889 48 102.294 57 117.652 80 c 0
 245.893953454 285.468704307 363.399910804 480.400810666 462.046875 648.923828125 c 1
 441.407911312 652.540879605 417.029954203 656.00792895 391 661 c 1
 396 692 l 1x7bc0
499.977539062 640.265625 m 1
 473.026905511 593.239042544 345.505326951 370.882231497 296.875 289 c 1
 347.043311173 284.20133642 475.957582399 285.850220822 529.76953125 285.991210938 c 1
 529.972511301 417.75573903 528.516654383 568.318110715 525 618 c 0
 524.612992871 628.452823952 515.381822824 635.158711011 499.977539062 640.265625 c 1
EndSplineSet
Position2: "cpsp-1" dx=0 dy=0 dh=50 dv=100
Substitution2: "c2pc-1" ae.pcap
Substitution2: "c2sc-1" ae.smcp
EndChar
StartChar: germandbls
Encoding: 223 223 280
Width: 477
VWidth: 1159
Flags: W
HStem: -326 36<-176.112 -133.832> -9.16602 45.1514<242.036 355.133> 697 57<333.094 430.814>
VStem: 265.313 65.5557<262.782 333.862> 373.424 69.4473<66.1989 155.309> 458.324 61.082<533.259 638.468>
LayerCount: 2
Fore
SplineSet
519.40625 613 m 0
 514.268554688 465.877929688 333.514648438 392.073242188 330.869140625 316.326171875 c 0
 329.959960938 290.267578125 347.7890625 260.630859375 384.06640625 231 c 0
 418.391601562 202.96484375 444.063476562 168.865234375 442.87109375 134.7109375 c 0
 439.801757812 46.80859375 360.916015625 8.8095703125 310.895507812 -3 c 0
 292.828125 -7.265625 270.4765625 -9.166015625 248.403320312 -9.166015625 c 3
 217.189453125 -9.166015625 186.489257812 -6.1083984375 167.96484375 -1 c 1
 175.365234375 20 186.762695312 60 190.8984375 83 c 1
 206.038085938 87 l 1
 235.646484375 52.9921875 282.888671875 35.9853515625 315.490234375 35.9853515625 c 3
 340.62890625 35.9853515625 371.887695312 56.69921875 373.423828125 100.663085938 c 0
 374.442382812 129.840820312 350.52734375 160.653320312 325.459960938 185 c 0
 296.780273438 212.85546875 263.640625 228.599609375 265.313476562 276.489257812 c 0
 268.770507812 375.487304688 453.498046875 443.814453125 458.32421875 582 c 0
 459.5390625 616.794921875 407.645507812 697 361.33984375 697 c 3
 279.33984375 697 253.029296875 620.734375 201.390625 498 c 0
 138.295898438 348.038085938 108.6640625 19 33.9931640625 -172 c 0
 9.2939453125 -235.178710938 -22.4990234375 -278.947265625 -59.279296875 -323 c 1
 -69.244140625 -322 -68.2099609375 -321 -110.209960938 -321 c 3
 -131.209960938 -321 -163.349609375 -325 -175.383789062 -326 c 1
 -179.126953125 -290 l 1
 -119.5234375 -275.814453125 -82.3984375 -237.158203125 -52.5302734375 -187 c 0
 20.087890625 -65.0498046875 89.0966796875 290.11328125 128.215820312 493 c 0
 153.860351562 626 208.443359375 654.627929688 280.479492188 701 c 0
 322.421875 728 360.330078125 754 417.330078125 754 c 3
 444.297851562 754 521.486328125 672.559570312 519.40625 613 c 0
EndSplineSet
Substitution2: "pcap-1" uni1E9E.pcap
Substitution2: "case-1" uni1E9E
Substitution2: "smcp-1" uni1E9E.smcp
MultipleSubs2: "case-2" S S
EndChar
StartChar: ae
Encoding: 230 230 5
Width: 558
VWidth: 1159
Flags: W
HStem: -10 51<339.259 434.931> -8 68<63.2681 144.856> 367 54<388.467 464.359>
VStem: 12 71.2207<71.8037 178.154> 242.717 71.6689<121.345 174.385> 478.894 60<311.103 352.071>
AnchorPoint: "Top" 372 465 basechar 0
AnchorPoint: "Bottom" 246 -15 basechar 0
LayerCount: 2
Fore
SplineSet
300.893554688 323 m 0x7c
 291.544921875 328 266.306640625 333 257.893554688 333 c 0
 229.7109375 333 198.836231447 317.319882615 177.893554688 303 c 0
 135.725585938 274.166992188 83.220703125 218.973632812 83.220703125 144.540039062 c 0
 83.220703125 99.8447265625 103.79296875 60 123.893554688 60 c 0
 169.490234375 60 172.893554688 81 242.716796875 139.09765625 c 1
 245.541992188 205.252929688 268.494650598 263.360668416 299.055664062 309.3671875 c 0
 302.763671875 314.94921875 304.12894002 321.26959439 300.893554688 323 c 0x7c
421.893554688 367 m 0
 380.530273438 367 333.86328125 283.416992188 316.893554688 190 c 1
 382.054292719 242.654618474 453.456894729 270.783970309 468 283 c 0
 472.468666301 286.753624772 478.893554688 289.925925926 478.893554688 300 c 0
 478.893554688 337.416015625 455.893554688 367 421.893554688 367 c 0
446.893554688 421 m 0
 499.893554688 421 538.893554688 377.040039062 538.893554688 327 c 0
 538.893554688 321.105034722 542.393554688 313.105034722 552.893554688 311 c 1
 547.893554688 284 l 1
 497.667564358 265.119300717 396.090919259 223.016393443 314.893554688 160 c 1
 314.6796875 155.43359375 314.385742188 149.081054688 314.385742188 144.0625 c 0
 314.385742188 79.556640625 344.826171875 41 384.893554688 41 c 0
 428.893554688 41 458.893554688 59 486.893554688 82 c 1
 501.893554688 65 l 1
 465.893554688 28 419.893554688 -10 351.893554688 -10 c 0xbc
 280.391601562 -10 247.903320312 39.81640625 243.06640625 106.103515625 c 1
 192.149414062 60.94921875 147.1171875 -8 84.8935546875 -8 c 0
 41.642578125 -8 12 40.3115234375 12 98.2998046875 c 0
 12 161.483398438 59.9999677427 229.402374619 97.8935546875 269 c 0
 126.602539062 299 160.414327492 320.517122143 181.893554688 333 c 0
 231.59375 361.883789062 293.650580267 376.817883945 368.893554688 390.045898438 c 0
 372.08203125 390.606445312 375.284324896 390.684367177 377.60546875 392.34375 c 0
 403.548828125 410.890625 428.364257812 421 446.893554688 421 c 0
EndSplineSet
Validated: 513
Substitution2: "pcap-1" ae.pcap
Substitution2: "case-1" AE
Substitution2: "smcp-1" ae.smcp
EndChar
StartChar: thorn
Encoding: 254 254 488
Width: 431
VWidth: 1159
Flags: HW
HStem: -348 32<-7.00967 40.3429> -342 34<136.4 213.647> -10 46<169.45 314.16> 369 43<182.835 308.466> 654 29<0.646581 30.1771>
VStem: 51.6466 82<-302.037 -18.4171> 64.6466 65<-197.411 7 69.4004 345.78 368 599.495> 390.647 69<130.435 275.055>
LayerCount: 2
Back
SplineSet
32.275390625 39 m 4
 53.22265625 137 75.498046875 231.744140625 77.5205078125 266 c 4
 78.9970703125 291 74.7666015625 302 69.6201171875 309 c 5
 59.640625 308 26.9765625 292 18.0185546875 290 c 5
 15.263671875 326 l 5
 80.802734375 348 97.8662109375 345 126.771484375 445 c 5
 193.5625 453.505859375 183.954101562 469.571289062 162.573242188 359 c 5
 200.216796875 376 252.671875 402 300.671875 402 c 7
 359.057617188 402 407.962890625 334.9296875 399.065429688 240 c 5
 385.747070312 112 271.569335938 25 176.98828125 5 c 5
 149.11328125 -1 111.155273438 -3 88.11328125 -1 c 5
 69.9365234375 -88 42.5751953125 -214 41.455078125 -256 c 5
 41.8740234375 -276 66.2216796875 -283.166992188 81.0419921875 -284 c 4
 98.83984375 -285 128.51171875 -287 145.125976562 -288 c 5
 139.837890625 -322 l 5
 102.81640625 -321 87.81640625 -321 59.81640625 -321 c 7
 32.81640625 -321 -43.9736328125 -331 -71.869140625 -336 c 5
 -71.5390625 -304 l 5
 -65.46875 -300 -60.431640625 -296.4296875 -55.8330078125 -290 c 4
 -49.396484375 -281 -42.59765625 -260.474609375 -35.005859375 -234 c 4
 -20.0947265625 -182 8.50390625 -72.21484375 32.275390625 39 c 4
247.635742188 356 m 7
 198.635742188 356 169.096679688 334 152.536132812 313 c 5
 97.7939453125 62 l 5
 119.045898438 50 144.234375 41 178.234375 41 c 7
 258.234375 41 322.663085938 116 330.568359375 216 c 5
 340.020507812 283.407226562 309.858398438 356 247.635742188 356 c 7
EndSplineSet
Fore
SplineSet
153.650390625 315 m 1x3b
 132.811523438 222.055664062 120.421875 169.014648438 100.650390625 76 c 0
 99.375 70 100.569335938 61.3798828125 107.611328125 57 c 0
 123.76171875 46.953125 148.438476562 41 174.650390625 41 c 3
 243.416992188 41 306.725585938 96.453125 325.23046875 180 c 0
 343.596679688 262.924804688 322.26953125 356 242.514648438 356 c 3
 208.174804688 356 170.650390625 338 153.650390625 315 c 1x3b
23.5595703125 31 m 0
 66.3916015625 217.790039062 98.9794921875 367 129.374023438 510 c 0
 142.126953125 570 149.6953125 607.005859375 150.243164062 627 c 0
 150.982421875 654 144.407226562 656 126.407226562 656 c 3
 116.407226562 656 104.982421875 654 95.982421875 654 c 1
 97.146484375 683 l 1
 135.633789062 690 197.5859375 718 256.30078125 759 c 1
 273.899414062 743 l 1
 258.373046875 717 244.458984375 686.872070312 238.745117188 667 c 0
 218.537109375 596.725585938 186.9140625 477.879882812 161.301757812 358 c 1xbb
 192.280273438 372 245.990234375 402 297.654296875 402 c 3
 371.255859375 402 413.393554688 309.456054688 396.370117188 223 c 0
 369.650390625 90 243.911132812 -1 113.650390625 -1 c 3
 103.813476562 -1 94.232421875 -0.05859375 85.4580078125 1 c 1
 68.3349609375 -79.3095703125 32.4716796875 -247.766601562 29.603515625 -284 c 0
 28.416015625 -299 46.541015625 -303.315429688 57.3525390625 -304 c 0
 73.140625 -305 91.71484375 -307 105.502929688 -308 c 1
 97.275390625 -342 l 1x7d
 58.48828125 -341 27.9130859375 -339 -14.0869140625 -339 c 3
 -44.0869140625 -339 -93.1494140625 -344 -124 -348 c 1
 -120.198242188 -316 l 1
 -108.985351562 -315 -100.395507812 -313.783203125 -89.134765625 -311 c 0
 -64.859375 -305 -57.1572265625 -293.811523438 -48.5703125 -266 c 0xbd
 -32.5166015625 -214 -3.009765625 -84.8671875 23.5595703125 31 c 0
EndSplineSet
Substitution2: "pcap-1" thorn.pcap
Substitution2: "case-1" Thorn
Substitution2: "smcp-1" thorn.smcp
EndChar
StartChar: Iogonek
Encoding: 302 302 1362
Width: 391
Flags: HW
HStem: -346.889 73.7197<190.804 257.852> -10 40<42.125 145.789> 652 43<47.3488 146.801>
VStem: 99.7656 71.875<-253.641 -109.865> 157 90<41.0295 293.416> 163.915 75.6029<80.3904 534.592>
LayerCount: 2
Fore
SplineSet
214.963867188 3.734375 m 5xf0
 147.557408219 -46.17578125 111.038085938 -131.358398438 111.038085938 -195.689453125 c 7
 111.038085938 -237.126953125 131.382696792 -273.168945312 153.763671875 -273.168945312 c 7
 176.472998327 -273.168945312 203.738146172 -264.435546875 231.71484375 -245.168945312 c 13
 231.71484375 -245.168945312 239.675383161 -255.497070312 241.602539062 -263.569335938 c 5
 210.590305623 -311.305664062 150.485633011 -346.888671875 102.823242188 -346.888671875 c 7
 65.6875597895 -346.888671875 30.4853515625 -298.078125 30.4853515625 -236.513671875 c 7
 30.4853515625 -152.803710938 66.1013258292 -47.5556640625 215.219726562 36.453125 c 5
 214.963867188 3.734375 l 5xf0
EndSplineSet
Refer: 1280 73 N 1 0 0 1 0 0 3
EndChar
StartChar: iogonek
Encoding: 303 303 1363
Width: 281
Flags: HW
HStem: -326 60.1279<121.017 198.674> -7 33<33 87 184 254> 572 102<98.589 183.411>
VStem: 36.5625 69.209<-252.6 -120.517> 89 104<581.438 664.599> 97 71<57 330>
LayerCount: 2
Fore
SplineSet
163.765625 12.9248046875 m 5xe4
 71.0998407734 -74.3896484375 57.1279296875 -115.919921875 57.1279296875 -196 c 7
 57.1279296875 -239.865234375 75.9071483334 -265.872070312 99.6708984375 -265.872070312 c 7
 121.546086031 -265.872070312 147.811019334 -255.18359375 174.762695312 -231.599609375 c 5
 174.762695312 -231.599609375 182.722534958 -241.926757812 184.650390625 -250 c 5
 153.821028108 -302.788085938 101.87682463 -326 54.49609375 -326 c 7
 15.9295525406 -326 -18.2099609375 -288.154296875 -18.2099609375 -224.834960938 c 7xf0
 -18.2099609375 -167.208984375 26.2986563075 -55.7324218748 153.576171875 34.1435546875 c 5
 163.765625 12.9248046875 l 5xe4
EndSplineSet
Refer: 300 105 N 1 0 0 1 0 0 3
EndChar
StartChar: dotlessi
Encoding: 305 305 213
Width: 277
VWidth: 1159
Flags: HMW
HStem: 354 75<153 224>
VStem: 72 202
AnchorPoint: "Top" 218 465 basechar 0
LayerCount: 2
Fore
SplineSet
185 197 m 4
 173 153.317382812 162 91.349609375 167 69 c 5
 169 60 176 59 188 63 c 5
 202 67.142578125 234 97.1787109375 254 121 c 5
 274 106 l 5
 247 66.025390625 170 -11 133 -11 c 7
 99.4541015625 -11 85 20.158203125 85 56 c 7
 85 100.1875 110.362304688 147.377929688 124 194 c 4
 129.818359375 212.58203125 150.181640625 274.830078125 156 325 c 4
 157 335 156 343 152 344 c 5
 141.166992188 344 98.818359375 301.576171875 87 288 c 5
 72 305 l 5
 97.3154296875 342.451171875 174.237304688 413 220 413 c 7
 250 413 253 392 247 365 c 4
 246 358 239 347 237 341 c 4
 222.142578125 303.200195312 189.235351562 212.41796875 185 197 c 4
EndSplineSet
Substitution2: "case-1" I
Substitution2: "pcap-1" i.pcap
Substitution2: "smcp-1" i.smcp
EndChar
StartChar: Eng
Encoding: 330 330 1266
Width: 836
Flags: HW
HStem: -241 62<483.653 578.44> -10 44<23.3182 86.8179 186.794 270.067> 655 39<771.217 833> 663 38<601.079 678.507>
VStem: 97 55<66.5393 314.07> 105 56<351.62 550> 676.266 70.7344<-86.2532 70.0219>
AnchorPoint: "Top" 485.434 699 basechar 0
AnchorPoint: "Bottom" 363.597 -15 basechar 0
LayerCount: 2
Back
SplineSet
125.782226562 691 m 5x68
 167.907226562 687 222.834960938 683 267.130859375 683 c 4
 281.130859375 683 283.223632812 679.5859375 287.611328125 672 c 4
 389.502929688 495.836914062 498.623046875 327.50390625 616.653320312 167 c 5
 641.487097564 262.826643101 663.519381189 358.188256122 684.243086939 456 c 4
 690.059473763 483.452181827 695.772781325 511.097365298 701.416015625 539 c 4
 726.090820312 661 672.571289062 650 619.265625 657 c 5
 632.607421875 695 l 5
 690.147441105 686.236933746 739.497696193 682.958962504 787.113353601 682.958962504 c 4
 815.569151594 682.958962504 843.405450416 684.129666519 872 686 c 5
 868.614257812 649 l 5
 806.014648438 643 779.951171875 645.13671875 763.622070312 603 c 4
 717.666015625 438.103515625 676.63671875 261.4375 642.188476562 86 c 4
 637.280273438 61 633.938476562 23 634.942382812 0 c 5
 598.421875 -11 l 5
 592.37890625 32 573.48046875 72.7509765625 553.359375 105 c 4
 457.291015625 258.977539062 358.82421875 409.975585938 254.629882812 557 c 5
 167.001953125 159 l 6
 143.869140625 53.9306640625 176.934570312 46 258.37109375 36 c 5
 240.37890625 -10 l 5x98
 205.898858133 2.97918471983 171.97670935 7.19358088651 139.441432909 7.19358088651 c 4
 94.2681635945 7.19358088651 51.7684579464 -0.930783646413 14.1611328125 -5 c 5
 18.2392578125 39 l 5
 71.2392578125 39 91.216796875 50.1591796875 103.665039062 98 c 4
 136.231478623 223.160248453 163.061322795 354.602423789 189.863224216 485.999982803 c 4
 195.579129629 514.022472961 201.293764152 542.042933883 207.0625 570 c 4
 213.666015625 602 184.24609375 648 115.702148438 647 c 5
 125.782226562 691 l 5x68
EndSplineSet
Fore
SplineSet
463.938476562 -189 m 0xe6
 419.200195312 -216 376.885742188 -241 317.885742188 -241 c 3
 285.885742188 -241 238.223632812 -230 217.900390625 -208 c 1
 225.491210938 -178.046875 224.266601562 -178.046875 292.9921875 -137 c 1
 328.166015625 -155 346.413085938 -179 392.064453125 -179 c 3
 478.680664062 -179 540.310406879 -77.7305649932 549.513671875 -13.4755859375 c 0
 559.341794697 55.1419999186 543.724822333 117.691769402 519.676757812 156.090820312 c 0
 435.312466729 290.800568181 348.266738831 421.606526864 257.018554688 550 c 1xe6
 163.845703125 154 l 2
 140.045561917 52.8454709683 173.744844436 44.6748046875 255.551757812 35 c 1
 237.7734375 -11 l 1
 202.556113256 -2.55078125 168.32675766 0.193359375 135.73828125 0.193359375 c 0
 90.9265605693 0.193359375 48.953351996 -4.59968665423 11.986328125 -7 c 1
 16.3388671875 37 l 1
 71.1358989195 37 88.935527568 47.6260230809 101.879882812 93 c 0xea
 141.285252939 246.783203125 175.415543928 409.642927879 205.481445312 571 c 0
 212.003046967 606 182.767125436 646 115.848632812 648 c 1
 127.201171875 692 l 1
 168.278404145 688 223.340717414 684 267.500976562 684 c 0
 282.500976562 684 283.754149952 680.753859875 288.162109375 673 c 0
 375.264512694 521.438769686 465.292558444 370.323805063 565.560546875 236.227539062 c 0
 582.483514625 213.347683113 602.117517261 186.94921875 615.845703125 167 c 1
 648.9382391 288.435079823 676.257748287 409.775103539 700.955078125 538 c 0
 724.453433931 660 673.240437491 649 619.037109375 656 c 1
 632.114257812 694 l 1xd6
 685.444716638 686.806640625 730.881214778 684.3984375 774.135742188 684.3984375 c 0
 807.072599162 684.3984375 839.037669971 685.483398438 871.625976562 687 c 1
 867.336914062 648 l 1
 805.659618764 642 776.735143188 645.079069336 764.55859375 602 c 0
 718.039693088 437.422099068 679.994019262 261.536819153 640.391601562 86 c 0
 635.202629747 63 632.277544267 43.1174056263 623.112304688 0 c 0
 604.631835937 -86.9404296875 537.802438156 -144.422360732 463.938476562 -189 c 0xe6
EndSplineSet
Position2: "cpsp-1" dx=0 dy=0 dh=50 dv=111
Substitution2: "c2pc-1" eng.pcap
Substitution2: "c2sc-1" eng.smcp
EndChar
StartChar: OE
Encoding: 338 338 1309
Width: 1096
VWidth: 1159
Flags: HW
HStem: -7 49<364.659 546.55> 334 36<642.131 910.524> 650 44<326.527 528.66>
VStem: 65.1309 93<266.365 448.041> 561.131 81<87.3014 334 370 605.156> 934.131 36<250 306.348> 975.131 30<539 621.889> 1035.13 28<152.034 171.75>
LayerCount: 2
Fore
SplineSet
478.276367188 650 m 3
 337.276367188 650 198.942382812 535.515625 165.249023438 377 c 0
 128.205078125 202.72265625 237.041992188 42 407.041992188 42 c 3
 459.7421875 42 501.427734375 62.630859375 507.669921875 92 c 1
 526.479492188 161.672851562 595.848632812 500.83203125 608.759765625 577 c 0
 619.588867188 641.26171875 541.918945312 650 478.276367188 650 c 3
377.626953125 -7 m 3
 163.626953125 -7 23.0751953125 145.659179688 63.5341796875 336 c 0
 104.159179688 527.127929688 314.62890625 694 524.62890625 694 c 3
 610.119140625 694 562.498046875 684.96875 797.665039062 684.96875 c 3
 939.572265625 684.96875 1068.08105469 689.186523438 1085.41601562 693 c 1
 1111.46484375 665 1085.953125 672 1046.68261719 539 c 1
 1016.04492188 536 l 1
 1012.69726562 572 1041.6875 619 1008.02539062 630 c 0
 948.8515625 648 830.9140625 653 747.7890625 643 c 0
 729.36328125 641 713.387695312 627 708.561523438 609 c 0
 687.125976562 526.970703125 664.905273438 445.953125 647.760742188 370 c 1
 712.185546875 372 872.185546875 372 886.3984375 373 c 0
 924.4609375 378 934.987304688 404 960.33984375 448 c 1
 992.852539062 441 l 1
 962.249023438 377 952.857421875 314 950.25390625 250 c 1
 912.340820312 241 l 1
 907.432617188 312 917.1953125 325 877.045898438 329 c 0
 834.108398438 334 732.896484375 333 640.108398438 334 c 1
 618.326171875 236.227539062 603.47265625 147.526367188 601.33203125 81 c 0
 601.71875 64 607.7421875 50 624.530273438 49 c 0
 715.6171875 40 784.916992188 32 866.443359375 58 c 0
 929.694335938 78 944.583007812 101 999.737304688 177 c 1
 1026.24902344 170 l 1
 996.220703125 104 976.29296875 62 951.115234375 0 c 1
 841.299804688 -0.5458984375 727.275390625 3.0703125 623.6953125 3.0703125 c 3
 443.69921875 3.0703125 444.6484375 -7 377.626953125 -7 c 3
EndSplineSet
Position2: "cpsp-1" dx=0 dy=0 dh=50 dv=111
Substitution2: "c2pc-1" oe.pcap
Substitution2: "c2sc-1" oe.smcp
EndChar
StartChar: uni018F
Encoding: 399 399 539
Width: 677
VWidth: 1159
Flags: W
HStem: -24.5 69.25<264.739 399.5> 645.75 66.5<218.254 394.047>
VStem: 553 83.25<318.612 483.505>
LayerCount: 2
Fore
SplineSet
326.5 -24.5 m 3
 225 -24.5 118.872242445 54.5066181322 83.25 140 c 0
 74.5 161 48.25 175 29 176.75 c 1
 29 218.75 l 1
 551.25 318.5 l 1
 551.25 331.526315789 553 346.723684211 553 359.75 c 3
 553 563.525 424.453488372 645.75 279.25 645.75 c 3
 193.289473684 645.75 121.960526316 605.783333334 70.75 564 c 1
 43 595.25 l 1
 116.5 652.029411765 221.5 712.25 342.25 712.25 c 3
 529.5 712.25 636.25 570.057894737 636.25 386.75 c 3
 636.25 80.5 386 -24.5 326.5 -24.5 c 3
343 44.75 m 3
 473.076470588 44.75 534.114705882 157.372881356 547.75 278.25 c 1
 415.398106353 253.269238068 285.181111171 226.148189916 151.5 202.5 c 1
 171.872340426 128.49382716 257.436170213 44.75 343 44.75 c 3
EndSplineSet
Validated: 1
Position2: "cpsp-1" dx=0 dy=0 dh=50 dv=100
EndChar
StartChar: Uhorn
Encoding: 431 431 1329
Width: 918
VWidth: 0
UnlinkRmOvrlpSave: 1
Flags: W
HStem: -10 54<307.466 561.379> 534.768 21.6<733.037 777.505> 648 40<25 104.17 214.669 299>
VStem: 109 87<142.83 549.817> 114 90<338.621 635.527> 674 55<148.927 613.406> 675 61<265.699 641.62> 849.896 75.2918<619.224 698.036>
AnchorPoint: "Top" 441 699 basechar 0
AnchorPoint: "Bottom" 420 -15 basechar 0
LayerCount: 2
Fore
SplineSet
25 688 m 1xe9
 85 681 218 681 299 688 c 1
 303 652 l 1
 235 646 205 644 204 589 c 0xe9
 204 582 196 287 196 255 c 0
 196 196 208 145 240 109 c 0
 278 67 345 44 453 44 c 3
 479 44 562 45 619 100 c 0
 656 136 669 181 674 257 c 0xf5
 680 352 680 508 675 604 c 0
 673 650 645 647 579 648 c 1
 581 688 l 1
 615.667 681 713.668 682 735 686 c 1
 738.439 641.291 736.07 667.707 736 614 c 0xe3
 735 603 734 485 729 255 c 0
 728 178 704 117 662 74 c 0
 608 17 523 -10 412 -10 c 3
 299 -10 220 16 172 62 c 0
 128 104 109 163 109 236 c 0xf5
 109 266 114 577 114 592 c 0
 114 636 102 639 20 648 c 1
 25 688 l 1xe9
EndSplineSet
Refer: 1333 58038 N 1 0 0 1 871.5 -29 2
Position2: "cpsp-1" dx=0 dy=0 dh=50 dv=100
Substitution2: "c2pc-1" uhorn.pcap
Substitution2: "c2sc-1" uhorn.smcp
EndChar
StartChar: uni0222
Encoding: 546 546 599
Width: 618
UnlinkRmOvrlpSave: 1
Flags: HW
HStem: -7 44.3418<241.343 409.364> 638.404 35.5957<224.265 272.714> 708.332 36.3232<313 356.937>
VStem: 36 95.0576<155.782 298.227> 96.0576 91.3711<525.269 603.137> 424.314 85.6855<532.326 646.328> 483.942 98.0576<136.395 294.022>
LayerCount: 2
Fore
SplineSet
335.071289062 638.404296875 m 1xea
 292.419921875 638.404296875 237.296875 603.439453125 231.141601562 574.482421875 c 0
 218.053710938 512.909179688 283.270507812 488.194335938 352.904296875 476 c 0
 484.282226562 452.993164062 578.072265625 350.3515625 553.8125 236.216796875 c 0xea
 522.737304688 90.01953125 383.426757812 -7 225.829101562 -7 c 3
 86.05859375 -7 -27.6005859375 69.6123046875 3.1142578125 214.11328125 c 0
 27.2890625 327.845703125 157.659179688 415.171875 267.637695312 442.397460938 c 1
 286.740234375 454.685546875 304.739257812 462.6796875 321.080078125 466 c 1
 398.900390625 471.92578125 457.993164062 527.274414062 469.006835938 579.088867188 c 0
 478.18359375 622.260742188 459.354492188 698.984375 377.1640625 708.33203125 c 1
 392.884765625 744.655273438 l 1
 485.16796875 741.612304688 580.493164062 700.469726562 558.92578125 599.005859375 c 0
 545.38671875 535.309570312 476.557617188 476.415039062 391.6171875 451.709960938 c 1
 371.263671875 438.538085938 350.629882812 429.381835938 330.228515625 425 c 1
 235.53125 415.849609375 124.264648438 336.8671875 105.921875 250.57421875 c 0xf4
 83.4931640625 145.053710938 139.044921875 37.341796875 253.854492188 37.341796875 c 3
 396.993164062 37.341796875 439.177734375 158.228515625 450.20703125 210.11328125 c 0
 469.518554688 300.96875 415.765625 380.7109375 305.450195312 403.515625 c 0
 199.466796875 425.424804688 118.884765625 476.221679688 134.265625 548.581054688 c 0
 148.91015625 617.477539062 261.232421875 674 337.580078125 674 c 1
 335.071289062 638.404296875 l 1xea
EndSplineSet
Substitution2: "c2pc-1" uni0223.pcap
Substitution2: "c2sc-1" uni0223.smcp
EndChar
StartChar: uni0223
Encoding: 547 547 600
Width: 505
UnlinkRmOvrlpSave: 1
Flags: HW
HStem: -10 38.3418<201.374 335.148>
VStem: 32 76.0576<128.7 289.158> 72.0576 56.3711<501.914 617.708> 374.314 59.6855<489.485 623.087> 393.942 79.0576<108.882 274.954>
LayerCount: 2
Fore
SplineSet
209.600585938 632.404296875 m 1xa8
 200.3828125 620.896484375 189.336914062 604.55078125 184.43359375 581.482421875 c 0
 164.169921875 486.147460938 222.559570312 443.466796875 290.717773438 429 c 0
 396.280273438 406.59375 474.553710938 325.307617188 449.665039062 208.216796875 c 0xa8
 421.784179688 77.046875 309.079101562 -10 183.995117188 -10 c 3
 69.099609375 -10 -22.318359375 62.4541015625 6.7294921875 199.11328125 c 0
 29.3681640625 305.616210938 129.125 385.955078125 214.015625 412.166992188 c 1
 230.771484375 421.47265625 246.224609375 425.19921875 260.594726562 427 c 1
 346.36328125 432.524414062 411.657226562 493.68359375 421.30859375 539.088867188 c 0
 430.193359375 580.888671875 430.622070312 610.212890625 425.311523438 634.676757812 c 1
 456.71875 646 l 1
 475.6171875 635.650390625 493.841796875 599.532226562 485.227539062 559.005859375 c 0
 470.737304688 490.8359375 398.59375 429.026367188 306.296875 404.080078125 c 1
 289.782226562 396.063476562 273.288085938 391.955078125 256.16796875 388 c 1
 188.35546875 379.478515625 107.618164062 315.930664062 88.412109375 225.57421875 c 0xd0
 67.666015625 127.970703125 110.728515625 28.341796875 204.74609375 28.341796875 c 3
 319.189453125 28.341796875 355.837890625 138.733398438 365.909179688 186.11328125 c 0
 386.01953125 280.7265625 339.1640625 369.016601562 235.853515625 387.515625 c 0
 153.075195312 402.337890625 103.672851562 466.737304688 120.431640625 545.581054688 c 0
 131.806640625 599.095703125 165.548828125 628.612304688 186.794921875 643 c 1
 209.600585938 632.404296875 l 1xa8
EndSplineSet
Substitution2: "pcap-1" uni0223.pcap
Substitution2: "smcp-1" uni0223.smcp
EndChar
StartChar: uni0237
Encoding: 567 567 602
Width: 237
VWidth: 1159
Flags: HMW
HStem: 353 75<145 215>
AnchorPoint: "Top" 211 465 basechar 0
LayerCount: 2
Fore
SplineSet
-100 -311 m 1
 -59 -272 -30 -236 -3 -192 c 0
 14 -167 43 -88 53 -62 c 0
 63 -37 87 63 109 153 c 0
 128.424804688 240.466796875 136.75 267.799804688 146 317 c 0
 148 327 146 336 142 337 c 1
 131.4921875 337 89.462890625 299.12109375 78 287 c 1
 64 304 l 1
 89.4833984375 341.451171875 165.93359375 412 212 412 c 3
 242 412 243 391 237 364 c 0
 236 357 227 345 225 339 c 0
 209.979492188 301.2265625 188.387695312 232.874023438 179 196 c 0
 159 116 138 27 128 -25 c 0
 117 -88 99 -163 88 -186 c 0
 70 -228 35 -274 12 -289 c 0
 -2 -299 -64 -315 -85 -332 c 1
 -100 -311 l 1
EndSplineSet
EndChar
StartChar: uni0241
Encoding: 577 577 607
Width: 514
Flags: HW
HStem: -7 44<277.94 382> 639 62<149.73 296.356>
VStem: 171 99<53.6426 207.671> 389 89<379.657 533.518>
LayerCount: 2
Fore
SplineSet
389 37 m 1
 382 -7 l 1
 296 5 153 3.2001953125 72 -11 c 1
 64 37 l 1
 168.625976562 50.2705078125 171 49.6865234375 171 123 c 3
 171 231.00390625 224.916015625 232.244140625 297 282.352539062 c 0
 332.760742188 307.211914062 389 369.955078125 389 433 c 3
 389 554.989257812 314.428710938 639 215 639 c 3
 145.62109375 639 86.916015625 596 46 553 c 1
 14 587 l 1
 66.666015625 641 158.059570312 701 251 701 c 3
 307.176757812 701 478 679.456054688 478 470 c 3
 478 332.310546875 352.649414062 278.134765625 312.365234375 244 c 0
 285.4453125 221.189453125 270 188.342773438 270 119 c 3
 270 40.8564453125 265.366210938 47.77734375 389 37 c 1
EndSplineSet
EndChar
StartChar: uni0242
Encoding: 578 578 608
Width: 348
Flags: W
HStem: -5 33<42.6364 94.049 181.297 262.909> 368 51<64.5138 196.675>
VStem: 103 69<38.7685 125.468> 251 72<209.297 315.51>
LayerCount: 2
Fore
SplineSet
172 66 m 3
 172 45.517578125 178.987154447 39.5341796875 219 34 c 0
 235 30 253 29 267 28 c 1
 262 -6 l 1
 220.192166759 -0.5458984375 173.023731333 4 128 4 c 3
 103.943359375 4 67.056640625 -1 43 -5 c 1
 41 28 l 1
 52 29 67.154296875 30.287109375 78 33 c 0
 93.5615234375 36.892578125 103 51.724609375 103 70 c 3
 103 128.288085938 137.194335938 144.490234375 176 156 c 0
 215.970703125 166.338867188 251 193.333984375 251 252 c 3
 251 320.69280599 192.285714286 368 114 368 c 3
 76.6421052632 368 45.0315789474 352 23 336 c 1
 7 362 l 1
 40.1111111111 389 97.568627451 419 156 419 c 3
 197.328778039 419 323 400.015140086 323 278 c 3
 323 202.75 250 149.125976562 214 138 c 0
 183.868164062 126.14453125 172 105.94140625 172 66 c 3
EndSplineSet
Validated: 1
EndChar
StartChar: uni025B
Encoding: 603 603 621
Width: 331
Flags: HW
HStem: -15 51<160.578 291.814> 189 29<204.276 291.743> 367 50<142.134 253.268>
VStem: 44.0093 81<68.003 143.972> 63.0093 66<264.248 348.557>
AnchorPoint: "Bottom" 140.655 -15 basechar 0
AnchorPoint: "Ogonek" 221.865 26 basechar 0
AnchorPoint: "Top" 242.697 465 basechar 0
LayerCount: 2
Fore
SplineSet
301.666015625 321 m 1xe8
 277.415324138 345 243.519187012 369 218.293945312 369 c 3
 181.103901086 369 159.929191614 352.417689464 155.791992188 327 c 0xe8
 147.891078243 277.550458716 184.875446224 223.055045872 262.623046875 217 c 1
 261.278908119 208.034482759 259.301615767 199.068965517 257.458984375 191 c 1
 154.563930799 191 114.51414032 158.084069141 105.879882812 111 c 0
 98.40625 69.9333333333 135.811523438 34 192.9375 34 c 3
 230.788085938 34 266.116210938 50 291.739257812 66 c 1
 302.212890625 42 l 1
 263.196289062 15 199.006835938 -15 140.09765625 -15 c 3
 56.427734375 -15 7.61556845744 29.1879470184 19.5654296875 86 c 0xf0
 27.0576375838 121.619469027 77.0768291564 191.840707965 161.584960938 201 c 1
 95.4435011031 222.482352941 75.056739156 258.611785119 80.65234375 284 c 0
 96.806640625 360 189.921875 417 278.921875 417 c 3
 314.40234375 417 347.48046875 397 366.782226562 374 c 1
 360.432993476 348.894736842 359.891086754 350.754385965 301.666015625 321 c 1xe8
EndSplineSet
Substitution2: "case-1" uni0190
EndChar
StartChar: uni0294
Encoding: 660 660 635
Width: 262
Flags: HW
HStem: -7 34<9.6 68.3405 171.687 242.029> 688 21G<-1.30769 22.5> 720 51<54.1954 187.827>
VStem: 91 69<51.706 348.899> 274 72<479.942 624.937>
LayerCount: 2
Fore
SplineSet
160 283 m 3
 160 206.666666667 161.065849207 88.5894040254 166 54 c 0
 168.183759552 39.025648788 187.153477109 35.7116307227 198 33 c 0
 214 29 232 28 246 27 c 1
 241 -7 l 1
 202 -1 158 4 116 4 c 3
 86 4 40 -1 10 -5 c 1
 8 28 l 1
 19 29 34.1817100136 30.1778373948 45 33 c 0
 68 39 80.1108857894 48.0777325584 83 76 c 0
 88 131.414141414 91 217.732323232 91 287 c 3
 91 376.025948344 160.105936136 379.848716935 222 418.352539062 c 0
 243.999999408 432.038569856 274 461.772250265 274 530 c 3
 274 642.514332634 202 720 106 720 c 3
 67 720 34 704 11 688 c 1
 -5 714 l 1
 29 741 88 771 148 771 c 3
 197 771 346 751.974146076 346 567 c 3
 346 466.487275562 271.557824116 407.238980513 223.365234375 380 c 0
 184.902691122 358.260548524 160 336.809455544 160 283 c 3
EndSplineSet
EndChar
StartChar: gravecomb
Encoding: 768 768 284
Width: 0
VWidth: 1159
Flags: W
HStem: 430.175 225.517
VStem: -103.898 25.0635<445.075 460.102>
AnchorPoint: "Top" -111 394 mark 0
AnchorPoint: "TopMark" -62.1523 625 basemark 0
AnchorPoint: "TopMark" -108.852 410 mark 0
LayerCount: 2
Fore
SplineSet
-78.8349609375 450.848632812 m 13
 -103.8984375 430.174804688 l 17
 -132.85546875 511.681640625 -169.502929688 580.192382812 -205.521484375 620.84375 c 1
 -182.802414356 639.109375 -147.061523438 655.69140625 -147.061523438 655.69140625 c 21
 -120.6484375 604.16796875 -90.9882812499 511.338867188 -78.8349609375 450.848632812 c 13
EndSplineSet
EndChar
StartChar: uni0302
Encoding: 770 770 642
Width: 0
VWidth: 1159
Flags: W
HStem: 422.6 184.801
VStem: -217.618 225.5
AnchorPoint: "Top" -115 389 mark 0
AnchorPoint: "TopMark" -72.7295 587 basemark 0
AnchorPoint: "TopMark" -125.878 384 mark 0
LayerCount: 2
Fore
SplineSet
7.8818359375 435.799804688 m 1
 -14.7236328125 422.599609375 l 1
 -85.146484375 528.581054688 l 1
 -200.624023438 422.599609375 l 1
 -217.618164062 435.799804688 l 1
 -84.3427734375 607.400390625 l 1
 -52.443359375 607.400390625 l 1
 7.8818359375 435.799804688 l 1
EndSplineSet
EndChar
StartChar: uni0306
Encoding: 774 774 645
Width: 0
VWidth: 1159
Flags: W
HStem: 436.274 54.7188<-158.176 -28.895>
VStem: -214.196 31.0049<523.032 545.649>
AnchorPoint: "Top" -124 389 mark 0
AnchorPoint: "TopMark" -119.327 396 mark 0
AnchorPoint: "TopMark" -78.0068 541 basemark 0
LayerCount: 2
Fore
SplineSet
-214.196289062 545.649414062 m 1
 -183.19140625 559.41015625 l 1
 -177.947265625 513.846679688 -138.237304688 490.993164062 -93.5234375 490.993164062 c 0
 -48.90234375 490.993164062 0.7001953125 513.750976562 26.00390625 559.41015625 c 1
 51.16015625 545.649414062 l 1
 16.35546875 472.732421875 -48.4306640625 436.274414062 -105.29296875 436.274414062 c 0
 -162.155273438 436.274414062 -211.092773438 472.732421875 -214.196289062 545.649414062 c 1
EndSplineSet
Validated: 1
EndChar
StartChar: uni030D
Encoding: 781 781 651
Width: 0
VWidth: 1159
Flags: W
HStem: 434 176.4<-201.452 -194.548>
VStem: -238.947 81.8945
AnchorPoint: "TopMark" -227.324 396 mark 0
AnchorPoint: "TopMark" -181.751 601 basemark 0
AnchorPoint: "Top" -225.962 393 mark 0
LayerCount: 2
Fore
SplineSet
-201.452148438 610.400390625 m 1
 -157.052734375 610.400390625 l 1
 -194.547851562 434 l 1
 -238.947265625 434 l 1
 -201.452148438 610.400390625 l 1
EndSplineSet
EndChar
StartChar: uni031B
Encoding: 795 795 661
Width: 0
VWidth: 1159
Flags: HW
HStem: 330 18<-84.5 -47.4434>
VStem: 12.8818 62.7432<400.38 466.056>
AnchorPoint: "Horn" -73.5 341.8 mark 0
LayerCount: 2
Fore
SplineSet
12.8818359375 414.884765625 m 3
 12.8818359375 428.595703125 2.005859375 439.401367188 -15.744140625 450.72265625 c 1
 -6.4501953125 476.256835938 12.16015625 492.322265625 32.20703125 492.322265625 c 3
 58.421875 492.322265625 75.625 468.857421875 75.625 444.775390625 c 3
 75.625 409.406273002 20.8892596905 360.057416703 -35.9999982997 339.535617913 c 0
 -52.408052732 333.616700995 -68.9952510869 330.095810434 -84.5 330 c 1
 -85 348 l 1
 -73.0221460754 348.402075788 -60.2404842435 351.305710433 -48.0000010675 355.944389198 c 0
 -15.6716047069 368.195625001 12.8818359375 392.549545658 12.8818359375 414.884765625 c 3
EndSplineSet
EndChar
StartChar: uni0335
Encoding: 821 821 676
Width: 0
VWidth: 1159
Flags: W
HStem: 508.5 38<-325.5 -27.5>
VStem: -325.5 298<508.5 546.5>
LayerCount: 2
Fore
SplineSet
-325.5 546.5 m 25
 -27.5 546.5 l 25
 -27.5 508.5 l 25
 -325.5 508.5 l 25
 -325.5 546.5 l 25
EndSplineSet
EndChar
StartChar: uni0357
Encoding: 855 855 682
Width: 0
Flags: W
HStem: 425 32<-234.353 -192.322> 545 32<-208.846 -179.179>
VStem: -241.154 99.3672
AnchorPoint: "TopMark" -225.294 382 mark 0
AnchorPoint: "TopMark" -185.034 562 basemark 0
AnchorPoint: "Top" -220.531 395 mark 0
LayerCount: 2
Fore
SplineSet
-228.352539062 457 m 1
 -205.352539062 457 -179.313476562 476 -173.787109375 502 c 0
 -168.686523438 526 -185.647460938 545 -209.647460938 545 c 1
 -215.647460938 545 l 1
 -208.845703125 577 l 1
 -202.845703125 577 l 1
 -160.845703125 577 -132.860351562 544 -141.787109375 502 c 0
 -151.352539062 457 -195.154296875 425 -235.154296875 425 c 1
 -241.154296875 425 l 1
 -234.352539062 457 l 1
 -228.352539062 457 l 1
EndSplineSet
Validated: 33
EndChar
StartChar: Gamma
Encoding: 915 915 1276
Width: 572
VWidth: 1159
Flags: HW
HStem: -14 56<237.021 329.116> -9 35<46.9404 103.365> 654 31<176.455 224.231>
VStem: 625.721 31.6377<534 592.245>
AnchorPoint: "Top" 428.432 699 basechar 0
AnchorPoint: "Bottom" 138.667 -15 basechar 0
LayerCount: 2
Fore
SplineSet
283.877929688 -14 m 5xb0
 184.404296875 12 136.404296875 12 3.9404296875 -9 c 5
 1.3798828125 26 l 5x70
 56.505859375 36 84.2685546875 49 90.220703125 77 c 5
 110.586914062 154 189.295898438 529 201.150390625 613 c 4
 205.889648438 640 191.889648438 640 121.865234375 654 c 5
 133.455078125 685 l 5
 330.329101562 675 626.455078125 685 636.643554688 700 c 5
 666.391601562 680 647.62890625 667 614.358398438 534 c 5
 582.720703125 531 l 5
 579.373046875 567 593.36328125 614 559.701171875 625 c 4
 500.52734375 643 401.227539062 651 318.102539062 641 c 4
 299.676757812 639 293.063476562 622 288.237304688 604 c 4
 263.272460938 508.69140625 259.284179688 486.603515625 226.421875 332 c 4
 217.600585938 290.497070312 188.099609375 147 186.0703125 81 c 4
 186.45703125 64 189.78125 42 301.78125 42 c 5
 283.877929688 -14 l 5xb0
EndSplineSet
Position2: "cpsp-1" dx=0 dy=0 dh=50 dv=100
Substitution2: "c2pc-1" gamma.pcap
Substitution2: "c2sc-1" gamma.smcp
EndChar
StartChar: Delta
Encoding: 916 916 1261
AltUni2: 002206.ffffffff.0
Width: 694
VWidth: 1159
Flags: HW
HStem: -5 21G<21.6201 41.9854>
VStem: 564.088 79.373<400.315 569.8> 579.38 86.7988<60.4402 307.77> 601.34 43<652.816 712>
AnchorPoint: "Bottom" 291.55 -15 basechar 0
AnchorPoint: "Top" 581.778 699 basechar 0
LayerCount: 2
Fore
SplineSet
425.139648438 59.2998046875 m 5xc0
 503.124023438 59.5244140625 530.1171875 59.2998046875 534.51953125 65.2998046875 c 5xa0
 532.983398438 206.356445312 529.03125 445.6484375 528.034179688 569.799804688 c 5
 489.192382812 531.178710938 190.049804688 202.973632812 90.8203125 75.2998046875 c 5
 97.484375 63.2998046875 101.354492188 57.7900390625 186.139648438 59.2998046875 c 5
 425.139648438 59.2998046875 l 5xc0
-32.1494140625 -5 m 5
 -16.220703125 27.2998046875 14.4248046875 60.708984375 32.4013671875 80 c 4
 227.166015625 289 388.623046875 470 535.20703125 640 c 4
 564.619140625 674.109375 556.177734375 679 567.767578125 712 c 5
 610.767578125 712 l 5x90
 609.55859375 685 608.2265625 681.360351562 608.666992188 642 c 4xc0
 611.184570312 417 612.5546875 281 621.260742188 62 c 4
 622.877929688 21.3359375 628.237304688 31.7998046875 631.080078125 -4 c 5
 568.130859375 5 24.1025390625 4 -32.1494140625 -5 c 5
EndSplineSet
Position2: "cpsp-1" dx=0 dy=0 dh=50 dv=100
Substitution2: "c2pc-1" delta.pcap
Substitution2: "c2sc-1" delta.smcp
EndChar
StartChar: Theta
Encoding: 920 920 1325
Width: 795
Flags: W
HStem: -10 53<293.128 476.599> 338.5 61<281.106 560.998> 456.5 20G<243.051 273.313> 655 50<361.724 543.256>
VStem: 57 96.0459<202.593 413.03> 243.051 31.4258<414.305 474.5> 565.352 29.4258<261.5 324.978> 605.414 28.7861<429.786 470.5> 682.902 100.362<290.286 501.723>
AnchorPoint: "Bottom" 323.169 -15 basechar 0
AnchorPoint: "Top" 523.103 699 basechar 0
LayerCount: 2
Fore
SplineSet
634.200195312 470.5 m 1
 620.3828125 415.1640625 600.739257812 320.51171875 594.77734375 261.5 c 9
 565.3515625 259.5 l 1
 568.6328125 325.9609375 560.262695312 324.853515625 533.65625 331.5 c 0
 525.293945312 332.5 460.829101562 338.5 414.143554688 338.5 c 27
 361.467773438 338.5 286.658203125 333.5 276.65625 331.5 c 0
 247.508789062 325.5 239.494140625 297.5 229.77734375 261.5 c 9
 197.98828125 262.5 l 1
 219.865234375 334.940429688 234.895507812 401.831054688 243.05078125 474.5 c 9
 274.4765625 476.5 l 1
 272.150390625 446.211914062 268.743164062 420.513671875 297.235351562 409.5 c 0
 304.994140625 405.5 325.717773438 399.5 427.108398438 399.5 c 3
 520.404296875 399.5 541.247070312 403.5 547.172851562 404.5 c 0
 580.448242188 410.5 587.59765625 406.5 605.4140625 471.5 c 9
 634.200195312 470.5 l 1
EndSplineSet
Refer: 1303 79 N 1 0 0 1 7.10543e-15 0 2
Position2: "cpsp-1" dx=0 dy=0 dh=50 dv=100
Substitution2: "c2pc-1" theta.pcap
Substitution2: "c2sc-1" theta.smcp
EndChar
StartChar: Lambda
Encoding: 923 923 1289
Width: 730
VWidth: 1159
Flags: HW
HStem: -10 37<467.524 534.053> -5 39<29.396 87.4808 183.49 258.185 657.901 699.198>
AnchorPoint: "Top" 510.986 699 basechar 0
AnchorPoint: "Bottom" 320.288 -15 basechar 0
LayerCount: 2
Fore
SplineSet
447.875976562 545 m 13x80
 342.90625 384.353515625 240.458007812 244.206054688 146.530273438 87 c 4
 124.712890625 50.484375 146.345703125 29 231.4140625 34 c 13x40
 218.524414062 -10 l 5x80
 162.463867188 1 47.7744140625 4 -13.2373046875 -5 c 13
 -13.2373046875 -5 -11.05078125 20 -8.5859375 34 c 5x40
 43.87890625 48 70.1064453125 57 86.798828125 80 c 4
 230.520507812 289 353.314453125 470 463.385742188 640 c 4
 487.790039062 678 485.037109375 679 497.203125 712 c 13
 540.203125 712 l 13
 538.522460938 685 532.532226562 681 536.879882812 642 c 4
 555.197265625 417 565.541015625 281 613.34375 62 c 28
 618.909179688 36 643.4140625 34 670.918945312 32 c 13
 670.918945312 32 663.979492188 8 660.009765625 -4 c 5
 590.969726562 5 497.274414062 6 428.524414062 -10 c 13
 428.524414062 -10 427.969726562 12 427.681640625 27 c 5
 484.466796875 37 518.215820312 47.0283203125 514.80859375 76 c 4
 495.677734375 238.66796875 473.665039062 388.01953125 447.875976562 545 c 13x80
EndSplineSet
Position2: "cpsp-1" dx=0 dy=0 dh=50 dv=100
Substitution2: "c2pc-1" lambda.pcap
Substitution2: "c2sc-1" lambda.smcp
EndChar
StartChar: Xi
Encoding: 926 926 1347
Width: 642
Flags: W
HStem: -12 21G<-7.93652 563.691> 325.5 61<211.84 502.306> 491 15G<99.2158 148.972 635.467 670.152> 678 20G<141.265 705.75>
VStem: 30.4248 41.0625<83.1133 209> 99.2158 42.1494<494.336 560.652> 133.045 25.7871<242.5 280.637> 179.595 25.4248<402.724 461.5> 506.407 23.4248<241.5 310.696> 547.957 22.7871<424.804 457.5> 575.212 42.1494<148.034 204.664> 629.09 41.0625<490 601.742>
AnchorPoint: "Top" 425.576 699 basechar 0
AnchorPoint: "Bottom" 271.812 -15 basechar 0
LayerCount: 2
Fore
SplineSet
99.2158203125 495 m 1xfdf0
 121.833007812 574.702148438 134.9765625 630.799804688 147.552734375 698 c 1
 180.443359375 682 669.010742188 680 705.75 698 c 1
 687.05078125 624.162109375 673.19140625 548.845703125 670.15234375 490 c 1
 629.08984375 485 l 1
 641.84375 545 656.448242188 602 615.383789062 604 c 0
 496.279296875 614 291.934570312 613 194.958984375 602 c 0
 165.6875 598 156.578125 544 141.365234375 491 c 9
 99.2158203125 495 l 1xfdf0
617.361328125 204 m 1
 584.90625 119.194335938 569.120117188 59.50390625 558.26171875 -12 c 1
 524.850585938 4 29.275390625 6 -7.9365234375 -12 c 1
 11.744140625 66.453125 26.603515625 146.475585938 30.4248046875 209 c 1
 71.4873046875 214 l 1
 57.3408203125 147.4453125 40.9013671875 84.21875 90.4296875 82 c 0
 209.534179688 72 413.879882812 73 510.854492188 84 c 0
 547.8046875 88.46875 557.626953125 148.79296875 575.211914062 208 c 9
 617.361328125 204 l 1
570.744140625 457.5 m 1
 556.53125 400.310546875 536.21484375 302.48828125 529.83203125 241.5 c 9
 506.407226562 239.5 l 1
 511.061523438 312.422851562 502.66796875 311.208007812 476.19921875 318.5 c 0
 467.412109375 319.5 399.6875 325.5 350.6875 325.5 c 27
 295.6875 325.5 217.624023438 320.5 207.19921875 318.5 c 0
 177.92578125 311.900390625 169.314453125 281.099609375 158.83203125 241.5 c 9
 133.044921875 242.5 l 1xfbf0
 155.428710938 317.33203125 170.928710938 386.431640625 179.594726562 461.5 c 9
 205.01953125 463.5 l 1
 202.693359375 433.211914062 199.287109375 407.513671875 227.778320312 396.5 c 0
 235.928710938 392.5 257.653320312 386.5 363.653320312 386.5 c 3
 461.653320312 386.5 483.502929688 390.5 489.715820312 391.5 c 0
 522.991210938 397.5 530.140625 393.5 547.95703125 458.5 c 9
 570.744140625 457.5 l 1
EndSplineSet
Validated: 545
Position2: "cpsp-1" dx=0 dy=0 dh=50 dv=100
Substitution2: "c2pc-1" xi.pcap
Substitution2: "c2sc-1" xi.smcp
EndChar
StartChar: Pi
Encoding: 928 928 1312
Width: 775
Flags: HW
HStem: -14 37<175.889 235.792 465.942 537.838 651.93 698.113> -12 42<-12.431 65.5504> 643.531 38.1836<296.979 665.391> 654 38<129.07 188.146> 662 37<781.833 840.936>
AnchorPoint: "Top" 494.477 699 basechar 0
AnchorPoint: "Bottom" 352.942 -15 basechar 0
LayerCount: 2
Back
SplineSet
200 62 m 0x66
 201.587890625 25.9794921875 254 30 286 23 c 1
 286 23 282 0 281 -14 c 1xa6
 229.392578125 -5.3984375 184.431640625 -0.5546875 141.612304688 -0.5546875 c 0
 104.779296875 -0.5546875 69.53125 -4.138671875 33 -12 c 1
 33 -12 28 12 26 30 c 1
 62 36 101.34544837 36.0334357509 103 62 c 0
 110.200195312 175 114.879882812 340.890625 114.879882812 464.46875 c 0
 114.879882812 547.361383892 113.258977373 611.471785401 108 628 c 0
 101 650 69 650 31 655 c 1
 34 693 l 1x56
 69.91796875 688.40625 102 682.999999999 136.5 683.159179688 c 1
 278.306640625 682.954101562 495.950195312 683.123046875 643.5 682.71484375 c 1x26
 667 683 705.204101562 690.405273438 744 700 c 1
 750 663 l 1x0e
 701 651 689.792635159 653.014040394 688 625 c 0
 680.798828125 512.465154972 671.02734375 327.966622352 671.02734375 196.106445312 c 0
 671.02734375 126.701171875 673.181606793 71.7177589088 681 50 c 0
 690 25 718 24 748 22 c 1
 748 22 743 2 744 -12 c 1
 709.0078125 -4.607421875 673.044921875 -0.3720703125 635.391601562 -0.3720703125 c 0
 596.64453125 -0.3720703125 556.108398438 -4.8564453125 513 -15 c 1
 513 -15 507 8 505 20 c 1
 552 30 581.37251868 31.974641178 583 59 c 0
 589.517578125 167.228515625 592.3203125 263.8671875 592.3203125 365.913085938 c 0
 592.3203125 442.528130147 589.916464193 522.157208626 588 612 c 0
 587.643554688 628.709960938 564.991479162 642.760748965 527.5 644.53125 c 0
 456.383789062 647.889648438 347.714321473 646.905996016 262.5 647.43359375 c 0
 233.951171875 647.610351562 212.818670094 640.254715052 212 633 c 0
 202.6875 550.476484858 197.360351562 366.91915045 197.360351562 216.88671875 c 0
 197.360351562 157.0546875 198.211670138 102.56737206 200 62 c 0x66
EndSplineSet
Fore
SplineSet
168.637695312 62 m 0x60
 162.883789062 25.9794921875 216.115234375 30 246.6875 23 c 1
 246.6875 23 238 0 234.146484375 -14 c 1xa0
 184.291785513 -5.39873231031 140.318231566 -0.554353199939 97.4988495319 -0.554353199939 c 0
 60.6660061893 -0.554353199939 24.6871674324 -4.1388469203 -13.4462890625 -12 c 1
 -13.4462890625 -12 -13.5537109375 12 -11.884765625 30 c 1
 25.337890625 36 65.337890625 36 71.6376953125 62 c 0
 101.669422768 174.248943447 139.852398081 338.688491445 165.048671807 461.999995711 c 0
 182.127094578 545.582434346 193.238988483 610.269262072 191.801757812 627 c 0
 189.28515625 649 157.28515625 649 120.3046875 654 c 1
 131.049804688 692 l 1x50
 166.03125 687.40625 198.260742188 682.858398438 231.543945312 683.159179688 c 1
 373.512695312 683.954101562 590.986328125 683.123046875 738.454101562 682.71484375 c 1x20
 768.923828125 681.813476562 801.725585938 689.405273438 842.477539062 699 c 1
 840.935546875 662 l 1x08
 789.489257812 650 778.897460938 652 771.190429688 624 c 0
 741.096393671 511.697616055 693.788085093 327.559392711 666.977646476 196.000004124 c 0
 652.843742207 126.644637334 644.406562036 71.9018676402 647.19140625 50 c 0
 651.095703125 25 678.892578125 24 708.483398438 22 c 1
 708.483398438 22 699.407226562 2 697.553710938 -12 c 1
 664.068716928 -4.6073403764 628.968375066 -0.372318139618 591.315000469 -0.372318139618 c 0
 552.568182482 -0.372318139618 511.117900071 -4.85687949814 465.942382812 -15 c 1
 465.942382812 -15 464.630859375 8 465.076171875 20 c 1
 514.115234375 30 543.890625 31.974609375 551.026367188 59 c 0
 580.170904934 169.378155467 602.99513106 267.701930101 624.141022668 372 c 0
 639.233076353 446.438671088 653.470214509 523.92054825 668.540039062 611 c 0
 671.58984375 627.709960938 651.958984375 642.413085938 614.670898438 643.53125 c 0
 544.239257812 646.889648438 435.508789062 646.584960938 350.26171875 646.43359375 c 0
 321.75 646.610351562 299.91015625 639.114257812 296.8203125 632 c 0
 270.9081882 550.24516932 228.665974482 369.089238703 198.204064499 220.000004648 c 0
 185.729561685 158.946246998 175.230612019 103.270064048 168.637695312 62 c 0x60
EndSplineSet
Position2: "cpsp-1" dx=0 dy=0 dh=50 dv=100
Substitution2: "c2pc-1" pi.pcap
Substitution2: "c2sc-1" pi.smcp
EndChar
StartChar: Sigma
Encoding: 931 931 1321
Width: 656
Flags: HW
HStem: 1 40<162.356 491.5> 659 31<205.634 218.138>
AnchorPoint: "Top" 425.467 699 basechar 0
AnchorPoint: "Bottom" 276.943 -15 basechar 0
LayerCount: 2
Fore
SplineSet
-8.7958984375 1 m 5
 -13.2939453125 28 l 5
 29.986328125 49 70.177734375 85.3349609375 101.642578125 116 c 4
 186.5859375 198.784179688 272.390625 282.678710938 357.79296875 367 c 5
 315.811523438 437.495117188 267.115234375 518.478515625 225.876953125 588.299804688 c 4
 206.813476562 620.576171875 188.44921875 652.299804688 163.315429688 659 c 5
 174.633789062 690 l 5
 360.379882812 680 645.575195312 687 671.245117188 693 c 5
 697.5390625 665 671.96484375 672 633.857421875 539 c 5
 603.24609375 536 l 5
 599.583007812 572 628.162109375 619 594.403320312 630 c 5
 530.254882812 647.236328125 406.630859375 652.551757812 315.294921875 644.193359375 c 5
 357.405273438 573.795898438 398.5625 504.499023438 441.344726562 433 c 4
 450.415039062 417.841796875 463.635742188 399 478.385742188 391 c 5
 472.677734375 363 l 5
 454.55078125 355.162109375 438.151367188 342.178710938 427.116210938 331 c 4
 326.46875 229.038085938 230.018554688 137.86328125 131.356445312 41 c 5
 209.6796875 41 288.625976562 39 366.94921875 39 c 4
 389.353515625 39 419.325195312 43.2998046875 454.821289062 58 c 4
 516.814453125 83.673828125 532.584960938 101 587.075195312 177 c 5
 613.649414062 170 l 5
 584.196289062 104 564.63671875 62 540 0 c 5
 307.626953125 -1.208984375 206.124023438 5.2880859375 -8.7958984375 1 c 5
EndSplineSet
Position2: "cpsp-1" dx=0 dy=0 dh=50 dv=100
Substitution2: "c2pc-1" sigma.pcap
Substitution2: "c2sc-1" sigma.smcp
EndChar
StartChar: Upsilon
Encoding: 933 933 1341
Width: 689
VWidth: 1159
Flags: HW
HStem: -17 42<201.865 281.509> -11 43<426.681 499.636> 623.534 76.2021<208.626 298.232 652.965 765.622>
VStem: 388.573 45.7939<373.316 510.432>
AnchorPoint: "Top" 449.95 699 basechar 0
AnchorPoint: "Bottom" 297.715 -15 basechar 0
LayerCount: 2
Fore
SplineSet
439.34375 379 m 4xb0
 402.819335938 286.059570312 385.321289062 163.954101562 376.567382812 80 c 4
 372.497070312 40.98828125 391.446289062 36 471.525390625 32 c 5
 456.635742188 -11 l 5x70
 356.854492188 3 270.235351562 9 159.254882812 -17 c 5
 156.915039062 25 l 5
 239.13671875 39 278.666015625 52.001953125 290.16796875 100 c 4
 302.241210938 150.383789062 345.286132812 339.19921875 345.573242188 380 c 4
 346.150390625 472.659179688 314.909179688 623.534179688 181.567382812 623.534179688 c 7
 163.80859375 623.534179688 143.671875 610.516601562 120.864257812 582 c 5
 104.89453125 611.370117188 l 5
 126.977539062 658.056640625 184.775390625 699.736328125 222.53515625 699.736328125 c 7
 410.221679688 699.736328125 386.870117188 498.013671875 391.3671875 371.123046875 c 5
 448.3125 498.013671875 514.650390625 699.736328125 677.814453125 699.736328125 c 7
 712.856445312 699.736328125 748.918945312 654.138671875 758.733398438 627.370117188 c 5
 729.252929688 598 l 5
 714.873046875 615.53125 699.608398438 623.534179688 683.7265625 623.534179688 c 7
 569.415039062 623.534179688 473.818359375 473.685546875 439.34375 379 c 4xb0
EndSplineSet
Position2: "cpsp-1" dx=0 dy=0 dh=50 dv=100
Substitution2: "c2pc-1" upsilon.pcap
Substitution2: "c2sc-1" upsilon.smcp
EndChar
StartChar: Phi
Encoding: 934 934 1311
Width: 700
UnlinkRmOvrlpSave: 1
Flags: HW
HStem: 103.5 42.9443<255.606 454.566> 545.254 44.2461<306.796 492.82>
AnchorPoint: "Top" 443.065 699 basechar 0
AnchorPoint: "Bottom" 316.595 -15 basechar 0
LayerCount: 2
Fore
SplineSet
399.263671875 545.25390625 m 1
 287.461914062 545.25390625 180.186523438 471.870117188 156.814453125 370.262695312 c 1
 130.03125 253.826171875 219.760742188 146.444335938 355.794921875 146.444335938 c 1
 478.255859375 146.444335938 577.090820312 231.6328125 599.171875 327.629882812 c 1
 625.673828125 442.841796875 536.342773438 545.25390625 399.263671875 545.25390625 c 1
440.23046875 589.5 m 1
 612.485351562 589.5 725.8046875 477.982421875 694.43359375 341.606445312 c 1
 664.196289062 210.14453125 508.185546875 103.5 330.10546875 103.5 c 1
 152.025390625 103.5 32.44140625 209.474609375 62.8330078125 341.606445312 c 1
 93.2763671875 473.951171875 265.479492188 589.5 440.23046875 589.5 c 1
EndSplineSet
Refer: 1280 73 N 1 0 -0.0174551 1 163.028 0 2
Position2: "cpsp-1" dx=0 dy=0 dh=50 dv=100
Substitution2: "c2pc-1" phi.pcap
Substitution2: "c2sc-1" phi.smcp
EndChar
StartChar: Psi
Encoding: 936 936 1313
Width: 699
Flags: W
HStem: -10 40<151.002 264.494 371.048 458.712> 320.818 31.1953<322.529 339.445> 637.704 34<776.136 787.543> 652 43<327.213 390.21 498.371 579.574>
LayerCount: 2
Fore
SplineSet
329.3515625 695 m 5xd0
 423.012695312 674 479.479492188 677 586.713867188 692 c 5
 579.57421875 649 l 5
 531.009765625 647 502.223632812 656.947265625 489.559570312 616 c 4
 469.829101562 548.486328125 446.15234375 461.061523438 421.501953125 351.192382812 c 5
 595.28515625 400.744140625 585.399414062 671.704101562 753.775390625 671.704101562 c 7
 790.60546875 671.704101562 802.546875 655.91796875 807.547851562 637.704101562 c 5xe0
 630.0859375 554.15234375 619.053710938 353.360351562 414.765625 320.90625 c 5
 398.5390625 245.981445312 381.625 161.252929688 364.653320312 66 c 4
 358.419921875 27 412.926757812 32 468.001953125 30 c 5
 458.711914062 -9 l 5
 360.049804688 2 237.475585938 4 147.499023438 -10 c 5
 151.001953125 30 l 5
 212.514648438 30 269.075195312 27.0634765625 282.9921875 77 c 4
 300.469726562 144.84765625 320.680664062 232.9921875 339.4453125 320.818359375 c 5
 150.973632812 354.014648438 224.4765625 553.758789062 83.0234375 637 c 5
 95.767578125 655.213867188 114.419921875 671 151.25 671 c 7
 319.13671875 671 195.659179688 402.770507812 346.041992188 352.013671875 c 5
 367.424804688 453.989257812 385.987304688 552.208984375 395.134765625 614 c 4
 399.65234375 650 356.690429688 647 316.211914062 652 c 5
 329.3515625 695 l 5xd0
EndSplineSet
Validated: 545
Position2: "cpsp-1" dx=0 dy=0 dh=50 dv=100
Substitution2: "c2pc-1" psi.pcap
Substitution2: "c2sc-1" psi.smcp
EndChar
StartChar: Omega
Encoding: 937 937 1305
AltUni2: 002126.ffffffff.0
Width: 731
Flags: HW
HStem: -12 21G<83.1807 85.6313 636.037 647.422> 0.754883 75.3525<148.586 251.141 502.614 618.831> 663 49<399.18 573.378>
VStem: 113.373 41.1064<84.2582 196> 658.151 42.1152<138.402 191.665>
AnchorPoint: "Top" 475.682 699 basechar 0
AnchorPoint: "Bottom" 315.451 -7 basechar 0
AnchorPoint: "Middle" 399.436 364.853 basechar 0
LayerCount: 2
Fore
SplineSet
242.16796875 0.7548828125 m 5x78
 142.451171875 0.4677734375 47.40234375 -3.5751953125 32.958984375 -12 c 5xb8
 52.3037109375 61.837890625 66.8193359375 137.154296875 70.373046875 196 c 5
 111.479492188 201 l 5
 98.2021484375 141 82.5888671875 84 132.145507812 82 c 5
 153.329101562 79.150390625 178.959960938 77.193359375 206.22265625 76.107421875 c 5x78
 229.306640625 200.907226562 44.08984375 230.873046875 86.828125 424 c 4
 120.852539062 577.755859375 300.55859375 712 480.55859375 712 c 4
 662.65234375 712 780.888671875 582.440429688 745.828125 424 c 4
 703.388671875 232.223632812 495.301757812 190.892578125 459.614257812 76.056640625 c 5
 495.82421875 77.3857421875 528.81640625 80.0546875 552.588867188 84 c 4
 589.473632812 88 598.422851562 142 615.151367188 195 c 5
 657.266601562 191 l 5
 625.201171875 111.297851562 609.6875 55.2001953125 599.15625 -12 c 5xb8
 586.916992188 -4.513671875 492.900390625 -0.0927734375 393.134765625 0.6552734375 c 5
 467.169921875 244.831054688 593.111328125 190.298828125 640.40234375 404 c 4
 670.744140625 541.1171875 578.038085938 663 432.715820312 663 c 4
 322.127929688 663 214.341796875 579.96875 188.900390625 465 c 4
 140.963867188 248.374023438 278.255859375 254.213867188 242.16796875 0.7548828125 c 5x78
EndSplineSet
Position2: "cpsp-1" dx=0 dy=0 dh=50 dv=100
Substitution2: "c2pc-1" omega.pcap
Substitution2: "c2sc-1" omega.smcp
EndChar
StartChar: epsilon
Encoding: 949 949 234
Width: 417
VWidth: 1043
UnlinkRmOvrlpSave: 1
Flags: HMW
AnchorPoint: "Bottom" 161.084 -15 basechar 0
AnchorPoint: "Top" 293.387 465 basechar 0
LayerCount: 2
Fore
SplineSet
400.36328125 398 m 1
 396.05859375 381 375.255859375 346 365.33984375 331 c 1
 313.1171875 335 287.283203125 341 233.283203125 341 c 3
 191.283203125 341 143.368164062 326 135.981445312 288 c 0
 129.76171875 256 165.291015625 233 215.59765625 214 c 1
 211.670898438 213.077148438 207.8203125 212.138671875 204.048828125 211.1796875 c 1
 142.412109375 195.51171875 101.946289062 174.635742188 94.435546875 136 c 0
 84.716796875 86 135.829101562 66 187.829101562 66 c 3
 246.829101562 66 283.745117188 81 339.827148438 102 c 1
 344.271484375 94 345.857421875 61 344.135742188 47 c 1
 301.110351562 16 228.639648438 -7 153.639648438 -7 c 3
 77.6396484375 -7 19.94140625 46 33.5478515625 116 c 0
 49.8759765625 200 156.040039062 242 248.040039062 242 c 3
 276.040039062 242 291.651367188 240 319.262695312 238 c 1
 316.346679688 223 310.625 209 303.487304688 198 c 1
 274.098632812 196 257.515625 193 228.515625 193 c 3
 152.515625 193 83.01171875 247 96.6181640625 317 c 0
 106.7265625 369 181.279296875 413 257.279296875 413 c 3
 316.279296875 413 366.529296875 404 400.36328125 398 c 1
EndSplineSet
Substitution2: "pcap-1" e.pcap
Substitution2: "smcp-1" e.smcp
EndChar
StartChar: eta
Encoding: 951 951 238
Width: 490
VWidth: 1047
UnlinkRmOvrlpSave: 1
Flags: HMW
AnchorPoint: "Top" 363.796 465 basechar 0
AnchorPoint: "Bottom" 72.4932 -15 basechar 0
LayerCount: 2
Fore
SplineSet
82.3076171875 408 m 3
 162.407226562 408 188.091796875 304 135.381835938 110 c 1
 108.455078125 110 93.30859375 110 66.3818359375 110 c 1
 85.0908203125 167.861328125 103.752929688 226.01171875 132.000976562 274 c 0
 182.004882812 358.943359375 268.610351562 420 336.639648438 420 c 3
 460.784179688 420 446.124023438 304.166015625 436.76171875 256 c 0
 423.837890625 189.516601562 340.842773438 -41.9677734375 328.784179688 -104 c 0
 319.095703125 -153.842773438 326.090820312 -179.592773438 402.095703125 -195 c 1
 394.106445312 -217.584960938 390.005859375 -229.415039062 382.016601562 -252 c 1
 265.306640625 -252 255.635742188 -212.801757812 267.842773438 -150 c 0
 289.228515625 -39.9814453125 374.909179688 123 400.373046875 254 c 0
 409.7109375 302.041992188 397.19140625 354 349.810546875 354 c 3
 303.766601562 354 242.01953125 336.111328125 195.983398438 252 c 0
 167.879882812 200.651367188 159.173828125 167.263671875 108.416992188 -3 c 1
 92.2783203125 -14 40.22265625 -4 27 0 c 1
 49.7333984375 88.4150390625 96.3115234375 202.23828125 112.3984375 285 c 0
 118.506835938 316.42578125 111.427734375 347.671875 79.453125 347.671875 c 3
 67.76953125 347.671875 60.7587890625 345.543945312 53.283203125 341 c 1
 50.302734375 347.818359375 39.388671875 367.262695312 44.5859375 394 c 1
 50.9775390625 399.600585938 63.8427734375 408 82.3076171875 408 c 3
EndSplineSet
Substitution2: "pcap-1" h.pcap
Substitution2: "smcp-1" h.smcp
EndChar
StartChar: theta
Encoding: 952 952 483
Width: 488
VWidth: 1039
UnlinkRmOvrlpSave: 1
Flags: HW
HStem: -11 44<141.489 240.36> 657 40<183.149 281.426>
VStem: 9 79<134.659 458.11> 333 78<221.369 559.965>
AnchorPoint: "Bottom" 186.084 -15 basechar 0
LayerCount: 2
Fore
SplineSet
128.125976562 333.40234375 m 5
 134.141601562 367.397460938 l 5
 433.107421875 372.598632812 l 5
 427.091796875 338.603515625 l 5
 128.125976562 333.40234375 l 5
198.4140625 33 m 3
 309.4140625 33 391.377929688 300.327148438 417.166992188 433 c 0
 439.71484375 549 439.708007812 657 359.708007812 657 c 3
 259.708007812 657 178.192382812 464 138.150390625 258 c 0
 110.838867188 117.498046875 131.4140625 33 198.4140625 33 c 3
364.483398438 697 m 3
 485.483398438 697 523.157226562 577 489.334960938 403 c 0
 438.89453125 143.506835938 294.862304688 -11 184.862304688 -11 c 3
 72.8623046875 -11 31.412109375 115.298828125 64.5927734375 286 c 0
 101.9140625 478 222.483398438 697 364.483398438 697 c 3
EndSplineSet
Position2: "cpsp-1" dx=0 dy=0 dh=50 dv=102
Substitution2: "pcap-1" theta.pcap
Substitution2: "smcp-1" theta.smcp
EndChar
StartChar: iota
Encoding: 953 953 309
Width: 292
VWidth: 1043
Flags: HMW
AnchorPoint: "Top" 207.387 465 basechar 0
AnchorPoint: "Bottom" 94.084 -15 basechar 0
LayerCount: 2
Fore
SplineSet
109.55078125 80 m 0
 104.107421875 52 111.330078125 48 122.330078125 48 c 3
 152.330078125 48 192.32421875 104.55859375 198.353515625 115 c 1
 231.215820312 104 l 1
 196.6796875 49.796875 142.250976562 -9 82.2509765625 -9 c 3
 50.2509765625 -9 34.693359375 19 51.41015625 105 c 0
 70.1416015625 201.366210938 115.491210938 295.766601562 138.751953125 400 c 1
 138.751953125 400 215.805664062 426 230.696289062 410 c 1
 187.420898438 279.969726562 122.571289062 146.985351562 109.55078125 80 c 0
EndSplineSet
Substitution2: "pcap-1" i.pcap
Substitution2: "smcp-1" i.smcp
EndChar
StartChar: kappa
Encoding: 954 954 315
Width: 490
VWidth: 1043
UnlinkRmOvrlpSave: 1
Flags: HMW
LayerCount: 2
Fore
SplineSet
234.45703125 239 m 1
 253.759765625 174.826171875 294.729492188 75 366.578125 75 c 3
 386.826171875 75 407.162109375 89.6953125 417.6328125 101 c 1
 422.818359375 98 425.890625 96 431.077148438 93 c 1
 415.192382812 37 388.584960938 -9 335.250976562 -9 c 3
 255.38671875 -9 256.49609375 122 205.84765625 205 c 1
 234.45703125 239 l 1
60.337890625 367 m 1
 88.80859375 390 125.696289062 410 168.696289062 410 c 3
 199.49609375 410 209.211914062 392.077148438 204.143554688 366 c 0
 184.643554688 265.680664062 157.8203125 210 128.381835938 110 c 1
 123.170898438 112 120.370117188 112 115.159179688 114 c 1
 159.19921875 209 268.953125 328 413.862304688 416 c 1
 434.2890625 410.732421875 435.744140625 371.75 437.393554688 357 c 1
 306.73828125 317.490234375 169.814453125 173.205078125 139.021484375 103 c 0
 121.654296875 62.5390625 117.733398438 39.7841796875 103.805664062 -1 c 1
 72.193359375 -1.34375 33.81640625 -0.79296875 24.77734375 4 c 1
 58.810546875 122.49609375 89.0166015625 190.431640625 112.063476562 309 c 0
 115.975585938 329.124023438 123.420898438 357 105.393554688 357 c 3
 90.9716796875 357 82.64453125 348 68.478515625 342 c 1
 60.337890625 367 l 1
EndSplineSet
Substitution2: "pcap-1" k.pcap
Substitution2: "smcp-1" k.smcp
EndChar
StartChar: lambda
Encoding: 955 955 320
Width: 464
VWidth: 1038
UnlinkRmOvrlpSave: 1
Flags: HMW
LayerCount: 2
Fore
SplineSet
258.91796875 406 m 1
 279.2578125 310 l 1
 33.8896484375 -16 l 1
 13.5009765625 -18 -25.4169921875 3 -32.1123046875 20 c 1
 258.91796875 406 l 1
77.373046875 681 m 1
 76.3466796875 688.389648438 76.4833984375 697 78.0380859375 705 c 0
 84.2578125 737 108.193359375 772 128.061523438 772 c 3
 164.061523438 772 187.731445312 724 202.373046875 681 c 0
 256.272460938 521 290.564453125 291 360.604492188 106 c 0
 371.745117188 81 393.829101562 66 429.440429688 64 c 1
 430.63671875 29 425.805664062 -1 420.946289062 -26 c 1
 408.36328125 -29 402.390625 -34 389.390625 -34 c 3
 345.390625 -34 327.665039062 24 315.995117188 72 c 0
 279.375 218 234.13671875 474 179.431640625 635 c 0
 165.790039062 678 131.76171875 683 77.373046875 681 c 1
EndSplineSet
Substitution2: "pcap-1" lambda.pcap
Substitution2: "smcp-1" lambda.smcp
EndChar
StartChar: mu
Encoding: 956 956 343
Width: 544
VWidth: 1019
Flags: HMW
LayerCount: 2
Fore
SplineSet
200.696289062 410 m 1
 179.662109375 301.791992188 127.58203125 224.208007812 106.547851562 116 c 0
 97.0234375 67 125.775390625 40 163.775390625 40 c 3
 283.775390625 40 346.845703125 241 364.314453125 300 c 2
 392.946289062 401 l 1
 393.140625 402 463.166992188 433 470.501953125 409 c 1
 461.352539062 367.075195312 392.629882812 137 392.629882812 137 c 0
 386.215820312 104 398.051757812 62 428.051757812 62 c 3
 466.051757812 62 481.299804688 89 491.604492188 106 c 1
 507.6328125 101 l 1
 490.721679688 14 449.833984375 -6 421.833984375 -6 c 3
 372.833984375 -6 341.1640625 42 344.215820312 104 c 1
 344.215820312 104 l 1
 314.49609375 54 252.805664062 -1 169.805664062 -1 c 3
 92.8056640625 -1 85.775390625 40 77.49609375 54 c 1
 62.2197265625 32 5.732421875 -166 0.0439453125 -257 c 1
 -12.6767578125 -271 -53.7333984375 -261 -66.623046875 -245 c 1
 -54.541015625 -224 -41.6533203125 -204 -30.4892578125 -162 c 2
 121.391601562 393 l 1
 124.529296875 404 187.611328125 425 200.696289062 410 c 1
EndSplineSet
Substitution2: "pcap-1" m.pcap
Substitution2: "smcp-1" m.smcp
EndChar
StartChar: nu
Encoding: 957 957 356
Width: 480
VWidth: 1043
Flags: HMW
LayerCount: 2
Fore
SplineSet
64.6669921875 -12 m 1
 65.2509765625 -9 92.4052734375 60.0205078125 127.932617188 190 c 0
 148.705078125 266 150.810546875 354 114.810546875 354 c 0
 84.810546875 354 77.5625 327 64.48046875 306 c 1
 46.8408203125 313 l 1
 62.7802734375 395 111.4453125 419 140.4453125 419 c 0
 178.4453125 419 243.8359375 385 215.845703125 241 c 0
 199.711914062 158 162.080078125 57 160.913085938 51 c 1
 176.913085938 51 352.604492188 106 382.5390625 260 c 0
 397.89453125 339 362.838867188 349 337.227539062 351 c 1
 335.969726562 354.818359375 335.2421875 361.36328125 336.7265625 369 c 0
 341.530273438 393.711914062 383.778320312 431 392.778320312 431 c 3
 409.778320312 431 463.094726562 391.471679688 444.341796875 295 c 0
 422.765625 184 330.099609375 106.359375 254.051757812 62 c 0
 168.333007812 12 83.306640625 -19 71.306640625 -19 c 1
 64.6669921875 -12 l 1
EndSplineSet
Substitution2: "pcap-1" n.pcap
Substitution2: "smcp-1" n.smcp
EndChar
StartChar: xi
Encoding: 958 958 1218
Width: 537
VWidth: 1039
UnlinkRmOvrlpSave: 1
Flags: HMW
LayerCount: 2
Fore
SplineSet
333.974609375 396 m 1
 325.514648438 393.244140625 316.715820312 389.88671875 307.688476562 386 c 0
 211.903320312 344.7578125 90.3994140625 243.8515625 75.65625 168 c 0
 67.4921875 126 80.2177734375 68 151.217773438 68 c 3
 216.217773438 68 299.604492188 106 365.604492188 106 c 3
 447.604492188 106 484.552734375 44 472.6953125 -17 c 0
 457.728515625 -94 383.42578125 -147 324.42578125 -147 c 3
 282.42578125 -147 248.646484375 -115 240.728515625 -94 c 1
 263.19921875 -71 292.224609375 -40 313.61328125 -38 c 1
 322.309570312 -55 336.534179688 -95 369.534179688 -95 c 3
 381.534179688 -95 431.782226562 -68 440.91796875 -21 c 0
 449.470703125 23 392.831054688 30 359.831054688 30 c 3
 285.831054688 30 216.666992188 -12 139.666992188 -12 c 3
 30.6669921875 -12 22.2998046875 89 34.3515625 151 c 0
 45.0419921875 206 101.869140625 308 212.892578125 375 c 0
 268.501953125 409 341.388671875 429 429.388671875 429 c 1
 428.473632812 414 410.532226562 368 392.19921875 356 c 1
 366.478515625 342 329.89453125 339 294.89453125 339 c 3
 128.89453125 339 149.249023438 454 153.13671875 474 c 0
 183.654296875 631 403.173828125 752 565.173828125 752 c 1
 563.036132812 741 548.483398438 697 534.373046875 681 c 1
 504.874023438 663 440.541992188 651 382.541992188 651 c 3
 283.541992188 651 232.2890625 696 245.118164062 762 c 0
 255.03125 813 304.473632812 841 359.473632812 841 c 1
 354.391601562 820 348.39453125 784 330.506835938 764 c 1
 313.534179688 759 292.923828125 761 290.0078125 746 c 0
 287.286132812 732 298.31640625 691 392.122070312 690 c 1
 389.853515625 688.68359375 387.58203125 687.350585938 385.309570312 686 c 0
 299.512695312 635.021484375 211.8203125 559.83203125 195.9140625 478 c 0
 180.168945312 397 266.974609375 396 333.974609375 396 c 1
EndSplineSet
Substitution2: "pcap-1" xi.pcap
Substitution2: "smcp-1" xi.smcp
EndChar
StartChar: omicron
Encoding: 959 959 369
Width: 510
VWidth: 1043
Flags: HMW
AnchorPoint: "Top" 311.387 465 basechar 0
AnchorPoint: "Bottom" 204.084 -15 basechar 0
LayerCount: 2
Fore
SplineSet
213.609375 34 m 3
 320.609375 34 366.740234375 153 378.791992188 215 c 0
 394.536132812 296 379.864257812 380 295.864257812 380 c 3
 242.864257812 380 157.616210938 353 125.348632812 187 c 0
 106.8828125 92 138.609375 34 213.609375 34 c 3
49.625 209 m 0
 69.0634765625 309 158.639648438 420 291.639648438 420 c 3
 427.639648438 420 472.92578125 298 452.709960938 194 c 0
 426.857421875 61 311.056640625 -10 209.056640625 -10 c 3
 84.056640625 -10 30.7705078125 112 49.625 209 c 0
EndSplineSet
Validated: 545
Substitution2: "pcap-1" o.pcap
Substitution2: "smcp-1" o.smcp
EndChar
StartChar: pi
Encoding: 960 960 412
Width: 575
VWidth: 1043
UnlinkRmOvrlpSave: 1
Flags: HMW
LayerCount: 2
Fore
SplineSet
449.088867188 340 m 1
 419.31640625 264 380.2109375 176 369.130859375 119 c 0
 363.494140625 90 361.135742188 47 393.135742188 47 c 3
 422.135742188 47 450.911132812 87 459.993164062 108 c 1
 481.077148438 93 l 1
 477.772460938 76 424.250976562 -9 351.250976562 -9 c 3
 318.250976562 -9 278.333007812 12 296.798828125 107 c 0
 311.571289062 183 361.508789062 301 379.478515625 342 c 1
 381.061523438 345 450.672851562 343 449.088867188 340 c 1
208.478515625 342 m 3
 128.478515625 342 92.8974609375 303 90.17578125 289 c 0
 87.6494140625 276 93.31640625 264 101.150390625 258 c 1
 73.2626953125 238 l 1
 55.7890625 251 48.5927734375 286 52.091796875 304 c 0
 67.05859375 381 186.696289062 410 325.696289062 410 c 3
 403.696289062 410 542.946289062 401 546.946289062 401 c 3
 557.946289062 401 562.501953125 409 563.473632812 414 c 0
 565.028320312 422 565 427 562.555664062 435 c 1
 585.693359375 446 l 1
 597.97265625 432 597.112304688 407 594.197265625 392 c 0
 581.5625 327 494.922851562 334 426.922851562 334 c 3
 342.922851562 334 241.478515625 342 208.478515625 342 c 3
275.8671875 344 m 1
 261.508789062 301 234.653320312 204 145.056640625 -10 c 1
 124.5390625 -7.517578125 67.3486328125 1.79296875 71.38671875 38 c 1
 93.68359375 49.818359375 126.471679688 59.9697265625 149.021484375 103 c 0
 196.709960938 194 231.009765625 283 240.255859375 346 c 1
 240.64453125 348 276.450195312 347 275.8671875 344 c 1
EndSplineSet
Substitution2: "pcap-1" pi.pcap
Substitution2: "smcp-1" pi.smcp
EndChar
StartChar: rho
Encoding: 961 961 442
Width: 462
VWidth: 1039
UnlinkRmOvrlpSave: 1
Flags: HMW
LayerCount: 2
Fore
SplineSet
288.639648438 420 m 3
 391.91015625 420 427.373046875 310.59375 406.84765625 205 c 0
 389.142578125 113.912109375 332.471679688 21 227.08203125 21 c 3
 161.690429688 21 112.212890625 47.39453125 78.412109375 69 c 1
 92.109375 95.4501953125 100.126953125 111.549804688 113.82421875 138 c 1
 103.137695312 88.388671875 148.541992188 62 197.051757812 62 c 3
 221.110351562 62 247.7890625 70.537109375 268.1953125 91 c 0
 296.19140625 119.073242188 328.870117188 184.536132812 340.428710938 244 c 0
 353.087890625 309.123046875 347.634765625 388 282.419921875 388 c 3
 178.822265625 388 131.34765625 223.00390625 108.215820312 104 c 0
 85.3564453125 -13.599609375 103.522460938 -46.8251953125 199.393554688 -70 c 0
 272.965820312 -87.78515625 316.674804688 -130.288085938 305.067382812 -190 c 0
 296.2734375 -235.2421875 233.424804688 -280 179.573242188 -280 c 3
 147.557617188 -280 128.69140625 -258.815429688 114.376953125 -245 c 1
 117.537109375 -228.7421875 130.819335938 -217 185.26171875 -189 c 1
 197.725585938 -200.27734375 214.954101562 -218 229.625 -218 c 3
 248.625 -218 267.0234375 -200.517578125 271.01171875 -180 c 0
 279.337890625 -137.166015625 241.627929688 -127.778320312 208.896484375 -124 c 0
 41.1298828125 -104.634765625 1.4482421875 -38.8525390625 32.3251953125 120 c 0
 59.923828125 261.982421875 152.307617188 420 288.639648438 420 c 3
EndSplineSet
Substitution2: "pcap-1" p.pcap
Substitution2: "smcp-1" p.smcp
EndChar
StartChar: sigma1
Encoding: 962 962 461
Width: 380
VWidth: 1038
Flags: HMW
LayerCount: 2
Fore
SplineSet
293.396484375 321 m 1xee
 279.401367188 333.888671875 239.625976562 350 222.033203125 350 c 3
 189.510742188 350 115.036132812 288.282226562 94.765625 184 c 0
 78.6103515625 100.887695312 116.78125 84 162.328125 84 c 3
 182.05078125 84 193.911132812 87 213.911132812 87 c 3
 296.112304688 87 301.689453125 44.703125 293 0 c 0
 277.249023438 -81.029296875 200.470703125 -144 160.008789062 -144 c 3
 132.865234375 -144 117.284179688 -133.916992188 112.28515625 -122 c 1
 113.006835938 -108 156.559570312 -64 174.50390625 -54 c 1
 184.981445312 -59 194.470703125 -67 205.9765625 -67 c 3
 238.83203125 -67 246.143554688 -45.560546875 249.168945312 -30 c 0
 254.53515625 -2.392578125 240.9453125 2 164.388671875 2 c 3
 70.3515625 2 57.3759765625 19.0693359375 41.6005859375 54.5361328125 c 0
 35.40234375 68.4716796875 28.9248046875 102.501953125 37.3798828125 146 c 0xde
 49.5322265625 208.521484375 92.7548828125 294.928710938 152.004882812 355 c 0
 196.040039062 398.436523438 251.563476562 419 293.4453125 419 c 3xde
 325.252929688 419 353.41015625 405 364.168945312 397 c 1
 349.24609375 368.243164062 322.596679688 325 293.396484375 321 c 1xee
EndSplineSet
Substitution2: "pcap-1" sigma.pcap
Substitution2: "smcp-1" sigma.smcp
EndChar
StartChar: sigma
Encoding: 963 963 459
Width: 479
VWidth: 1043
Flags: HMW
LayerCount: 2
Fore
SplineSet
481.696289062 410 m 1
 479.974609375 396 480.05859375 381 477.532226562 368 c 0
 475.399414062 357.03125 470.431640625 346.90625 462.283203125 341 c 1
 410.283203125 341 380.283203125 341 328.283203125 341 c 3
 183.251953125 341 125.502929688 259.817382812 105.12890625 155 c 0
 93.271484375 94 108.248046875 27 169.248046875 27 c 3
 240.524414062 27 281.881835938 91.9931640625 297.044921875 170 c 0
 306.482421875 218.551757812 294.013671875 257.583984375 282.17578125 289 c 1
 290.208984375 293.888671875 293.28125 295.111328125 301.314453125 300 c 1
 360.073242188 282.44140625 380.818359375 215.134765625 366.407226562 141 c 0
 348.524414062 49 270.4453125 -8 187.4453125 -8 c 3
 77.4453125 -8 26.2998046875 89 46.7099609375 194 c 0
 67.314453125 300 145.153320312 370.586914062 230.5859375 394 c 0
 270.723632812 405 361.696289062 410 481.696289062 410 c 1
EndSplineSet
Substitution2: "pcap-1" sigma.pcap
Substitution2: "smcp-1" sigma.smcp
EndChar
StartChar: tau
Encoding: 964 964 478
Width: 482
VWidth: 1043
UnlinkRmOvrlpSave: 1
Flags: HMW
LayerCount: 2
Fore
SplineSet
322.255859375 346 m 1
 290.76171875 256 254.994140625 180.03125 242.547851562 116 c 0
 237.299804688 89 237.0546875 55 266.690429688 55 c 3
 287.78515625 55 307.772460938 76 333.41015625 105 c 1
 340.243164062 99 344.66015625 96 351.494140625 90 c 1
 334.524414062 49 281.678710938 -9 224.250976562 -9 c 3
 174.739257812 -9 157.317382812 32.501953125 173.159179688 114 c 0
 191.0546875 206.063476562 233.259765625 274 262.450195312 347 c 1
 322.255859375 346 l 1
73.4287109375 244 m 5
 54.9560546875 257 45.7353515625 281.588867188 51.4521484375 311 c 4
 65.07421875 381.077148438 143.896484375 406 348.91796875 406 c 7
 371.94921875 406 385.954101562 405 409.723632812 405 c 7
 457.73046875 405 465.259765625 410.625 472.721679688 441 c 5
 480.747070312 443 486.473632812 443 494.499023438 445 c 5
 501.912109375 429 505.551757812 414.401367188 501.391601562 393 c 4
 491.291015625 341.037109375 441.922851562 334 309.922851562 334 c 7
 262.848632812 334 236.887695312 337 189.505859375 337 c 7
 151.178710938 337 96.279296875 330.689453125 89.73046875 297 c 4
 86.8408203125 282.133789062 95.482421875 270 100.927734375 262 c 5
 73.4287109375 244 l 5
EndSplineSet
Substitution2: "pcap-1" t.pcap
Substitution2: "smcp-1" t.smcp
EndChar
StartChar: upsilon
Encoding: 965 965 1209
Width: 506
VWidth: 1043
Flags: HMW
AnchorPoint: "Top" 306.387 465 basechar 0
AnchorPoint: "Bottom" 195.084 -15 basechar 0
LayerCount: 2
Fore
SplineSet
208.728515625 333 m 0
 198.815429688 282 160.208984375 212 147.57421875 147 c 0
 131.829101562 66 186.135742188 47 225.135742188 47 c 3
 332.135742188 47 404.018554688 139 420.541015625 224 c 0
 442.505859375 337 361.450195312 347 310.450195312 347 c 1
 309.033203125 350 307.616210938 353 309.170898438 361 c 0
 313.447265625 383 351.028320312 422 359.583984375 430 c 1
 440.583984375 430 472.03515625 314 453.763671875 220 c 0
 432.1875 109 332.250976562 -9 198.250976562 -9 c 3
 115.250976562 -9 53.552734375 44 73.7685546875 148 c 0
 84.84765625 205 125.92578125 298 130.979492188 324 c 0
 135.061523438 345 127.782226562 359 112.782226562 359 c 3
 86.7822265625 359 67.0068359375 319 59.646484375 312 c 1
 39.9794921875 324 l 1
 44.5341796875 332 84.2509765625 418 154.250976562 418 c 3
 176.250976562 418 223.112304688 407 208.728515625 333 c 0
EndSplineSet
Validated: 545
Substitution2: "pcap-1" upsilon.pcap
Substitution2: "smcp-1" upsilon.smcp
EndChar
StartChar: phi
Encoding: 966 966 409
Width: 670
VWidth: 1040
UnlinkRmOvrlpSave: 1
Flags: HMW
LayerCount: 2
Fore
SplineSet
368.57421875 574 m 1
 429.932617188 569 453.600585938 532.98046875 444.46875 486 c 0
 438.569335938 455.650390625 412.163085938 416.036132812 375.48046875 393.458007812 c 0
 339.845703125 371.525390625 292.836914062 354.6015625 238.311523438 336 c 0
 156.504882812 308.091796875 92.283203125 253.541015625 76.43359375 172 c 0
 70.2470703125 140.171875 80.9951171875 113.973632812 105.385742188 99.73046875 c 0
 159.36328125 68.2099609375 253.546875 58 304.274414062 58 c 3
 368.559570312 58 553.889648438 76.5986328125 579.430664062 208 c 0
 592.916015625 277.373046875 540.8125 327 472.5625 327 c 7
 375.975585938 327 343.21484375 198.014648438 320.521484375 81.2666015625 c 0
 297.634765625 -36.47265625 275.072265625 -153.966796875 252.12890625 -272 c 1
 230.740234375 -274 218.740234375 -274 197.350585938 -276 c 1
 224.680664062 -161.125976562 244.188476562 -96.779296875 266.499023438 18 c 0
 289.0234375 133.880859375 310.936523438 270.237304688 374.619140625 358 c 0
 385.50390625 373 430.392578125 405 483.723632812 405 c 3
 581.66796875 405 636.1171875 314.421875 616.59765625 214 c 0
 592.700195312 91.0595703125 476.754882812 -22 286.723632812 -22 c 3
 78.6923828125 -22 23.0849609375 72.462890625 48.2646484375 202 c 0
 76.521484375 347.370117188 202.55859375 398.998046875 342.08203125 448 c 0
 368.3671875 457.231445312 402.053710938 468.4296875 405.46875 486 c 0
 408.541992188 501.811523438 391.556640625 508 375.745117188 508 c 3
 361.119140625 508 353.544921875 508 338.745117188 508 c 1
 345.783203125 529.475585938 355.639648438 568.6171875 368.57421875 574 c 1
EndSplineSet
Substitution2: "pcap-1" phi.pcap
Substitution2: "smcp-1" phi.smcp
EndChar
StartChar: chi
Encoding: 967 967 184
Width: 463
VWidth: 1047
UnlinkRmOvrlpSave: 1
Flags: HMW
LayerCount: 2
Fore
SplineSet
38.0029296875 391 m 1
 50.380859375 403.235351562 75.822265625 423 102.22265625 423 c 3
 203.028320312 423 210.458984375 263.818359375 227.73046875 99 c 1
 231.668945312 91.7216796875 235.602539062 84.37890625 239.546875 77 c 1
 260.727539062 -67.58203125 285.630859375 -209 372.375 -209 c 3
 424.673828125 -209 456.159179688 -137 464.311523438 -91 c 1
 470.8671875 -92 475.3671875 -92 481.922851562 -93 c 1
 481.229492188 -112 484.032226562 -123.302734375 480.204101562 -143 c 0
 469.2265625 -199.469726562 430.528320312 -289 361.82421875 -289 c 3
 267.75 -289 228.73046875 -167.481445312 218.265625 31 c 1
 211.140625 47.259765625 204.84375 63.3369140625 199.356445312 79 c 1
 186.249023438 228.494140625 161.9375 345 123.061523438 345 c 3
 103.467773438 345 85.8525390625 328.125 71.8125 318 c 1
 41.4599609375 320.534179688 39.9111328125 368.538085938 38.0029296875 391 c 1
423.22265625 423 m 1
 479.946289062 401 l 1
 302.4765625 139.505859375 108.442382812 -155.916992188 -4.5927734375 -286 c 1
 -46.2060546875 -248 l 1
 423.22265625 423 l 1
EndSplineSet
Substitution2: "pcap-1" x.pcap
Substitution2: "smcp-1" x.smcp
EndChar
StartChar: psi
Encoding: 968 968 419
Width: 598
VWidth: 1040
UnlinkRmOvrlpSave: 1
Flags: HMW
LayerCount: 2
Fore
SplineSet
318.265625 629 m 1
 333.986328125 643 345.930664062 653 365.930664062 653 c 3
 426.930664062 653 422.850585938 596 401.857421875 488 c 0
 343.348632812 187 266.114257812 -56 186.990234375 -283 c 1
 143.740234375 -274 l 1
 249.609375 34 312.288085938 269 343.778320312 431 c 0
 367.103515625 551 365.796875 570 346.796875 570 c 3
 341.796875 570 338.436523438 563 333.436523438 563 c 3
 312.436523438 563 317.18359375 608 318.265625 629 c 1
43.5322265625 368 m 1
 63.0029296875 391 92.66796875 415 121.66796875 415 c 3
 160.66796875 415 174.05859375 381 168.227539062 351 c 0
 161.03515625 314 136.150390625 258 126.430664062 208 c 0
 112.750976562 137.620117188 126.690429688 55 278.690429688 55 c 3
 434.690429688 55 510.462890625 218.451171875 561.391601562 393 c 1
 592.557617188 399 l 1
 555.014648438 211 452.140625 -25 263.140625 -25 c 3
 119.140625 -25 34.330078125 48 61.5439453125 188 c 0
 73.01171875 247 104.341796875 295 112.700195312 338 c 0
 115.616210938 353 107.94921875 365 95.94921875 365 c 3
 79.94921875 365 70.0048828125 355 55.8671875 344 c 1
 43.5322265625 368 l 1
EndSplineSet
Substitution2: "pcap-1" psi.pcap
Substitution2: "smcp-1" psi.smcp
EndChar
StartChar: uni03D0
Encoding: 976 976 698
Width: 454
VWidth: 1049
UnlinkRmOvrlpSave: 1
Flags: W
HStem: -9 37<178.492 277.759> 350 39<267.254 370.012> 417 30<125.888 157.569> 670 31<397.471 455.84>
LayerCount: 2
Fore
SplineSet
159.592773438 286 m 1
 217.8671875 344 274.614257812 389 340.614257812 389 c 3
 444.614257812 389 480.229492188 315 461.180664062 217 c 0
 440.381835938 110 348.250976562 -9 231.250976562 -9 c 3
 105.250976562 -9 65.2177734375 68 90.4873046875 198 c 0
 128.197265625 392 272.260742188 701 448.260742188 701 c 3
 489.260742188 701 507.401367188 676 500.59765625 641 c 0
 478.438476562 527 269.803710938 462 112.056640625 417 c 1
 125.887695312 447 l 1
 250.69140625 482 440.297851562 552 456.04296875 633 c 0
 460.319335938 655 453.234375 670 437.234375 670 c 3
 328.234375 670 190.396484375 321 161.627929688 173 c 0
 147.6328125 101 156.442382812 28 224.442382812 28 c 3
 278.442382812 28 354.8828125 92 378.986328125 216 c 0
 391.815429688 282 393.033203125 350 326.033203125 350 c 3
 269.033203125 350 201.92578125 298 152.594726562 250 c 1
 152.01171875 247 159.204101562 284 159.592773438 286 c 1
EndSplineSet
Substitution2: "pcap-1" b.pcap
Substitution2: "smcp-1" b.smcp
EndChar
StartChar: Upsilon1
Encoding: 978 978 1342
Width: 697
Flags: HW
HStem: -17 42<162.056 241.455> -11 43<382.111 459.862> 624 76<149.71 243.017 594.176 698.187>
AnchorPoint: "Top" 427.872 699 basechar 0
AnchorPoint: "Bottom" 301.084 -15 basechar 0
LayerCount: 2
Fore
SplineSet
428.669921875 379 m 0xa0
 395.592773438 286 381.877929688 164 376.55078125 80 c 0
 373.969726562 41 392.998046875 36 473.219726562 32 c 1
 459.862304688 -11 l 1x60
 359.583007812 3 272.749023438 9 162.6953125 -17 c 1
 158.859375 25 l 1
 240.581054688 39 280.107421875 52 289.438476562 100 c 0
 299.157226562 150 335.89453125 339 334.864257812 380 c 0
 331.94140625 473 298.29296875 624 174.29296875 624 c 3
 153.29296875 624 130.73828125 616 104.627929688 600 c 1
 87.265625 629 l 1
 110.319335938 655 171.06640625 700 212.06640625 700 c 3
 387.06640625 700 372.801757812 498 381.115234375 371 c 1
 434.801757812 498 496.06640625 700 656.06640625 700 c 3
 728.06640625 700 758.125 654 746.65625 595 c 0
 734.993164062 535 703.328125 511 665.328125 511 c 3
 653.328125 511 637.328125 511 620.049804688 525 c 1
 623.909179688 550 634.2421875 562 656.907226562 586 c 1
 679.991210938 571 696.490234375 589 699.2109375 603 c 0
 702.126953125 618 677.29296875 624 664.29296875 624 c 3
 552.29296875 624 461.13671875 474 428.669921875 379 c 0xa0
EndSplineSet
Position2: "cpsp-1" dx=0 dy=0 dh=50 dv=100
EndChar
StartChar: uni03D8
Encoding: 984 984 702
Width: 745
Flags: W
HStem: -10 40<215.831 324.881 436.46 524.251> 123.495 47.5049<340.908 355.684 436.604 517.184> 663 49<388.012 562.126>
LayerCount: 2
Fore
SplineSet
464.874023438 663 m 0
 354.286132812 663 248.000976562 576.194335938 224.637695312 456 c 0
 195.817382812 307.734375 287.111328125 171 427.239257812 171 c 0
 552.918945312 171 654.7109375 276.318359375 677.780273438 395 c 0
 705.359375 536.881835938 610.196289062 663 464.874023438 663 c 0
511.3984375 712 m 0
 693.4921875 712 814.427734375 578.392578125 782.66796875 415 c 0
 753.4375 264.622070312 610.09765625 140.546875 439.57421875 123.122070312 c 1
 436.900390625 104.54296875 434.313476562 85.5048828125 431.829101562 66 c 0
 426.248046875 27 479.219726562 32 532.831054688 30 c 1
 524.250976562 -9 l 1
 425.388671875 2 302.77734375 4 213.056640625 -10 c 1
 215.831054688 30 l 1
 275.831054688 30 332.248046875 27 343.966796875 77 c 0
 347.803710938 91.5751953125 351.724609375 107.151367188 355.68359375 123.495117188 c 1
 196.255859375 142.170898438 94.4951171875 264.918945312 123.66796875 415 c 0
 154.489257812 573.560546875 331.3984375 712 511.3984375 712 c 0
EndSplineSet
Position2: "cpsp-1" dx=0 dy=0 dh=50 dv=100
EndChar
StartChar: uni03D9
Encoding: 985 985 703
Width: 510
VWidth: 1043
UnlinkRmOvrlpSave: 1
Flags: HW
HStem: -11.2998 20G<215.067 289.84>
LayerCount: 2
Fore
SplineSet
289.83984375 6.7001953125 m 1
 273.739257812 -67.3759765625 253.7421875 -153.163085938 239.40234375 -214 c 1
 239.40234375 -214 170.791992188 -226 160.0703125 -226 c 1
 164.469726562 -203.36328125 204.202148438 -70.5732421875 225.931640625 8.7001953125 c 1
 289.83984375 6.7001953125 l 1
EndSplineSet
Refer: 369 959 N 1 0 0.19438 1 -4.375e-07 0 2
EndChar
StartChar: uni03DB
Encoding: 987 987 705
Width: 670
VWidth: 1049
Flags: W
HStem: -155 81.374<153.208 236.517> 1 88<112.022 267.655> 305 87<334.124 644.324> 313 87<217.728 569.912>
VStem: 664.417 24.8359<399.772 424.797>
LayerCount: 2
Fore
SplineSet
34.7685546875 148 m 0xd8
 52.83203125 240.928710938 109.211914062 307.729492188 173.998046875 353 c 0
 226.596679688 389.75390625 267.63671875 400 374.751953125 400 c 3xd8
 478.231445312 400 492.861328125 392 617.197265625 392 c 3
 645.296875 392 659.168945312 397 664.416992188 424 c 1
 673.611328125 425 679.805664062 426 689 427 c 1
 689.501953125 409 692.827148438 400.384765625 689.252929688 382 c 0
 677.85546875 323.364257812 601.514648438 305 542.286132812 305 c 3xe8
 391.686523438 305 312.435546875 313 274.840820312 313 c 3
 175.181640625 313 105.966796875 267.346679688 92.681640625 199 c 0
 74.9111328125 107.576171875 128.4765625 89 191.299804688 89 c 3
 211.022460938 89 222.8828125 92 242.8828125 92 c 3
 327.083984375 92 329.149414062 41.9248046875 318.862304688 -11 c 0
 303.111328125 -92.029296875 226.333007812 -155 185.87109375 -155 c 3
 157.68359375 -155 144.90234375 -127.041992188 143.728515625 -94 c 1
 161.642578125 -79.154296875 182.489257812 -73.6259765625 202.879882812 -73.6259765625 c 3
 216.623046875 -73.6259765625 230.159179688 -76.1376953125 242.44921875 -80 c 1
 259.19921875 -69 263.842773438 -57.4013671875 267.030273438 -41 c 0
 274.07421875 -4.7646484375 262.020507812 1 192.194335938 1 c 3
 81.89453125 1 59.1962890625 18.4384765625 44.462890625 43.5361328125 c 0
 30.5244140625 67.2783203125 25.111328125 98.3193359375 34.7685546875 148 c 0xd8
EndSplineSet
Validated: 33
EndChar
StartChar: uni03DC
Encoding: 988 988 706
Width: 566
VWidth: 1159
Flags: HW
HStem: -11 53<176.126 273.015> -9 35<-10.3885 46.4422> 340 37<215.281 399.123> 655 31<107.345 163.153> 681 20G<606.691 617.289>
VStem: 426.124 31.583<230 290.23> 559.41 31.583<535 595.503>
AnchorPoint: "Top" 401.872 699 basechar 0
AnchorPoint: "Bottom" 125.084 -15 basechar 0
LayerCount: 2
Fore
SplineSet
270.862304688 -11 m 1xae
 218 0 179.971679688 5 135.971679688 5 c 0
 96.9716796875 5 53 0 -9.7490234375 -9 c 1
 -12.9462890625 26 l 1
 41.998046875 36 69.5244140625 49 74.966796875 77 c 1
 93.962890625 154.143554688 162.991210938 529.84375 176.349609375 614 c 0
 180.59765625 641 166.59765625 641 96.3193359375 655 c 1
 107.344726562 686 l 1x76
 162.76171875 683 225.567382812 682 287.567382812 682 c 3
 447.567382812 682 603.122070312 690 610.260742188 701 c 1
 624.31640625 691 627.956054688 684 623.874023438 663 c 0
 619.59765625 641 607.405273438 604 590.993164062 535 c 1
 559.41015625 532 l 1
 555.408203125 568 568.73828125 616 534.681640625 626 c 0
 475.180664062 644 375.541992188 651 292.791992188 642 c 0
 274.403320312 640 268.098632812 623 263.599609375 605 c 0
 243.004882812 519.625976562 237.733398438 492.506835938 215.28125 377 c 1
 351.669921875 379 471.225585938 387 476.974609375 396 c 1
 491.03125 386 494.475585938 378 490.393554688 357 c 0
 486.1171875 335 474.120117188 299 457.70703125 230 c 1
 426.124023438 227 l 1
 422.122070312 263 435.452148438 311 401.396484375 321 c 0
 353.311523438 336 278.672851562 343 208.088867188 340 c 1
 198.953125 293 167.3515625 151 170.745117188 81 c 0
 171.440429688 64 175.1640625 42 287.1640625 42 c 1
 270.862304688 -11 l 1xae
EndSplineSet
Position2: "cpsp-1" dx=0 dy=0 dh=50 dv=100
EndChar
StartChar: uni03DD
Encoding: 989 989 707
Width: 370
VWidth: 1038
UnlinkRmOvrlpSave: 1
Flags: HW
HStem: -279 68<-184.31 -85.8655> 176 40<120.386 294.567> 350 69<202.639 356.662>
LayerCount: 2
Fore
SplineSet
83.0986328125 196 m 1
 167.653320312 204 216.430664062 208 300.986328125 216 c 1
 297.875976562 200 296.321289062 192 293.2109375 176 c 1
 209.43359375 172 161.044921875 170 77.267578125 166 c 1
 83.0986328125 196 l 1
-163.232421875 -279 m 3
 -189.526367188 -279 -212.827148438 -267.545898438 -221.733398438 -261 c 1
 -207.05078125 -232.62109375 -180.836914062 -189.947265625 -152.154296875 -186 c 1
 -140.600585938 -197.111328125 -107.637695312 -211 -93.0146484375 -211 c 3
 51.283203125 -211 -10.3876953125 419 287.4453125 419 c 3
 337.489257812 419 384.340820312 410.090820312 402.723632812 405 c 1
 387.80078125 376.243164062 361.151367188 333 331.951171875 329 c 1
 308.051757812 338.333007812 243.450195312 350 216.033203125 350 c 3
 76.1298828125 350 104.76953125 -279 -163.232421875 -279 c 3
EndSplineSet
EndChar
StartChar: uni03F3
Encoding: 1011 1011 715
Width: 211
VWidth: 1043
Flags: HW
HStem: -274 28<-77.0468 0.816652>
VStem: 66 100<136.51 427.332> 70 103<585 585>
LayerCount: 2
Fore
SplineSet
121 636 m 0xa0
 156 636 173 606 173 585 c 0
 173 558 150 533 121 533 c 0
 95 533 70 555 70 585 c 0
 70 610 91 636 121 636 c 0xa0
162 358 m 4
 150.353515625 192.888671875 148.880292156 21.6952405447 117 -124 c 0
 99.6827466009 -203.140367033 54.4318894727 -264.47249203 -31 -274 c 0
 -79.797533916 -279.440951502 -141.226744352 -267.706260641 -159 -232 c 0
 -180.309691342 -189.189160792 -124.027685345 -159.535684771 -85 -185 c 0
 -76.042399378 -190.844542179 -70.9071543822 -201.011265822 -76 -214 c 0
 -89.764858705 -249.099165308 -32.8590956559 -253.989132792 -8 -239 c 0
 14.2312788257 -225.596352528 23.1030852428 -198.396447022 29 -170 c 0
 46.4808096558 -85.8197357568 49.9151812244 11.1280460757 55 106 c 0
 59.9636 198.609 63.6308 291.288 66 384 c 0
 66.6393795477 409.012442154 68.9140018465 422.730013488 90 428 c 2
 138 440 l 2
 177.271294419 449.813608137 164.131835938 388.234375 162 358 c 4
EndSplineSet
EndChar
StartChar: afii10053
Encoding: 1028 1028 41
Width: 620
UnlinkRmOvrlpSave: 1
Flags: W
HStem: -10 42<264.828 445.111> 332 36<145 485.393> 659 40<371.158 564.014>
VStem: 509 36<248 304.348 394.139 440.094> 618.39 37.3193<525.562 600.835>
AnchorPoint: "Top" 433 699 basechar 0
AnchorPoint: "Bottom" 423 -15 basechar 0
LayerCount: 2
Fore
SplineSet
145 368 m 1
 228.361328125 370 436.763671875 370 455 371 c 0
 492 376 497 402 513 446 c 1
 547 439 l 1
 530 375 534 312 545 248 c 1
 509 239 l 1
 489 310 496 323 455 327 c 0
 397.689453125 332 266.133789062 331 145 332 c 1
 145 368 l 1
EndSplineSet
Refer: 1254 67 N 1 0 0 1 0 0 2
Position2: "cpsp-1" dx=0 dy=0 dh=50 dv=100
EndChar
StartChar: afii10049
Encoding: 1071 1071 38
Width: 738
Flags: W
HStem: -33 37<37 97.8959> -10 21G<439.364 483> 314.094 40.906<397.939 529> 649 37<627.348 695> 654 42<313.59 514.156>
VStem: 164 87<452.19 585.627> 529 90<63.3592 283.488 429.868 616.22>
AnchorPoint: "Top" 423 699 basechar 0
AnchorPoint: "Bottom" 362 -15 basechar 0
LayerCount: 2
Fore
SplineSet
529 360 m 1x2e
 531 438.163 534.845794535 535.024321176 526 613 c 0
 522 648.26 459 654 428 654 c 0
 312 654 251 611.903225806 251 538 c 3
 251 471.568493151 288.12 355 475 355 c 0
 496.495145631 355 507.504854369 359 529 360 c 1x2e
695 686 m 1x36
 695 649 l 1
 632 647 621 635 616 598 c 1
 610 390 609 301 619 69 c 1
 623 38 638 36 691 34 c 1
 684 -7 l 1
 603 9 523 7 443 -10 c 1x76
 435 34 l 1
 490 39 514.650457524 44.0205509755 517 81 c 0
 522 159.695 524 226.732 529 320 c 1
 480.25 315.795 426.657 308.046 401.5 314.094 c 1
 339.815 147.88 203.361 -37.8889 37 -33 c 1
 30 4 l 1
 151.896 5.97004 216.537 135.028 313.5 330.094 c 1
 235.725 354.537 164 417.114 164 510 c 0
 164 613 274 696 407 696 c 0xae
 486 696 515 684 584 684 c 0
 627 684 652 685 695 686 c 1x36
EndSplineSet
Validated: 33
Position2: "cpsp-1" dx=0 dy=0 dh=50 dv=100
EndChar
StartChar: afii10096
Encoding: 1102 1102 78
Width: 653
Flags: W
HStem: -11 39<378.357 488.177> 191 32<96 257> 374 45<347.545 464.645> 381 28<24.5 66.0311>
VStem: 85.2669 51.6579<32.7998 369.855> 222 76<123.631 296.85> 543 78<102.12 283.313>
LayerCount: 2
Fore
SplineSet
426 419 m 3xee
 547.875 419 621 311 621 205 c 3
 621 78 536.096774194 -11 425 -11 c 3
 311.71875 -11 222 71 222 194 c 3
 222 351 344.4 419 426 419 c 3xee
405 374 m 3
 338.125 374 298 304 298 227 c 3
 298 124 358.636942675 28 434 28 c 3
 502.753846154 28 543 102 543 181 c 3
 543 302 468.358490566 374 405 374 c 3
25 409 m 1xde
 53.5059801596 402.856451925 81.2438911417 400.120117188 109.524414062 400.120117188 c 0
 136.478115855 400.120117188 163.924851503 402.607186463 193 407 c 1
 194 379 l 1
 170 378 154 384 149 349 c 0
 142.962402344 306.738301406 136.924804688 255.026599721 136.924804688 184.205078125 c 0
 136.924804688 149.452135756 138.37871877 110.097585738 142 65 c 0
 144 36 169 21 195 20 c 1
 194 -6 l 1
 170.890969902 -2.61705719452 141.855565787 -0.869140625 113.393554688 -0.869140625 c 0
 82.9592219739 -0.869140625 53.1803498319 -2.86678466073 32 -7 c 1
 29 19 l 1
 53 20 74 32 78 69 c 0
 82.1792619994 110.792619994 85.2668845701 167.595282134 85.2668845701 221.44413814 c 0
 85.2668845701 270.67349262 82.686291501 317.434095995 76 348 c 0
 69 379 47 377 23 381 c 1
 25 409 l 1xde
EndSplineSet
Refer: 487 58113 N 0.161 0 0 1 96 207 2
Validated: 37
EndChar
StartChar: afii10101
Encoding: 1108 1108 82
Width: 367
UnlinkRmOvrlpSave: 1
Flags: W
HStem: -15 53<150.021 237.281> 184.496 27.5508<89 280.612> 359 63<212.666 304.636>
VStem: 43.6688 74.9532<71.9391 229.688>
LayerCount: 2
Fore
SplineSet
89 212.046875 m 1
 165.0390625 213.502929688 285.255859375 219.407226562 330 232 c 1
 333 182 l 1
 309.78125 184.811523438 272.50390625 187.745117188 231 187.745117188 c 3
 184.024414062 187.745117188 131.59765625 187.533203125 89 184.49609375 c 1
 89 212.046875 l 1
EndSplineSet
Refer: 177 99 N 1 0 0 1 0 0 2
EndChar
StartChar: afii10193
Encoding: 1119 1119 91
Width: 494
Flags: W
HStem: -10 65<98.039 193.828> 0 18.0996<182.9 204.127 290.228 311> 339 73<114.784 171.039>
VStem: 232.4 33.2998<-168 -32.8108> 375.539 65<362.478 401> 439.539 17<116.012 125.588>
LayerCount: 2
Fore
SplineSet
182.900390625 18.099609375 m 1x70
 311 18.099609375 l 1
 311 0 l 1
 278.546552119 0 272.557740474 -37.8 265.700195312 -168 c 1
 232.400390625 -168 l 1
 224.150390625 -37.8 215.212675781 0 182.900390625 0 c 1
 182.900390625 18.099609375 l 1x70
EndSplineSet
Refer: 63 1087 N -1 0 0 -1 508 401 2
Validated: 5
EndChar
StartChar: afii10050
Encoding: 1168 1168 39
Width: 570
Flags: W
HStem: -9 35<45 91.758> 645.272 35.7021<205.318 411.823> 654 31<29 93.7781>
VStem: 117.4 79.5996<87.346 637.89> 511 31<730.208 792.896>
AnchorPoint: "Top" 323 699 basechar 0
AnchorPoint: "Bottom" 185 -15 basechar 0
LayerCount: 2
Fore
SplineSet
209.612304688 680.974609375 m 3xd8
 301.492143473 680.974609375 399.91186965 682.442303631 468 701.896484375 c 0
 504.194643814 712.238039344 500 759.896484375 511 795.896484375 c 1
 542 792.896484375 l 1
 544.59375 723.911132812 550.146484375 687.209960938 550.146484375 665.071289062 c 0
 550.146484375 644.52734375 545.364257812 636.522460938 529 626.896484375 c 1
 524.789945059 635.918827778 416.765549312 645.272460938 288 645.272460938 c 3xd8
 265.67029772 645.272460938 243.71422373 643.301580414 223 641 c 0
 205 639 201.947517839 622.002838941 201 604 c 0
 196 509 197 487 197 332 c 3
 197 290 194.635574408 146.298808766 210 81 c 0
 214 64 222 42 334 42 c 1
 328 -14 l 1
 272.69921875 -0.306640625 233.209960938 6.1748046875 189.516601562 6.1748046875 c 0
 150.249023438 6.1748046875 107.5859375 0.939453125 47 -9 c 1
 37 26 l 1
 90 36 115 49 115 77 c 1
 116.599609375 107.799804688 117.400390625 186.280273438 117.400390625 274.744140625 c 0
 117.400390625 407.440429688 113.870153668 562.505850952 112 613 c 0
 111 640 97 640 24 654 c 1
 29 685 l 1xb8
 84.5693359375 682.208007812 147.545898438 680.974609375 209.612304688 680.974609375 c 3xd8
EndSplineSet
Validated: 33
Position2: "cpsp-1" dx=0 dy=0 dh=50 dv=100
EndChar
